<?xml version="1.0" encoding="UTF-8"?>
<!-- Generator: Adobe Illustrator 25.0.0, SVG Export Plug-In . SVG Version: 6.00 Build 0)  -->
<svg version="1.0" xmlns="http://www.w3.org/2000/svg" xmlns:xlink="http://www.w3.org/1999/xlink" x="0px" y="0px" viewBox="0 0 60 85" enable-background="new 0 0 60 85" xml:space="preserve">
<g id="фоны">
	<linearGradient id="Apple_1_" gradientUnits="userSpaceOnUse" x1="4.1266537" y1="23.3201141" x2="52.3272133" y2="59.0511398">
		<stop offset="0" style="stop-color:#FFFFFF"/>
		<stop offset="1" style="stop-color:#D1D1D1"/>
	</linearGradient>
	<rect id="Apple" fill-rule="evenodd" clip-rule="evenodd" fill="url(#Apple_1_)" width="60" height="85"/>
</g>
<g id="иконки">
	<g id="apple_AppStore">
		
			<linearGradient id="SVGID_1_" gradientUnits="userSpaceOnUse" x1="-536.7839966" y1="358.1502075" x2="-536.7839966" y2="368.5989075" gradientTransform="matrix(2.4414062 0 0 -2.4414062 1340.5078125 926.3398438)">
			<stop offset="0" style="stop-color:#1D76F2"/>
			<stop offset="1" style="stop-color:#1AC2FB"/>
		</linearGradient>
		<path fill="url(#SVGID_1_)" d="M17.2452679,26.4401989h25.5094624v25.5094624H17.2452679V26.4401989z"/>
		<path fill="#FFFFFF" d="M25.5408268,45.0117874l0.0023651,0.0007477L24.6825714,46.50317    c-0.3141346,0.544117-1.0099392,0.7305565-1.5540581,0.4163971c-0.5440941-0.3141098-0.7305317-1.0099144-0.4163971-1.5540352    l0.6339989-1.0981026l0.0608349-0.1053772c0.1086636-0.1562195,0.376812-0.4257126,0.9131851-0.3750687    c0,0,1.2621937,0.1369896,1.3535213,0.7930107C25.6736813,44.5799942,25.6861362,44.7958794,25.5408268,45.0117874    L25.5408268,45.0117874z M37.7474518,41.2044754h-2.6837463c-0.1827545-0.0122337-0.2625961-0.0775032-0.2939072-0.1154404    l-0.0019951-0.0034637l-2.872879-4.9759407l-0.0037117,0.002491l-0.1723137-0.2470474    c-0.2823467-0.4317932-0.730732,0.6726151-0.730732,0.6726151c-0.5353489,1.2306061,0.0759563,2.6297646,0.2891254,3.052639    l3.9902363,6.9112968c0.3141098,0.544117,1.0099144,0.7305565,1.5540352,0.4163971    c0.5440941-0.3141098,0.7305336-1.0099144,0.4163971-1.5540352l-0.9978065-1.7282143    c-0.01931-0.041851-0.0529633-0.1555748,0.1516609-0.1560211h1.3556404c0.6282959,0,1.1376343-0.5093422,1.1376343-1.1376381    s-0.5093384-1.1376381-1.1376343-1.1376381H37.7474518z M32.5347557,42.7510605c0,0,0.1432381,0.7286644-0.4110413,0.7286644    h-0.554285v0.0000229h-9.3667812c-0.628294,0-1.1376362-0.5093422-1.1376362-1.1376381    c0-0.6282921,0.5093422-1.1376343,1.1376362-1.1376343h2.5505981c0.4117889-0.0238686,0.5094166-0.2615738,0.5094166-0.2615738    l0.002243,0.0011482l3.3293839-5.7666855l-0.0009975-0.0001984c0.0607109-0.1114044,0.0101643-0.2166557,0.0013714-0.2333221    l-1.0995235-1.9044151c-0.3141594-0.544117-0.1277218-1.2398987,0.4163971-1.5540352    c0.5441189-0.3141594,1.2398739-0.1277218,1.5540352,0.4163971l0.5099392,0.8832664l0.5090427-0.8816967    c0.3141346-0.5441189,1.0099163-0.7305565,1.5540352-0.4163971c0.5441208,0.3141613,0.7305565,1.009943,0.4163971,1.5540333    l-4.6329327,8.0244446c-0.0202522,0.0488548-0.0264549,0.1255302,0.1242599,0.1390343h2.7692966l0.000597,0.0269775    C30.7162075,41.2314529,32.3167763,41.2563667,32.5347557,42.7510605z"/>
	</g>
</g>
</svg>