<?xml version="1.0" encoding="UTF-8"?>
<!-- Generator: Adobe Illustrator 25.0.0, SVG Export Plug-In . SVG Version: 6.00 Build 0)  -->
<svg version="1.0" xmlns="http://www.w3.org/2000/svg" xmlns:xlink="http://www.w3.org/1999/xlink" x="0px" y="0px" viewBox="0 0 60 85" enable-background="new 0 0 60 85" xml:space="preserve">
<g id="фоны">
	<linearGradient id="Apple_1_" gradientUnits="userSpaceOnUse" x1="4.1266537" y1="23.3201141" x2="52.3272133" y2="59.0511398">
		<stop offset="0" style="stop-color:#FFFFFF"/>
		<stop offset="1" style="stop-color:#D1D1D1"/>
	</linearGradient>
	<rect id="Apple" fill-rule="evenodd" clip-rule="evenodd" fill="url(#Apple_1_)" width="60" height="85"/>
</g>
<g id="иконки">
	<path id="apple_music" fill-rule="evenodd" clip-rule="evenodd" d="M25.1714439,45.9243927v-5.9500504h-0.038763   l-2.3934536,5.9500504h-0.9136696l-2.3991508-5.9500504h-0.0383396v5.9500504h-1.1224937v-8.0845642h1.4251251l2.5696754,6.4427223   h0.0440369l2.5639381-6.4422607h1.4308605v8.0845642h-1.1277657V45.9243927z M32.5059319,45.9243927h-1.1392384v-0.9971619   h-0.0273304c-0.3193398,0.7059212-0.9079342,1.103363-1.7938499,1.103363c-1.2599125,0-2.0308895-0.834568-2.0308895-2.1847076   v-3.8155746h1.1885853v3.5802307c0,0.8963089,0.4185333,1.3779297,1.2379341,1.3779297   c0.8590469,0,1.3762379-0.6049919,1.3762379-1.5237427v-3.4344215h1.1881237v5.8940849H32.5059319z M35.7632828,39.923645   c1.3480263,0,2.2229691,0.762352,2.261692,1.8489723H36.907795c-0.0660934-0.5710831-0.4788551-0.92976-1.1445122-0.92976   c-0.644062,0-1.073185,0.3190308-1.073185,0.7900696c0,0.3697243,0.2643318,0.621315,0.8912315,0.7671623l0.9409981,0.2185631   c1.1832733,0.2802315,1.6344109,0.750885,1.6344109,1.6021957c0,1.0760689-0.9850349,1.8154793-2.3494186,1.8154793   c-1.4471436,0-2.317234-0.7226639-2.4269028-1.843235h1.1775398c0.1101303,0.6160431,0.5229263,0.9187508,1.2493668,0.9187508   c0.7150078,0,1.1555595-0.3027077,1.1555595-0.7843323c0-0.3811569-0.2145576-0.6050339-0.8476143-0.7508812l-0.9409981-0.2238388   c-1.100441-0.2577858-1.6453819-0.7958031-1.6453819-1.6524239c0-1.0535927,0.9026604-1.776722,2.2343979-1.776722H35.7632828z    M38.9813728,38.4730377c0-0.3868523,0.3084068-0.6948738,0.6876755-0.6948738c0.3797722,0,0.6828651,0.308445,0.6828651,0.6948738   c0,0.3806953-0.303093,0.6944923-0.6828651,0.6944923c-0.190464-0.0015793-0.3527107-0.0700989-0.4867439-0.205555   c-0.1340332-0.1353798-0.2008553-0.2983971-0.20047-0.4889374H38.9813728z M39.0747948,40.0303078h1.188549v5.8940849h-1.188549   V40.0303078z M45.281517,42.0586205c-0.1211357-0.6275139-0.5832863-1.1263046-1.3590736-1.1263046   c-0.9189415,0-1.5242462,0.778595-1.5242462,2.04459c0,1.2946358,0.6105766,2.045517,1.5352554,2.045517   c0.7312889,0,1.2106018-0.408947,1.3480225-1.0928154h1.1449738c-0.1264114,1.2549477-1.1114464,2.10672-2.503582,2.10672   c-1.6563911,0-2.7348099-1.15448-2.7348099-3.05896c0-1.8714485,1.0784187-3.0537224,2.7238426-3.0537224   c1.4912148,0,2.3991508,0.9751816,2.5035782,2.1349754h-1.1335373H45.281517z M14.6302586,38.6285896   c-0.3074818,0.3674927-0.7951488,0.6592293-1.2832785,0.6160393c-0.0638981-0.4970589,0.1806097-1.026722,0.4564114-1.3506012   c0.3070202-0.3789253,0.8374529-0.6486092,1.2722692-0.6706657c0.0532742,0.5190811-0.1480436,1.0267258-0.4449787,1.4056892   L14.6302586,38.6285896z M15.0703487,39.3420181c0.2749166,0.021553,1.0682964,0.1075096,1.5762482,0.8724823   c-0.0423031,0.0326004-0.9414215,0.5604935-0.9308357,1.6700554c0.0105467,1.3263512,1.1422787,1.7678642,1.1528645,1.7788734   c-0.0105858,0.0326042-0.1793003,0.6252823-0.5920601,1.23909c-0.35991,0.5393639-0.7299814,1.0672951-1.3225031,1.0783043   c-0.5713902,0.0105476-0.7621613-0.3450508-1.4176579-0.3450508c-0.65592,0-0.8678617,0.3340416-1.4070711,0.3555984   c-0.5713902,0.0211678-1.0044365-0.5715065-1.3643456-1.1104088c-0.7409897-1.0884285-1.3013315-3.0713539-0.5396709-4.4078293   c0.3700714-0.6680069,1.0471621-1.0883904,1.7771435-1.0993996c0.5608034-0.0101204,1.0793428,0.3776169,1.4176569,0.3776169   c0.3387384,0,0.9414225-0.4525223,1.6502323-0.4097939L15.0703487,39.3420181z"/>
</g>
</svg>