<?xml version="1.0" encoding="UTF-8"?>
<!-- Generator: Adobe Illustrator 25.0.0, SVG Export Plug-In . SVG Version: 6.00 Build 0)  -->
<svg version="1.0" xmlns="http://www.w3.org/2000/svg" xmlns:xlink="http://www.w3.org/1999/xlink" x="0px" y="0px" viewBox="0 0 60 85" enable-background="new 0 0 60 85" xml:space="preserve">
<g id="фоны">
	<rect id="Google" fill="#FFFFFF" width="60" height="85"/>
</g>
<g id="иконки">
	<g id="google_play">
		
			<linearGradient id="SVGID_1_" gradientUnits="userSpaceOnUse" x1="-776.5175781" y1="500.2192688" x2="-774.0211792" y2="500.2192688" gradientTransform="matrix(6.1144576 0 0 -6.1144576 4768.5537109 3090.4726562)">
			<stop offset="0.077" style="stop-color:#54B06A"/>
			<stop offset="0.374" style="stop-color:#65B362"/>
		</linearGradient>
		<path fill="url(#SVGID_1_)" d="M35.4719887,33.9163399l-13.2940216-7.5078773    c-0.65872-0.3733139-1.2448158-0.3335247-1.6078587,0.030653l11.1444645,11.2207279l2.1137276-1.0038109    C34.9266548,36.0370216,36.569046,34.5380211,35.4719887,33.9163399L35.4719887,33.9163399z"/>
		
			<linearGradient id="SVGID_2_" gradientUnits="userSpaceOnUse" x1="-776.5247192" y1="498.3409729" x2="-774.0154419" y2="498.3409729" gradientTransform="matrix(6.1144576 0 0 -6.1144576 4768.5537109 3090.4726562)">
			<stop offset="0.121" style="stop-color:#DF2253"/>
			<stop offset="0.451" style="stop-color:#E63D49"/>
		</linearGradient>
		<path fill="url(#SVGID_2_)" d="M31.6874809,37.6320229l2.7295036,1.7135658    c1.0968971,0.6216774,2.0648804,1.2284775,0.9730797,2.0170021l-13.1925259,7.5160446    c-0.7085381,0.3992767-1.3156605,0.3353844-1.6711044-0.1077271l3.5239334-4.2286682L31.6874809,37.6320229z"/>
		<g>
			<path fill="#6E6F70" d="M21.5062256,54.6393852c0.8123817,0,1.4622879,0.5784149,1.4622879,1.4432831     s-0.6499062,1.4432793-1.4622879,1.4432793c-0.8123798,0-1.462286-0.5784111-1.462286-1.4432793     S20.6938457,54.6393852,21.5062256,54.6393852z M21.5168209,56.9608803c0.5215569,0,0.8356724-0.423378,0.8356724-0.8836327     c0-0.4600945-0.3141155-0.8835487-0.8356724-0.8835487c-0.5215588,0-0.8357544,0.4233742-0.8357544,0.8835487     S20.9952621,56.9608803,21.5168209,56.9608803z M24.7099762,54.6393852c0.8123817,0,1.462286,0.5784149,1.462286,1.4432831     s-0.6499043,1.4432793-1.462286,1.4432793s-1.462286-0.5784111-1.462286-1.4432793S23.8975945,54.6393852,24.7099762,54.6393852     L24.7099762,54.6393852z M24.7205715,56.9608803c0.5215569,0,0.8356724-0.423378,0.8356724-0.8836327     c0-0.4600945-0.3141155-0.8835487-0.8356724-0.8835487s-0.8357544,0.4233742-0.8357544,0.8835487     S24.1990147,56.9608803,24.7205715,56.9608803z M31.4197865,56.52351c0.133604,0.2580719,0.3861752,0.4422226,0.727705,0.4422226     c0.3260078,0,0.5710564-0.1677361,0.7087822-0.4075279l0.5013428,0.3458176     c-0.2532196,0.3898163-0.6926079,0.6217613-1.2071304,0.6217613c-0.8123798,0-1.462286-0.5784111-1.462286-1.4432831     c0-0.8648682,0.6949539-1.5023994,1.4712658-1.4689178c0,0,0.8957634,0.0092239,1.2265358,1.0851707L31.4197865,56.52351z      M32.6502876,55.4938202c-0.0851593-0.1898079-0.271656-0.3205833-0.5372467-0.3205833     c-0.5114498,0-0.7890091,0.4131889-0.8008976,0.8691559L32.6502876,55.4938202z M28.7154331,57.0964241     c-0.2418938,0.4184418-0.7755833,0.4294395-0.7755833,0.4294395c-0.8123817,0-1.462286-0.5784111-1.462286-1.4432793     s0.6499043-1.4432831,1.462286-1.4432831c0,0,0.4813633-0.0079231,0.7362785,0.345253l0.2288742,0.1896515L28.7154331,57.0964241     z M27.923027,56.9701767c0.5044937,0,0.7951565-0.4278221,0.7951565-0.8927689     c0-0.4646225-0.2906628-0.8924484-0.7951565-0.8924484c-0.5044117,0-0.8083363,0.4278259-0.8083363,0.8924484     C27.1146908,56.5423546,27.4186153,56.9701767,27.923027,56.9701767z"/>
			<path fill="#6E6F70" d="M28.6750774,55.0651855l0.0943813,0.4717407v0.5796242l-0.0808754,0.6065598v0.6817665     c0,0.4601746-0.2430267,0.8836327-0.7557678,0.8836327c-0.3723469,0-0.6538696-0.2236176-0.7805977-0.521965     l-0.5520477,0.2405205c0.2186832,0.5236626,0.7257652,0.8465118,1.3222942,0.8465118     c0.7986317,0,1.359251-0.5784149,1.359251-1.4432831v-2.7089615h-0.6065559v0.3638535H28.6750774z M29.7399483,53.1377106     h0.6267738v4.3132668h-0.6267738V53.1377106z M38.1103477,53.1377106h0.6267738v4.3132668h-0.6267738V53.1377106z      M19.781908,55.0613861h-2.0692482v0.6029968h1.458971c-0.0286293,0.7033615-0.5530987,1.2755508-1.4971428,1.2755508     c-0.9269009,0-1.6306667-0.7514038-1.6306667-1.6783829s0.7036858-1.6783829,1.6306667-1.6783829     c0.4289227-0.0006256,0.8416843,0.1636009,1.1529427,0.4587173l0.4148846-0.4337273     c-0.4254131-0.397007-0.9859447-0.6172752-1.5678272-0.6161003c-1.2639847,0-2.288579,1.0161858-2.288579,2.2695732     c0,1.2533913,1.0245943,2.2694931,2.288579,2.2694931c0,0,2.307663,0.1144371,2.10742-2.4697342V55.0613861z      M44.61409,54.7033577h-0.7078094l-0.7480888,1.9049072l-0.7694359-1.904911h-0.6897774l1.1527824,2.6161194     l-0.6711769,1.4393158h0.6676979L44.61409,54.7033577z M36.3927422,53.1361771h-1.2358398l0.000164,0.0016174h-0.3538246     v4.3132629h0.6267738v-1.6712646h0.9627266c0.7495422,0,1.357151-0.5917549,1.357151-1.3218079     S37.1422844,53.1361771,36.3927422,53.1361771z M36.3497963,55.2085762h-0.9197807v-1.49617h0.9197807     c0.4326782,0,0.7835083,0.33498,0.7835083,0.748085S36.7823944,55.2085762,36.3497963,55.2085762z M40.3448219,54.6015358     c-0.5730743,0-0.9674988,0.2699585-1.1772842,0.6596909l0.5725861,0.2280655     c0.1124954-0.1898079,0.3350639-0.3184814,0.6133537-0.3184814c0.4113235,0,0.6930923,0.273838,0.6930923,0.6115723     c0,0-0.2840309-0.1609383-0.7391129-0.1609383c-1.2232208,0-1.1861,0.9552879-1.1861,0.9552879     c0,1.0059128,1.0740929,0.9557686,1.0740929,0.9557686c0.540966,0,0.834137-0.4509544,0.834137-0.4509544v0.3695145h0.6199799     v-1.6941566C41.6497269,55.1188049,41.121376,54.6015358,40.3448219,54.6015358z M41.0329018,56.3038559     c-0.1567345,0.7809219-0.9295692,0.6572685-0.9295692,0.6572685c-0.1587029-0.0200005-0.2896461-0.1337929-0.3315849-0.2881546     c-0.0570145-0.2101936,0.0581474-0.4031563,0.2773972-0.4836311c0,0,0.4774818-0.1700745,0.9862633,0.0994797     L41.0329018,56.3038559z"/>
		</g>
		
			<linearGradient id="SVGID_3_" gradientUnits="userSpaceOnUse" x1="-774.6990967" y1="499.2826233" x2="-773.2036743" y2="499.2826233" gradientTransform="matrix(6.1144576 0 0 -6.1144576 4768.5537109 3090.4726562)">
			<stop offset="0.077" style="stop-color:#FCC40D"/>
			<stop offset="0.286" style="stop-color:#FDCE0F"/>
			<stop offset="0.683" style="stop-color:#FEE40E"/>
			<stop offset="0.769" style="stop-color:#FEE90F"/>
		</linearGradient>
		<path fill="url(#SVGID_3_)" d="M40.010891,36.4752808l-4.5829773-2.5786743l-3.7388973,3.7376823l3.7008839,3.7298393    l4.6183243-2.6330223c0.1372414-0.0773964,0.2574997-0.1609421,0.3604546-0.2491722    c0.1029549-0.0882339,0.1889229-0.1810799,0.2576637-0.2770767c0.017231-0.0239372,0.0333214-0.0481987,0.0483627-0.072464    C41.0205231,37.5721779,40.7994156,36.9221115,40.010891,36.4752808L40.010891,36.4752808z"/>
		
			<linearGradient id="SVGID_4_" gradientUnits="userSpaceOnUse" x1="-775.6392822" y1="501.1138611" x2="-775.6392822" y2="497.4606018" gradientTransform="matrix(6.1144576 0 0 -6.1144576 4768.5537109 3090.4726562)">
			<stop offset="0.198" style="stop-color:#48BCE8"/>
			<stop offset="0.593" style="stop-color:#61C4E2"/>
		</linearGradient>
		<path fill="url(#SVGID_4_)" d="M20.5773048,26.4332104c-0.2417316,0.2420578-0.3852043,0.627018-0.3846378,1.1308651    l0.0219173,20.140995c0.0004845,0.4476395,0.1145992,0.8219223,0.3102341,1.0658379l11.1633091-11.1398544L20.5773048,26.4332104z    "/>
		<path fill="none" d="M20.1860352,27.5706253c-0.0014553-1.26091,0.8949547-1.7838421,1.9919319-1.1621628l17.8255653,10.0701332    c1.0969772,0.6216812,1.0957642,1.6368141-0.0026703,2.255825L22.2076473,48.8786354    c-1.0985146,0.6189308-1.9983196,0.093811-1.9996948-1.167099L20.1860352,27.5706253z"/>
		<path fill="#CCCCCC" d="M40.5443382,36.9015694c0.3659554,0.5664406,0.1774368,1.3066826-0.6742477,1.7721138    L22.0769558,48.8178978c-0.6846809,0.385849-1.2760334,0.2366371-1.6368942-0.167572    c0.3377304,0.5332832,0.9670944,0.6715012,1.7637863,0.2249947l17.7931309-10.1442146    C40.8895874,38.2534599,41.0550575,37.4971275,40.5443382,36.9015694L40.5443382,36.9015694z"/>
	</g>
</g>
</svg>