<?xml version="1.0" encoding="UTF-8"?>
<!-- Generator: Adobe Illustrator 25.0.0, SVG Export Plug-In . SVG Version: 6.00 Build 0)  -->
<svg version="1.0" xmlns="http://www.w3.org/2000/svg" xmlns:xlink="http://www.w3.org/1999/xlink" x="0px" y="0px" viewBox="0 0 60 85" enable-background="new 0 0 60 85" xml:space="preserve">
<g id="фоны">
	<rect id="Google" fill="#FFFFFF" width="60" height="85"/>
</g>
<g id="иконки">
	<g id="google_podcast" transform="matrix(0.96197551,0,0,0.96197551,-94.775127,4058.5894)">
		<g id="Group-3" transform="matrix(1.3159242,0,0,1.3159242,37.320241,3.9838645)">
			<path id="Combined-Shape-6-4" fill="#65696D" d="M59.1826363-3171.1208496c0-1.5002441,1.2573624-2.7158203,2.7579041-2.7158203     c0.8278847,0,1.4177551,0.3259277,1.862751,0.75l-0.5277824,0.5224609     c-0.3156281-0.3000488-0.7450943-0.5327148-1.3349686-0.5327148c-1.091774,0-1.9455376,0.8793945-1.9455376,1.9707031     c0,1.0915527,0.8537636,1.9709473,1.9455376,1.9709473c0.7088776,0,1.1124763-0.2844238,1.3711891-0.5432129     c0.2121429-0.2121582,0.3518562-0.517334,0.403595-0.9311523h-1.7747841v-0.739502h2.4991951     c0.0258636,0.1345215,0.0413895,0.2895508,0.0413895,0.465332c0,0.5588379-0.1500549,1.2468262-0.641613,1.7329102     c-0.4812164,0.496582-1.0917854,0.760498-1.8989716,0.760498     C60.4399872-3168.4104004,59.1826363-3169.6259766,59.1826363-3171.1208496z M66.4732361-3171.8710938     c0.9676056,0,1.7540894,0.7346191,1.7540894,1.7485352c0,1.0085449-0.786499,1.748291-1.7540894,1.748291     c-0.967598,0-1.7540894-0.7397461-1.7540894-1.748291C64.7191467-3171.1364746,65.5056381-3171.8710938,66.4732361-3171.8710938z      M66.4732361-3169.0673828c0.5277863,0,0.9882889-0.4345703,0.9882889-1.0603027     c0-0.6311035-0.4605026-1.0605469-0.9882889-1.0605469c-0.5329514,0-0.9882965,0.4294434-0.9882965,1.0605469     C65.4849396-3169.5019531,65.9454575-3169.0673828,66.4732361-3169.0673828z M70.3022308-3171.8710938     c0.967598,0,1.7540894,0.7346191,1.7540894,1.7485352c0,1.0085449-0.7864914,1.748291-1.7540894,1.748291     c-0.9675903,0-1.754097-0.7397461-1.754097-1.748291C68.5481339-3171.1364746,69.3346329-3171.8710938,70.3022308-3171.8710938z      M70.3022308-3169.0673828c0.5277786,0,0.9882965-0.4345703,0.9882965-1.0603027     c0-0.6311035-0.4553375-1.0605469-0.9882965-1.0605469c-0.5329514,0-0.9882889,0.4294434-0.9882889,1.0605469     C69.313942-3169.5019531,69.7744522-3169.0673828,70.3022308-3169.0673828z M75.0005035-3171.8139648h0.7347488v3.1396484     c0,1.2932129-0.7606277,1.8208008-1.6609573,1.8208008c-0.848587,0-1.3608475-0.5688477-1.5522919-1.0344238l0.6674881-0.2792969     c0.1190033,0.2844238,0.4087753,0.6206055,0.879631,0.6206055c0.5743484,0,0.9313812-0.3569336,0.9313812-1.0241699v-0.253418     h-0.0258789c-0.1707535,0.2121582-0.5019073,0.3981934-0.9210358,0.3981934     c-0.8744507,0-1.6764755-0.7653809-1.6764755-1.7431641c0-0.9880371,0.8020248-1.753418,1.6764755-1.753418     c0.4191208,0,0.7502823,0.1860352,0.9210358,0.3930664h0.0258789V-3171.8139648z M74.1208725-3169.1140137     c0.5225983,0,0.9365463-0.4396973,0.931366-1.0551758c0-0.6154785-0.4087677-1.0654297-0.931366-1.0654297     c-0.5277786,0-0.9727707,0.4499512-0.9727707,1.0654297     C73.1481018-3169.5588379,73.5930939-3169.1140137,74.1208725-3169.1140137z M76.2578659-3168.4931641v-5.1364746h0.7657928     v5.1364746H76.2578659z M79.1296005-3169.0673828c0.3932495,0,0.6623077-0.1914062,0.8641052-0.480957l0.5950546,0.3981934     c-0.1966248,0.2844238-0.657135,0.7758789-1.4591599,0.7758789c-0.9934692,0-1.7333908-0.770752-1.7333908-1.748291     c0-1.0397949,0.7502747-1.7485352,1.6506042-1.7485352c0.9055023,0,1.3504868,0.7192383,1.4953766,1.1123047l0.0776062,0.1965332     l-2.3387909,0.9672852c0.1811066,0.3464355,0.4553452,0.5275879,0.848587,0.5275879H79.1296005z M79.0726852-3171.1984863     c-0.3932495,0-0.936554,0.3464355-0.9158554,1.019043l1.562645-0.6467285     C79.6366882-3171.048584,79.3779678-3171.1984863,79.0726852-3171.1984863L79.0726852-3171.1984863z"/>
			<path id="Podcasts-1-6" fill="#6A6C6F" d="M59.5024605-3162.9660645h-0.5328331v-3.9301758h1.4131508     c0.3513565,0,0.6554146,0.1108398,0.9121857,0.3320312c0.2567596,0.2214355,0.3851433,0.5004883,0.3851433,0.8371582     s-0.1283836,0.6157227-0.3851433,0.8371582c-0.2567596,0.2211914-0.5608177,0.3320312-0.9121857,0.3320312h-0.8803253     L59.5024605-3162.9660645z M59.5024605-3165.0410156h0.8919067c0.2239456,0,0.4034805-0.0712891,0.5386276-0.2141113     c0.1351357-0.1425781,0.2027054-0.3000488,0.2027054-0.4719238c0-0.1721191-0.0675697-0.3293457-0.2027054-0.472168     c-0.1351395-0.1425781-0.314682-0.2138672-0.5386276-0.2138672h-0.8919067V-3165.0410156z M62.1219025-3165.3317871     c0.2741394-0.2744141,0.6235619-0.4116211,1.0482788-0.4116211c0.4247246,0,0.774147,0.1362305,1.0482788,0.4086914     c0.2741394,0.2727051,0.4112091,0.6140137,0.4112091,1.0239258c0,0.409668-0.1370697,0.7509766-0.4112091,1.0236816     c-0.2741318,0.2724609-0.6235619,0.4089355-1.0482788,0.4089355s-0.774147-0.1364746-1.0482788-0.4089355     c-0.2741432-0.2727051-0.4112053-0.6140137-0.4112053-1.0236816     C61.7106972-3164.7207031,61.8477707-3165.0610352,62.1219025-3165.3317871z M62.5157318-3163.6027832     c0.1853333,0.1755371,0.4034805,0.2634277,0.6544495,0.2634277s0.4681549-0.088623,0.6515579-0.2661133     s0.2751007-0.4125977,0.2751007-0.7053223c0-0.2929688-0.0916977-0.5280762-0.2751007-0.7055664     c-0.183403-0.1772461-0.400589-0.2661133-0.6515579-0.2661133s-0.4681587,0.0888672-0.6515579,0.2661133     c-0.183403,0.1774902-0.2751007,0.4125977-0.2751007,0.7055664     C62.2435226-3164.0180664,62.3342552-3163.7822266,62.5157318-3163.6027832z M66.2355804-3162.8781738     c-0.366806,0-0.6834106-0.1374512-0.9498291-0.4118652c-0.2664108-0.2744141-0.3996201-0.6147461-0.3996201-1.020752     c0-0.40625,0.1332092-0.746582,0.3996201-1.0209961c0.2664185-0.2744141,0.5830231-0.4116211,0.9498291-0.4116211     c0.216217,0,0.4102402,0.0437012,0.5820618,0.1315918c0.171814,0.0878906,0.3002014,0.1975098,0.3851395,0.3293457h0.0231628     l-0.0231628-0.373291v-1.2404785h0.5328293v3.9301758h-0.5096588v-0.373291h-0.0231705     c-0.0849533,0.1318359-0.2133255,0.2414551-0.3851395,0.3293457     C66.6458206-3162.9221191,66.4517975-3162.8781738,66.2355804-3162.8781738L66.2355804-3162.8781738z M66.3224564-3163.3393555     c0.2509689,0,0.4642868-0.0878906,0.6399765-0.2634277c0.1756744-0.1757812,0.2635193-0.4116211,0.2635193-0.7080078     c0-0.2966309-0.0878448-0.5324707-0.2635193-0.708252c-0.1756821-0.1755371-0.3890076-0.2634277-0.6399765-0.2634277     c-0.2471161,0-0.459465,0.0888672-0.6370773,0.2661133c-0.1776123,0.1774902-0.2664185,0.4125977-0.2664185,0.7055664     c0,0.2927246,0.0888062,0.527832,0.2664185,0.7053223C65.8629913-3163.4282227,66.0753403-3163.3393555,66.3224564-3163.3393555     L66.3224564-3163.3393555z M69.5847702-3162.8781738c-0.4247131,0-0.774147-0.1364746-1.0482788-0.4089355     c-0.2741394-0.2727051-0.4112015-0.6140137-0.4112015-1.0236816c0-0.4099121,0.1370697-0.7512207,0.4112015-1.0239258     c0.2741394-0.2724609,0.6235657-0.4086914,1.0482788-0.4086914c0.3166122,0,0.5791702,0.072998,0.7876663,0.2194824     c0.2085037,0.1462402,0.3610077,0.3310547,0.4575272,0.5544434l-0.4864883,0.1918945     c-0.1467209-0.3364258-0.4112015-0.5048828-0.793457-0.5048828c-0.2355194,0-0.4430618,0.0915527-0.6225967,0.2744141     c-0.1795425,0.1831055-0.26931,0.4152832-0.26931,0.6972656c0,0.2817383,0.0897675,0.513916,0.26931,0.6970215     c0.1795349,0.1828613,0.3870773,0.2744141,0.6225967,0.2744141c0.3976898,0,0.6718292-0.1682129,0.8224182-0.5048828     l0.4749069,0.1918945c-0.0965271,0.2197266-0.2519302,0.4035645-0.466217,0.5517578     C70.1668243-3162.9523926,69.9013824-3162.8781738,69.5847702-3162.8781738z M72.1115494-3162.8781738     c-0.3011703,0-0.5531006-0.0825195-0.755806-0.2470703c-0.2027054-0.1647949-0.3040619-0.3823242-0.3040619-0.6533203     c0-0.2927246,0.1196899-0.5222168,0.3590851-0.6887207c0.2393875-0.1665039,0.5347672-0.2497559,0.8861237-0.2497559     c0.3127518,0,0.5695114,0.0549316,0.7702789,0.1645508v-0.0766602c0-0.1977539-0.0714188-0.355957-0.2142944-0.4748535     c-0.1428604-0.1188965-0.3185349-0.1784668-0.5270309-0.1784668c-0.1544418,0-0.2944107,0.034668-0.4198914,0.104248     c-0.1254959,0.0695801-0.2113953,0.1647949-0.2577286,0.2854004l-0.486496-0.1975098     c0.0656433-0.1611328,0.1949844-0.3100586,0.3880386-0.4472656c0.1930618-0.137207,0.4478912-0.2058105,0.7645035-0.2058105     c0.3629456,0,0.6641083,0.1005859,0.9034882,0.3017578c0.2393875,0.2011719,0.3590851,0.4848633,0.3590851,0.8508301v1.6247559     h-0.5096588v-0.373291h-0.0231476c-0.2123489,0.307373-0.5231781,0.4611816-0.9324417,0.4611816H72.1115494z      M72.1984177-3163.3393555c0.2200775,0,0.4198914-0.0778809,0.5994339-0.2333984     c0.1795502-0.1555176,0.26931-0.3393555,0.26931-0.5515137c-0.1505814-0.1171875-0.3764496-0.1757812-0.6776199-0.1757812     c-0.2586899,0-0.4536743,0.0532227-0.5849533,0.1591797c-0.131279,0.1062012-0.1969147,0.2307129-0.1969147,0.373291     c0,0.1318359,0.059845,0.236084,0.1795425,0.3129883C71.9069061-3163.3776855,72.0439758-3163.3393555,72.1984177-3163.3393555     L72.1984177-3163.3393555z M75.1364059-3162.8781738c-0.3166122,0-0.5782013-0.0732422-0.7847672-0.2197266     c-0.2065659-0.1462402-0.3581085-0.3293457-0.4546432-0.5488281l0.4749146-0.1865234     c0.150589,0.3364258,0.4073486,0.5048828,0.7702866,0.5048828c0.1660309,0,0.302124-0.034668,0.4083099-0.104248     s0.1592712-0.1611328,0.1592712-0.2744141c0-0.1757812-0.1293411-0.2946777-0.3880386-0.3569336l-0.5733643-0.1315918     c-0.1814728-0.0439453-0.3532791-0.1271973-0.5154572-0.2497559c-0.1621628-0.1225586-0.243248-0.2883301-0.243248-0.4968262     c0-0.237793,0.1110077-0.4309082,0.3330231-0.5791016c0.2220078-0.1481934,0.485527-0.222168,0.7905502-0.222168     c0.2509689,0,0.4749146,0.0539551,0.6718292,0.1618652s0.3378448,0.2624512,0.4227829,0.4638672l-0.4633255,0.1809082     c-0.104248-0.237793-0.3204727-0.3566895-0.6486588-0.3566895c-0.1583023,0-0.2915115,0.03125-0.3996201,0.0932617     c-0.1081085,0.0622559-0.1621628,0.1464844-0.1621628,0.2526855c0,0.1535645,0.1254807,0.2578125,0.3764572,0.3127441     l0.5617905,0.1262207c0.2664185,0.0585938,0.4633331,0.1591797,0.590744,0.302002     c0.1274109,0.1425781,0.191124,0.3037109,0.191124,0.4829102c0,0.2414551-0.104248,0.4428711-0.3127441,0.6037598     c-0.2084961,0.1611328-0.4768372,0.2416992-0.8050385,0.2416992H75.1364059z M77.8485031-3162.9221191     c-0.2973022,0-0.5241394-0.0751953-0.6805191-0.2250977c-0.1563721-0.1501465-0.2345505-0.3623047-0.2345505-0.6367188     v-1.4106445h-0.4980774v-0.4611816h0.4980774v-0.8232422h0.5328217v0.8232422h0.6949997v0.4611816h-0.6949997v1.3720703     c0,0.2929688,0.1274109,0.439209,0.3822479,0.439209c0.0965347,0,0.1776047-0.0146484,0.243248-0.0439453l0.1853409,0.4335938     C78.1612473-3162.9460449,78.0183945-3162.9221191,77.8485031-3162.9221191L77.8485031-3162.9221191z M79.7150421-3162.8781738     c-0.3166046,0-0.5781937-0.0732422-0.7847748-0.2197266c-0.2065582-0.1462402-0.3581085-0.3293457-0.4546432-0.5488281     l0.4749222-0.1865234c0.150589,0.3364258,0.407341,0.5048828,0.7702866,0.5048828     c0.1660385,0,0.302124-0.034668,0.4083099-0.104248s0.1592636-0.1611328,0.1592636-0.2744141     c0-0.1757812-0.1293411-0.2946777-0.388031-0.3569336l-0.5733719-0.1315918     c-0.1814728-0.0439453-0.3532944-0.1271973-0.5154572-0.2497559s-0.243248-0.2883301-0.243248-0.4968262     c0-0.237793,0.1110001-0.4309082,0.3330231-0.5791016c0.2220078-0.1481934,0.485527-0.222168,0.7905502-0.222168     c0.2509689,0,0.4749146,0.0539551,0.6718292,0.1618652c0.196907,0.1079102,0.3378448,0.2624512,0.4227829,0.4638672     l-0.4633255,0.1809082c-0.104248-0.237793-0.3204727-0.3566895-0.6486588-0.3566895     c-0.1583023,0-0.2915115,0.03125-0.3996201,0.0932617c-0.1081085,0.0622559-0.1621628,0.1464844-0.1621628,0.2526855     c0,0.1535645,0.1254807,0.2578125,0.3764496,0.3127441l0.5617828,0.1262207     c0.2664185,0.0585938,0.4633255,0.1591797,0.5907516,0.302002c0.1274109,0.1425781,0.1911163,0.3037109,0.1911163,0.4829102     c0,0.2414551-0.104248,0.4428711-0.3127518,0.6037598c-0.2084961,0.1611328-0.4768372,0.2416992-0.8050308,0.2416992H79.7150421z     "/>
		</g>
		<g id="Podcast_icon_final-3-3" transform="matrix(34.566718,0,0,34.566718,6248.4965,-3091.1112)">
			<g id="_logo_Podcasts_192px-8-8">
				<polygon id="Shape-8-0" fill="#FAB908" points="-177.0666199,-31.5466652 -177.0666199,-31.4642658 -176.9986267,-31.4642658       -176.9986267,-31.5466652 -176.9986267,-31.5796013 -176.9986267,-31.6620007 -177.0666199,-31.6620007       -177.0666199,-31.5796013     "/>
				<ellipse id="Oval-0-6" fill="#0066D9" cx="-177.2705994" cy="-31.5816708" rx="0.033996" ry="0.0339855"/>
				<ellipse id="ellipse9-9-0" fill="#0066D9" cx="-177.2705994" cy="-31.5445957" rx="0.033996" ry="0.0339855"/>
				<rect id="Rectangle-path-8-8" x="-177.3045959" y="-31.5816708" fill="#0066D9" width="0.067992" height="0.0370751"/>
				<ellipse id="ellipse12-0-7" fill="#4285F4" cx="-176.7946472" cy="-31.5445957" rx="0.033996" ry="0.0339855"/>
				<ellipse id="ellipse14-0-7" fill="#4285F4" cx="-176.7946472" cy="-31.5816708" rx="0.033996" ry="0.0339855"/>
				<rect id="rect16-5-6" x="-176.8286438" y="-31.5816708" fill="#4285F4" width="0.067992" height="0.0370751"/>
				<ellipse id="ellipse18-2-4" fill="#EA4335" cx="-177.1531525" cy="-31.4704456" rx="0.033996" ry="0.0339855"/>
				<ellipse id="ellipse20-8-2" fill="#EA4335" cx="-177.1531525" cy="-31.4333706" rx="0.033996" ry="0.0339855"/>
				<rect id="rect22-6-8" x="-177.187149" y="-31.4704456" fill="#EA4335" width="0.067992" height="0.0370751"/>
				<ellipse id="ellipse24-4-8" fill="#EA4335" cx="-177.1531525" cy="-31.6928959" rx="0.033996" ry="0.0339855"/>
				<ellipse id="ellipse26-3-3" fill="#EA4335" cx="-177.1531525" cy="-31.572403" rx="0.033996" ry="0.0339855"/>
				<rect id="rect28-2-7" x="-177.187149" y="-31.6928959" fill="#EA4335" width="0.067992" height="0.1212663"/>
				<ellipse id="ellipse30-7-4" fill="#34A853" cx="-176.9120941" cy="-31.6558208" rx="0.033996" ry="0.0339855"/>
				<ellipse id="ellipse32-9-8" fill="#34A853" cx="-176.9120941" cy="-31.6928959" rx="0.033996" ry="0.0339855"/>
				<rect id="rect34-0-0" x="-176.9460907" y="-31.6928959" fill="#34A853" width="0.067992" height="0.0370751"/>
				<ellipse id="ellipse36-4-8" fill="#FAB908" cx="-177.0326233" cy="-31.7639561" rx="0.033996" ry="0.0339855"/>
				<ellipse id="ellipse38-1-4" fill="#FAB908" cx="-177.0326233" cy="-31.8010311" rx="0.033996" ry="0.0339855"/>
				<rect id="rect40-9-5" x="-177.0666199" y="-31.8010311" fill="#FAB908" width="0.067992" height="0.0370751"/>
				<ellipse id="ellipse42-1-4" fill="#FAB908" cx="-177.0326233" cy="-31.3252354" rx="0.033996" ry="0.0339855"/>
				<ellipse id="ellipse44-5-0" fill="#FAB908" cx="-177.0326233" cy="-31.3623104" rx="0.033996" ry="0.0339855"/>
				<rect id="rect46-3-8" x="-177.0666199" y="-31.3623104" fill="#FAB908" width="0.067992" height="0.0370751"/>
				<ellipse id="ellipse48-2-1" fill="#34A853" cx="-176.9120941" cy="-31.4333706" rx="0.033996" ry="0.0339855"/>
				<ellipse id="ellipse50-8-8" fill="#34A853" cx="-176.9120941" cy="-31.5538654" rx="0.033996" ry="0.0339855"/>
				<rect id="rect52-3-8" x="-176.9460907" y="-31.5538654" fill="#34A853" width="0.067992" height="0.1204939"/>
				<ellipse id="ellipse54-7-8" fill="#FAB908" cx="-177.0326233" cy="-31.6620007" rx="0.033996" ry="0.0339855"/>
				<ellipse id="ellipse56-5-8" fill="#FAB908" cx="-177.0326233" cy="-31.4642658" rx="0.033996" ry="0.0339855"/>
			</g>
		</g>
	</g>
</g>
</svg>