<?xml version="1.0" encoding="UTF-8"?>
<!-- Generator: Adobe Illustrator 25.0.0, SVG Export Plug-In . SVG Version: 6.00 Build 0)  -->
<svg version="1.0" xmlns="http://www.w3.org/2000/svg" xmlns:xlink="http://www.w3.org/1999/xlink" x="0px" y="0px" viewBox="0 0 60 85" enable-background="new 0 0 60 85" xml:space="preserve">
<g id="фоны">
	<linearGradient id="Apple_1_" gradientUnits="userSpaceOnUse" x1="4.1266537" y1="23.3201141" x2="52.3272133" y2="59.0511398">
		<stop offset="0" style="stop-color:#FFFFFF"/>
		<stop offset="1" style="stop-color:#D1D1D1"/>
	</linearGradient>
	<rect id="Apple" fill-rule="evenodd" clip-rule="evenodd" fill="url(#Apple_1_)" width="60" height="85"/>
</g>
<g id="лого">
</g>
<g id="иконки">
	<g id="apple_podcast_1_">
		<g>
			<path fill="#3C4043" d="M12.4269886,51.3120079h-1.541748l-0.3699865,1.0931892H9.862011l1.4602776-4.0446548h0.6782732     l1.4602871,4.0446548h-0.6642723L12.4269886,51.3120079z M11.0448523,50.8076935h1.222126l-0.602582-1.7744064h-0.0168591     L11.0448523,50.8076935L11.0448523,50.8076935z M16.6879025,50.9310532c0,0.9164848-0.4907932,1.5050545-1.2306128,1.5050545     c-0.4206362,0-0.7537689-0.1878777-0.9277382-0.5161781h-0.0140104v1.4603806h-0.6055841v-3.9244423h0.585783v0.4908028     h0.0109272c0.168087-0.3167725,0.5270443-0.5211143,0.9391546-0.5211143     C16.1946583,49.4256592,16.6879025,50.0172234,16.6879025,50.9310532L16.6879025,50.9310532z M16.065918,50.9310532     c0-0.5971489-0.3082972-0.989418-0.7791557-0.989418c-0.4624243,0-0.7736616,0.4008484-0.7736616,0.989418     c0,0.5941658,0.3112373,0.9924698,0.7736616,0.9924698C15.7576208,51.9231262,16.065918,51.5331955,16.065918,50.9310532z      M19.9565487,50.9310532c0,0.9164848-0.4906902,1.5050545-1.2305603,1.5050545     c-0.4206371,0-0.7538204-0.1878777-0.9277382-0.5161781h-0.0139198v1.4603806h-0.6055222v-3.9244423h0.5857315v0.4908028     h0.0109177c0.168087-0.3167725,0.5270557-0.5211143,0.9392166-0.5211143     C19.4629078,49.4256592,19.9565487,50.0172234,19.9565487,50.9310532L19.9565487,50.9310532z M19.334116,50.9310532     c0-0.5971489-0.3082962-0.989418-0.7791557-0.989418c-0.4624252,0-0.7736626,0.4008484-0.7736626,0.989418     c0,0.5941658,0.3112373,0.9924698,0.7736626,0.9924698C19.0257168,51.9231262,19.334116,51.5331955,19.334116,50.9310532z      M20.4691448,48.3605423h0.6055737v4.0446548h-0.6055737V48.3605423z M24.3501472,51.5391808     c-0.0811749,0.5354271-0.6026859,0.9025154-1.2698975,0.9025154c-0.8576851,0-1.390276-0.5748177-1.390276-1.4966736     c0-0.9248581,0.535532-1.5250015,1.3648472-1.5250015c0.8158989,0,1.3285351,0.5604591,1.3285351,1.4547958v0.2074242h-2.0828152     v0.0363007c0,0.504509,0.3167839,0.8353004,0.7931671,0.8353004c0.3361759,0,0.5996513-0.1596603,0.6811314-0.414753h0.5753078     V51.5391808z M22.3040352,50.6590614h1.474287c-0.0139084-0.4514084-0.3027611-0.7482452-0.7229996-0.7482452     C22.6372681,49.9108162,22.3344555,50.2130852,22.3040352,50.6590614L22.3040352,50.6590614z M27.834856,48.3605423     c0.7847309,0,1.3315258,0.5409012,1.3315258,1.3285828c0,0.7904816-0.5578632,1.3339767-1.3508778,1.3339767h-0.8691006     v1.3816986h-0.6279697v-4.0443611h1.5164223V48.3605423z M26.9461994,50.4964561h0.7206211     c0.5463848,0,0.8575306-0.2942848,0.8575306-0.80439c0-0.5101929-0.3112373-0.8016396-0.854641-0.8016396h-0.7229099v1.6060295     H26.9461994L26.9461994,50.4964561z M29.4500999,50.9310532c0-0.9278412,0.5464973-1.5110321,1.3986473-1.5110321     c0.8547535,0,1.3985481,0.5827942,1.3985481,1.5110321c0,0.9307404-0.5409031,1.5110397-1.3985481,1.5110397     C29.9911137,52.4420929,29.4500999,51.8612938,29.4500999,50.9310532z M31.6308956,50.9310532     c0-0.6363945-0.2913952-1.0117607-0.7820454-1.0117607c-0.4907532,0-0.7820473,0.3783607-0.7820473,1.0117607     c0,0.6388435,0.2913971,1.0118217,0.7820473,1.0118217S31.6308956,51.5698967,31.6308956,50.9310532z M32.666748,50.9310532     c0-0.9108887,0.5017166-1.5049973,1.2331009-1.5049973c0.42313,0,0.7567101,0.1958542,0.9248505,0.5211143h0.0109673v-1.5865288     h0.6081276v4.0445557h-0.5887756v-0.5015144h-0.0108757c-0.1740189,0.336174-0.5101967,0.5325279-0.9392052,0.5325279     C33.1684647,52.4361076,32.666748,51.8419533,32.666748,50.9310532L32.666748,50.9310532z M33.2858429,50.9310532     c0,0.6055336,0.3083458,0.9924698,0.7792473,0.9924698c0.4653244,0,0.776165-0.3924217,0.776165-0.9924698     c0-0.5941048-0.3112411-0.989418-0.776165-0.989418C33.5940857,49.9411354,33.2858429,50.3309097,33.2858429,50.9310532z      M38.0712585,50.4711189c-0.053154-0.3111343-0.2972794-0.5438423-0.6950836-0.5438423     c-0.4654236,0-0.7736702,0.3896751-0.7736702,1.0033798c0,0.6278763,0.3112373,1.006237,0.7791557,1.006237     c0.3758583,0,0.6224861-0.1878891,0.6895981-0.5295486h0.5831909c-0.0675125,0.6194916-0.5633507,1.0342484-1.2782745,1.0342484     c-0.8407822,0-1.3901711-0.5747147-1.3901711-1.5109367c0-0.9164772,0.5493889-1.5110321,1.3846779-1.5110321     c0.7568245,0,1.227623,0.4763832,1.2783852,1.0510979h-0.5777054v0.0003967H38.0712585z M39.0374947,51.5615234     c0-0.5155869,0.3953133-0.8183479,1.1297913-0.8631783l0.7845383-0.0447197v-0.2242317     c0-0.3336296-0.2211914-0.5127373-0.6055336-0.5127373c-0.3168259,0-0.5493889,0.1625519-0.5972519,0.4147034h-0.5662384     c0.0168495-0.5269508,0.5100937-0.9109383,1.1803474-0.9109383c0.7230034,0,1.1909218,0.3784523,1.1909218,0.9641418v2.0211334     h-0.5799026V51.920929h-0.0139694c-0.1655464,0.3167343-0.5329285,0.5269547-0.9307327,0.5269547     C39.4437752,52.4474869,39.0374947,52.0854759,39.0374947,51.5615234L39.0374947,51.5615234z M40.9517212,51.3009377v-0.2271729     l-0.7064476,0.0447769c-0.3923187,0.0223351-0.5996513,0.1738167-0.5996513,0.4289207     c0,0.2466164,0.2158089,0.4206352,0.5523796,0.4206352C40.6266174,51.967804,40.9517212,51.6822891,40.9517212,51.3009377     L40.9517212,51.3009377z M43.3246841,49.4225655c0.6528053,0,1.1207123,0.3613968,1.1350822,0.8829193H43.890934     c-0.0257339-0.2604866-0.2466278-0.4205971-0.5832024-0.4205971c-0.3276978,0-0.5464859,0.1511345-0.5464859,0.3813019     c0,0.1765633,0.1457939,0.2943878,0.4509544,0.3699837l0.4962273,0.1148872     c0.5941658,0.1426468,0.8184509,0.3613968,0.8184509,0.7931137c0,0.5325279-0.504612,0.8968277-1.2251282,0.8968277     c-0.6950836,0-1.1629906-0.3559265-1.2076683-0.8943367h0.5995407c0.0422859,0.2829208,0.2695618,0.4345055,0.6364555,0.4345055     c0.3614998,0,0.5890694-0.1486969,0.5890694-0.3838425c0-0.1824989-0.1122894-0.2804298-0.420536-0.3591118l-0.5269508-0.1287498     c-0.5325279-0.1292419-0.801693-0.4007988-0.801693-0.809967C42.1696701,49.7790833,42.6375771,49.4225655,43.3246841,49.4225655     L43.3246841,49.4225655z M45.8659935,48.7586899v0.6975861h0.5604553v0.4793739h-0.5604553v1.6258736     c0,0.2524986,0.1123886,0.369976,0.359005,0.369976c0.0617332,0,0.1596642-0.0085754,0.1988564-0.014061v0.4762917     c-0.0671234,0.0169525-0.2018471,0.0278282-0.336174,0.0278282c-0.5970573,0-0.8297157-0.2240906-0.8297157-0.7960167v-1.6899948     h-0.4291229v-0.4793739h0.4291229v-0.6975822h0.6080284V48.7586899z M48.0505753,49.4225655     c0.6529999,0,1.1208038,0.3613968,1.1350708,0.8829193h-0.5687294c-0.0257339-0.2604866-0.2466278-0.4205971-0.5830994-0.4205971     c-0.3278008,0-0.5465889,0.1511345-0.5465889,0.3813019c0,0.1765633,0.1456909,0.2943878,0.4509583,0.3699837     l0.4962234,0.1148872c0.5940666,0.1426468,0.8184509,0.3613968,0.8184509,0.7931137     c0,0.5325279-0.5047112,0.8968277-1.2251282,0.8968277c-0.6950836,0-1.1629906-0.3559265-1.2077675-0.8943367h0.5996399     c0.0422859,0.2829208,0.2695618,0.4345055,0.6364555,0.4345055c0.3614998,0,0.5890694-0.1486969,0.5890694-0.3838425     c0-0.1824989-0.1122894-0.2804298-0.4205322-0.3591118l-0.5269547-0.1287498     c-0.5326309-0.1292419-0.80159-0.4007988-0.80159-0.809967C46.8955536,49.7790833,47.3634605,49.4225655,48.0505753,49.4225655z"/>
		</g>
		
			<linearGradient id="SVGID_1_" gradientUnits="userSpaceOnUse" x1="-241.006546" y1="-235.1636505" x2="-240.8682251" y2="-235.1636505" gradientTransform="matrix(0 92.6031036 -92.6031036 0 -21747.578125 22346.6699219)">
			<stop offset="0" style="stop-color:#F452FF"/>
			<stop offset="1" style="stop-color:#832BC1"/>
		</linearGradient>
		<path fill="url(#SVGID_1_)" d="M35.4560165,39.8176689c-0.3146744,0.7455101-0.9458313,1.3117828-1.721138,1.5438461    c-0.4112663,0.1218529-0.9174767,0.1631813-1.5478439,0.1631813h-5.7642097c-0.6303711,0-1.1366501-0.0413284-1.5478458-0.1631813    c-0.7760391-0.2309875-1.4076271-0.7975197-1.7212067-1.5438461c-0.2510586-0.637188-0.2539635-1.3602791-0.2539635-1.8156395    v-5.764225c0-0.4553623,0.0023651-1.178381,0.2534237-1.8155022c0.3146725-0.745718,0.9458313-1.3117123,1.721138-1.5439854    c0.4113884-0.1218376,0.9175434-0.1629047,1.5478439-0.1629047h5.7642784c0.6303024,0,1.1365814,0.0410671,1.5478477,0.1629047    c0.7759666,0.2308636,1.4075546,0.7975903,1.7211342,1.5439854c0.2506599,0.6371212,0.2534256,1.3601398,0.2534256,1.8155022    v5.7640839C35.7094383,38.4573898,35.7065353,39.180481,35.4560165,39.8176689z"/>
		<path fill="none" d="M35.6516457,37.5276756c-0.3146744,0.7455101-0.9458313,1.311779-1.721138,1.5438461    c-0.4112663,0.1218491-0.9174767,0.1631813-1.5478439,0.1631813h-5.7642117c-0.6303692,0-1.1366501-0.0413322-1.5478439-0.1631813    c-0.7760391-0.2309875-1.4076271-0.7975197-1.7212086-1.5438461c-0.2510567-0.6371918-0.2539616-1.3602791-0.2539616-1.8156433    v-5.7642212c0-0.4553623,0.0023651-1.1783829,0.2534237-1.8155022c0.3146725-0.745718,0.9458313-1.3117142,1.7211361-1.5439873    c0.4113903-0.1218357,0.9175453-0.1629028,1.5478458-0.1629028h5.7642784c0.6303024,0,1.1365814,0.0410671,1.5478439,0.1629028    c0.7759705,0.2308636,1.4075584,0.7975903,1.721138,1.5439873c0.2506599,0.6371193,0.2534256,1.3601398,0.2534256,1.8155022    v5.7640839C35.9050674,36.1673965,35.9021645,36.8904839,35.6516457,37.5276756z"/>
		<path fill="#FFFFFF" d="M30.2334843,36.0779152c-0.1922855-0.2026176-0.5296574-0.3331146-0.9282799-0.3331146    c-0.3986359,0-0.7362003,0.1299553-0.9284306,0.3331146c-0.0984726,0.0988884-0.1587811,0.2296448-0.1698608,0.3687859    c-0.0326862,0.2991943-0.0143852,0.557209,0.0205956,0.9690704c0.0331707,0.3925476,0.0966606,0.9163933,0.1795311,1.4495621    c0.0589676,0.3793144,0.1069107,0.5842285,0.1503448,0.7310715c0.0704479,0.2374763,0.3346615,0.4456253,0.7476826,0.4456253    c0.4128685,0,0.6766949-0.2076111,0.7476139-0.4456253c0.0434189-0.1465683,0.0915833-0.3512192,0.1503429-0.7310715    c0.0830097-0.5331688,0.1464996-1.0564728,0.1797256-1.4495621c0.0348434-0.4118614,0.0530891-0.6697388,0.0204582-0.9690704    C30.3924046,36.30756,30.3322334,36.1768036,30.2334843,36.0779152z M28.2577744,34.2718735    c0,0.5791626,0.469471,1.0485077,1.0485096,1.0485077c0.5790253,0,1.0484962-0.4693451,1.0484962-1.0485077    c0-0.5790253-0.469471-1.0485115-1.0484962-1.0485115C28.7272453,33.223362,28.2577744,33.6928482,28.2577744,34.2718735z     M29.2931709,30.1345749c-2.4516678,0.006834-4.4606724,1.9957809-4.4909916,4.4474487    c-0.0245953,1.9859734,1.243021,3.6848946,3.013401,4.3072281c0.0316753,0.0110664,0.0662575-0.0055466,0.0773373-0.0372925    c0.0031681-0.0090446,0.0041218-0.0189095,0.0029049-0.0286331c-0.0235023-0.1542587-0.0452595-0.3087921-0.0653172-0.4614334    c-0.0067501-0.0537682-0.0413303-0.099968-0.0908375-0.1218491c-1.4452496-0.630703-2.3743439-2.0629807-2.3608303-3.6397896    c0.0206661-2.1329422,1.762413-3.8719921,3.8954945-3.8891449c2.1805668-0.0176907,3.9606724,1.7514725,3.9606724,3.9279861    c-0.0018272,1.5631027-0.928627,2.9767342-2.361372,3.6014862c-0.0495052,0.0218849-0.0840855,0.0680847-0.0909748,0.1218491    c-0.020195,0.1539841-0.0419407,0.307579-0.0651779,0.4610329c-0.0051327,0.0328255,0.0172901,0.0634918,0.050045,0.0684853    c0.0100002,0.0016174,0.0200577,0.000679,0.0293808-0.0028343c1.7532272-0.6165123,3.0138855-2.2890968,3.0138855-4.2505569    C33.8109283,32.1509514,31.7831421,30.1276855,29.2931709,30.1345749z M29.2119884,32.2013283    c1.3486595-0.0518723,2.4838295,0.9993515,2.5356998,2.3480072c0.0011482,0.030323,0.001812,0.0607109,0.001812,0.0910454    c0.0002766,0.6743317-0.2791367,1.3183937-0.7717228,1.779026c-0.0401134,0.0378189-0.0615273,0.0913086-0.0588837,0.1465683    c0.0091152,0.1674995,0.0058079,0.3305397-0.0051327,0.514122c-0.0018253,0.0328255,0.0232239,0.0609207,0.0560493,0.0626755    c0.0129738,0.0009422,0.0258102-0.0028343,0.0366135-0.009861c0.8250065-0.5618019,1.3188095-1.4949532,1.3190727-2.4929428    c-0.0016899-1.6680489-1.3551464-3.0189495-3.0230713-3.0173874c-0.0378876,0-0.0759125,0.0008011-0.1138687,0.0023651    c-1.5965347,0.0616646-2.8777885,1.3779716-2.8978462,2.9761238c-0.0127678,1.0118942,0.482584,1.9628716,1.3190708,2.5323792    c0.0268211,0.0183716,0.0634918,0.0116196,0.0818615-0.0152702c0.0074959-0.0109406,0.0110798-0.0241776,0.0102634-0.0374146    c-0.0122147-0.1712761-0.0139713-0.3432388-0.00527-0.5147896c0.0030422-0.0552597-0.0185642-0.1088753-0.0589542-0.1465683    c-0.5094604-0.4760284-0.7899685-1.1479225-0.7704372-1.8447418    C26.9059334,33.2911835,27.9291172,32.2555122,29.2119884,32.2013283z"/>
	</g>
</g>
</svg>