<?xml version="1.0" encoding="UTF-8"?>
<!-- Generator: Adobe Illustrator 25.0.0, SVG Export Plug-In . SVG Version: 6.00 Build 0)  -->
<svg version="1.2" baseProfile="tiny" xmlns="http://www.w3.org/2000/svg" xmlns:xlink="http://www.w3.org/1999/xlink" x="0px" y="0px" viewBox="0 0 60 85" overflow="visible" xml:space="preserve">
<g id="фоны">
	<rect id="coub" fill="#0332FF" width="60" height="85"/>
</g>
<g id="иконки">
	<g id="plus">
		<polygon fill="#FFFFFF" points="37.6183739,41.2254562 31.1288891,41.2254562 31.1288891,34.7359734 28.8635731,34.7359734     28.8635731,41.2254562 22.3740883,41.2254562 22.3740883,43.4907761 28.8635731,43.4907761 28.8635731,49.9802628     31.1288891,49.9802628 31.1288891,43.4907761 37.6183739,43.4907761   "/>
		<path fill="#FFFFFF" d="M30,26.125c-9.0291748,0-16.375,7.3458252-16.375,16.375S20.9708252,58.875,30,58.875    S46.375,51.5291748,46.375,42.5S39.0291748,26.125,30,26.125z M30.9825001,56.8729935c-0.6550007,0-1.3099995,0-1.9650002,0    C29.6725006,56.8729935,30.3274994,56.8729935,30.9825001,56.8729935c-0.6550007,0-1.3099995,0-1.9650002,0    c-7.1637344-0.4856834-12.905138-6.226757-13.3901653-13.3904953c0-0.6549988,0-1.3099976,0-1.9649963    c0.4850273-7.1637383,6.2264309-12.9051399,13.3901653-13.3901672c0.6550007,0,1.3099995,0,1.9650002,0    c-0.6550007,0-1.3099995,0-1.9650002,0c0.6550007,0,1.3099995,0,1.9650002,0    c7.1637363,0.4850273,12.90481,6.226429,13.3904934,13.3901672c0,0.6549988,0,1.3099976,0,1.9649963    c0-0.6549988,0-1.3099976,0-1.9649963c0,0.6549988,0,1.3099976,0,1.9649963    C43.88731,50.6462364,38.1462364,56.38731,30.9825001,56.8729935z"/>
	</g>
</g>
</svg>