<?xml version="1.0" encoding="UTF-8"?>
<!-- Generator: Adobe Illustrator 25.0.0, SVG Export Plug-In . SVG Version: 6.00 Build 0)  -->
<svg version="1.0" xmlns="http://www.w3.org/2000/svg" xmlns:xlink="http://www.w3.org/1999/xlink" x="0px" y="0px" viewBox="0 0 60 85" enable-background="new 0 0 60 85" xml:space="preserve">
<g id="фоны">
	<g id="spotify">
		<g id="svg_2">
			<rect fill="#00D557" width="60" height="85"/>
		</g>
	</g>
</g>
<g id="иконки">
	<g id="альбом_прослушивания">
		<path d="M17.1319046,29.7226505l-0.0047913,8.5758915c-0.2443409-0.0862389-0.5190258-0.1298904-0.8128738-0.1298904    c-0.3209972,0-0.6526403,0.0596199-0.9784279,0.1762047c-0.4524841,0.1538429-0.8219233,0.3997803-1.0976715,0.7314262    c-0.2821369,0.3390961-0.4248028,0.6946945-0.4248028,1.0566788c0,0.2262421,0.0580244,0.4338531,0.1703472,0.6116524    c0.2587137,0.4338493,0.7138586,0.6537056,1.3547878,0.6537056c0.2922516,0,0.6121836-0.0463142,0.9507465-0.1368103    c0.4594059-0.1187096,0.9821548-0.3555984,1.32551-0.7005501c0.3960571-0.3763618,0.7096024-0.7915802,0.7096024-1.2339516    v-6.1979561l5.3233337-1.0444374v5.169487c0-0.086235-0.485487-0.1298866-0.7798691-0.1298866    c-0.3204651,0-0.6356049,0.0596199-0.9619255,0.1762009c-0.4519501,0.154377-0.813406,0.3997841-1.0886211,0.7314262    c-0.2821369,0.3390961-0.4210758,0.6946945-0.4210758,1.0566826c0,0.2273064,0.060154,0.4349174,0.1719437,0.6116486    c0.2587128,0.4338531,0.7159882,0.6537056,1.3563843,0.6537056c0.2927837,0,0.6127167-0.0463104,0.9502163-0.1368065    c0.4604683-0.1187134,0.884737-0.3561325,1.2280922-0.7005539c0.3944588-0.3774223,0.6095219-0.7926445,0.6095219-1.2339478    v-9.6043587L17.1319046,29.7226505z"/>
		<path d="M24.9006691,45.2420807c0,0.3275871-0.2658691,0.5934563-0.5934563,0.5934563H14.2184563    c-0.3275881,0-0.5934563-0.2658691-0.5934563-0.5934563v-1.1869125c0-0.3275871,0.2658682-0.5934563,0.5934563-0.5934563    h10.0887566c0.3275871,0,0.5934563,0.2658691,0.5934563,0.5934563V45.2420807z"/>
		<path d="M24.9006691,50.5831871c0,0.3275909-0.2658691,0.5934563-0.5934563,0.5934563H14.2184563    c-0.3275881,0-0.5934563-0.2658653-0.5934563-0.5934563v-1.1869125c0-0.3275871,0.2658682-0.5934563,0.5934563-0.5934563    h10.0887566c0.3275871,0,0.5934563,0.2658691,0.5934563,0.5934563V50.5831871z"/>
		<path d="M24.9006691,55.5831871c0,0.3275909-0.2658691,0.5934563-0.5934563,0.5934563H14.2184563    c-0.3275881,0-0.5934563-0.2658653-0.5934563-0.5934563v-1.1869125c0-0.3275871,0.2658682-0.5934563,0.5934563-0.5934563    h10.0887566c0.3275871,0,0.5934563,0.2658691,0.5934563,0.5934563V55.5831871z"/>
		<path d="M39.4499207,33.0073433v5.2788315c1.3156128,0.4881248,2.2551308,1.7513657,2.2551308,3.2368431    c0,1.9085007-1.5469475,3.4554482-3.4554443,3.4554482c-1.9085007,0-3.4554482-1.5469475-3.4554482-3.4554482    c0-1.4309158,0.8696823-2.6588745,2.109642-3.1833763V32.832386c-2.0285301,0.1498566-3.9272079,0.9820747-5.3952255,2.3897171    c-0.513588,0.431385-0.9417,0.939518-1.2661476,1.5018463c-0.1600418,0.2393341-0.3379078,0.6565323-0.3568211,0.7016373    c-0.4277477,0.9842567-0.6601715,2.1660194-0.6914539,3.5125504l-1.7786446,3.9701271    c-0.178957,0.3571854-0.1600418,0.742012,0.0501938,1.0817375c0.2095089,0.3393593,0.5732403,0.5110435,0.9722538,0.5110435    h1.0260849l0.0883865,1.4221878c0,1.9434166,1.5320377,3.6107635,3.3506947,3.8941078v4.5044479h10.5482063v-7.4193916    c1.8186569-1.62006,2.9236717-4.5430031,2.9236717-7.3019066C46.3746376,37.3968506,43.3971291,33.8741112,39.4499207,33.0073433z    "/>
	</g>
</g>
</svg>