<?xml version="1.0" encoding="UTF-8"?>
<!-- Generator: Adobe Illustrator 22.0.0, SVG Export Plug-In . SVG Version: 6.00 Build 0)  -->
<svg version="1.0" id="Направляющие" xmlns="http://www.w3.org/2000/svg" xmlns:xlink="http://www.w3.org/1999/xlink" x="0px" y="0px" viewBox="0 0 60 85" enable-background="new 0 0 60 85" xml:space="preserve">
<g>
	<rect id="canvas_background_8_" fill="#1D1D1D" width="60" height="85"/>
</g>
<path id="widget" fill="#FFFFFF" d="M33.3,39.1c-0.9-0.9-2.1-1.4-3.4-1.4c-1.3,0-2.5,0.5-3.4,1.4c-0.9,0.9-1.4,2.1-1.4,3.4  c0,1.3,0.5,2.5,1.4,3.4c0.9,0.9,2.1,1.4,3.4,1.4c1.3,0,2.5-0.5,3.4-1.4c0.9-0.9,1.4-2.1,1.4-3.4C34.7,41.2,34.2,40,33.3,39.1z   M39.5,29.5c0.2,0,0.5,0.1,0.6,0.3l2.5,2.5c0.2,0.2,0.2,0.3,0.3,0.6c0,0.2-0.1,0.4-0.2,0.6l-2.6,3.2c0.5,0.9,0.9,1.9,1.2,2.9  l4.1,0.4c0.2,0,0.4,0.1,0.6,0.3c0.1,0.2,0.2,0.3,0.2,0.6v3.5c0,0.2-0.1,0.4-0.2,0.6c-0.2,0.2-0.4,0.3-0.6,0.3l-4.1,0.4  c-0.3,1-0.7,1.9-1.2,2.9l2.6,3.2c0.1,0.2,0.2,0.4,0.2,0.6c0,0.2-0.1,0.4-0.3,0.6l-2.5,2.5c-0.2,0.2-0.4,0.3-0.6,0.3  c-0.2,0-0.4-0.1-0.5-0.2l-3.2-2.6c-0.9,0.5-1.8,0.9-2.8,1.2L32.6,58c0,0.2-0.1,0.4-0.3,0.6c-0.2,0.1-0.4,0.2-0.6,0.2h-3.6  c-0.2,0-0.4-0.1-0.6-0.2c-0.2-0.2-0.3-0.4-0.3-0.6l-0.4-4.1c-1.1-0.3-2-0.7-2.8-1.2l-3.2,2.6c-0.1,0.1-0.3,0.2-0.6,0.2  c-0.2,0-0.4-0.1-0.6-0.3l-2.5-2.5c-0.2-0.2-0.2-0.3-0.3-0.6c0-0.2,0.1-0.4,0.2-0.6l2.7-3.2c-0.5-0.9-0.9-1.9-1.2-2.9l-4.1-0.4  c-0.2,0-0.4-0.1-0.6-0.3c-0.1-0.2-0.2-0.3-0.2-0.6v-3.5c0-0.2,0.1-0.4,0.2-0.6c0.2-0.2,0.4-0.3,0.6-0.3l4.1-0.4  c0.3-1,0.7-1.9,1.2-2.9l-2.7-3.2c-0.1-0.2-0.2-0.4-0.2-0.6c0-0.2,0.1-0.4,0.2-0.6l2.5-2.5c0.2-0.2,0.4-0.3,0.6-0.3  c0.2,0,0.4,0.1,0.5,0.2l3.2,2.6c0.8-0.5,1.8-0.9,2.8-1.2l0.4-4.1c0-0.2,0.1-0.4,0.3-0.6c0.2-0.1,0.3-0.2,0.6-0.2h3.6  c0.2,0,0.4,0.1,0.6,0.2c0.2,0.1,0.3,0.3,0.3,0.6l0.4,4.1c1,0.3,1.9,0.7,2.8,1.2l3.2-2.6C39.2,29.5,39.3,29.5,39.5,29.5z"/>
</svg>