<?xml version="1.0" encoding="UTF-8"?>
<!-- Generator: Adobe Illustrator 22.0.0, SVG Export Plug-In . SVG Version: 6.00 Build 0)  -->
<svg version="1.0" id="Направляющие" xmlns="http://www.w3.org/2000/svg" xmlns:xlink="http://www.w3.org/1999/xlink" x="0px" y="0px" viewBox="0 0 60 85" enable-background="new 0 0 60 85" xml:space="preserve">
<g id="youtube">
	<rect id="canvas_background_1_" fill="#FF0008" width="60" height="85"/>
</g>
<g id="t_dwn_c">
	<g>
		<path fill="#FFFFFF" d="M30,57.6l-4.3-4.3H13.6V28.1h32.8v25.2H34.3L30,57.6z M16.1,50.8h10.6L30,54l3.3-3.3h10.6V30.6H16.1V50.8z    "/>
	</g>
	<g id="thumb_up">
		<path fill="#FFFFFF" d="M37.5,40.9c-0.1-0.3-0.2-0.6-0.3-0.9c0,0,0,0,0,0c-0.1-0.3-0.2-0.6-0.3-1c-0.3-1.2-0.7-2.4-1.1-3.6    c-0.4-1.4-1.8-2.2-3.2-1.9c-1.3,0.2-2.6,0.4-3.9,0.6c-0.6,0.1-1.2,0.2-1.8,0.3c-0.4,0-0.6,0.4-0.6,0.7v7.3c0,0.1,0,0.1,0,0.2    s0.1,0.1,0.1,0.1l0,0c0.3,0.1,0.5,0.2,0.7,0.3l0.1,0c0.2,0.1,0.5,0.2,0.7,0.3c0.4,0.2,0.8,0.5,1.2,0.8c0.2,0.1,0.3,0.3,0.5,0.4    c0.3,0.3,0.7,0.6,0.9,0.9c0.3,0.3,0.5,0.5,0.7,0.8c0.1,0.1,0.1,0.2,0.2,0.3l0.1,0.1c0.2,0.3,0.4,0.6,0.6,0.8    c0.2,0.2,0.3,0.4,0.5,0.6c0.1,0.1,0.1,0.1,0.2,0.2c0,0,0,0,0,0c0.2,0.1,0.5,0.1,0.6-0.1c0.2-0.2,0.3-0.4,0.3-0.6    c0.4-1.6,0.1-3-1.1-4.2c-0.3-0.3-0.5-0.5-0.8-0.7h0.2c1.3,0,2.6,0,3.9,0c0.5,0,1-0.3,1.3-0.8C37.6,41.5,37.6,41.2,37.5,40.9z"/>
		<path fill="#FFFFFF" d="M25.4,42v-7c0-0.5-0.4-0.9-0.9-0.9h-2.1V43h2.1C25,43,25.4,42.5,25.4,42z"/>
	</g>
</g>
</svg>