<?xml version="1.0" encoding="UTF-8"?>
<!-- Generator: Adobe Illustrator 22.0.0, SVG Export Plug-In . SVG Version: 6.00 Build 0)  -->
<svg version="1.0" id="Направляющие" xmlns="http://www.w3.org/2000/svg" xmlns:xlink="http://www.w3.org/1999/xlink" x="0px" y="0px" viewBox="0 0 60 85" enable-background="new 0 0 60 85" xml:space="preserve">
<g id="youtube">
	<rect id="canvas_background_1_" fill="#FF0008" width="60" height="85"/>
</g>
<g id="thumb_down">
	<path fill="#FFFFFF" d="M46.3,42.3c-0.1-0.7-0.3-1.3-0.6-2c0,0,0,0,0,0c-0.2-0.7-0.4-1.4-0.6-2.1c-0.8-2.6-1.5-5.2-2.3-7.7   C42,27.6,39,25.8,36,26.3c-2.8,0.5-5.6,0.9-8.4,1.3c-1.3,0.2-2.7,0.4-4,0.7c-0.8,0.1-1.4,0.8-1.3,1.6v15.7c0,0.1,0,0.2,0,0.3   c0,0.1,0.1,0.2,0.2,0.2l0.1,0c0.6,0.1,1.1,0.3,1.6,0.6l0.2,0.1c0.5,0.2,1,0.4,1.4,0.7c0.9,0.4,1.7,1,2.5,1.7   c0.4,0.3,0.7,0.6,1.1,0.9c0.7,0.6,1.4,1.3,2.1,2c0.6,0.6,1.1,1.2,1.6,1.8c0.2,0.2,0.3,0.4,0.4,0.6l0.2,0.3c0.5,0.6,0.9,1.2,1.3,1.8   c0.3,0.5,0.7,0.9,1.1,1.3c0.1,0.1,0.3,0.2,0.4,0.3c0,0,0,0,0,0c0.4,0.3,1.1,0.2,1.4-0.2c0.3-0.4,0.6-0.9,0.7-1.4   c0.9-3.4,0.2-6.5-2.4-9c-0.6-0.6-1.2-1.1-1.8-1.6h0.4c2.8,0,5.6,0,8.4,0c1.2,0,2.2-0.6,2.7-1.7C46.4,43.7,46.5,43,46.3,42.3z"/>
	<path fill="#FFFFFF" d="M20.1,44.8V29.6c0-1.1-0.9-2-2-2h-4.5v19.3h4.5C19.2,46.8,20.1,45.9,20.1,44.8z"/>
</g>
</svg>