<?xml version="1.0" encoding="UTF-8"?>
<!-- Generator: Adobe Illustrator 24.2.1, SVG Export Plug-In . SVG Version: 6.00 Build 0)  -->
<svg version="1.0" xmlns="http://www.w3.org/2000/svg" xmlns:xlink="http://www.w3.org/1999/xlink" x="0px" y="0px" viewBox="0 0 60 85" enable-background="new 0 0 60 85" xml:space="preserve">
<g id="фоны">
	<linearGradient id="Steam_1_" gradientUnits="userSpaceOnUse" x1="26.0838413" y1="34.9477234" x2="53.7037773" y2="88.2125244">
		<stop offset="0" style="stop-color:#111D2E"/>
		<stop offset="0.212" style="stop-color:#051839"/>
		<stop offset="0.407" style="stop-color:#0A1B48"/>
		<stop offset="0.581" style="stop-color:#132E62"/>
		<stop offset="0.738" style="stop-color:#144B7E"/>
		<stop offset="0.873" style="stop-color:#136497"/>
		<stop offset="1" style="stop-color:#1387B8"/>
	</linearGradient>
	<rect id="Steam" fill="url(#Steam_1_)" width="60" height="85"/>
</g>
<g id="иконки">
	<g id="event">
		<path fill="#FFFFFF" d="M42.4011497,29.5435734h-3.044651V28.120388c0-0.6811047-0.5521584-1.2332649-1.2332649-1.2332649    c-0.6811028,0-1.2332649,0.5521603-1.2332649,1.2332649v1.4231167H23.1100311V28.120388    c0-0.6811047-0.5521603-1.2332649-1.2332649-1.2332649c-0.6811028,0-1.233263,0.5521603-1.233263,1.2332649v1.4231167h-3.0446529    c-2.1911678,0-3.9738503,1.7826824-3.9738503,3.9738483v20.6216736c0,2.1911659,1.7826824,3.9738503,3.9738503,3.9738503    h24.8022995c2.1911659,0,3.9738503-1.7826843,3.9738503-3.9738503V33.5174217    C46.375,31.3261871,44.5923157,29.5435734,42.4011497,29.5435734z M17.5988503,32.0101013h3.0446529v3.0170403    c0,0.6811028,0.5521603,1.2332649,1.233263,1.2332649c0.6811047,0,1.2332649-0.5521622,1.2332649-1.2332649v-3.0170403h13.7798691    v3.0170403c0,0.6811028,0.5521584,1.2332649,1.2332649,1.2332649s1.2332649-0.5521622,1.2332649-1.2332649v-3.0170403h3.0447197    c0.8311539,0,1.5073242,0.6761703,1.5073242,1.5073204v5.2816582h-27.816946v-5.2816582    C16.0915279,32.6862717,16.7676983,32.0101013,17.5988503,32.0101013z M42.4011497,55.6464195H17.5988503    c-0.831152,0-1.5073223-0.6761703-1.5073223-1.5073204V41.2655373h27.816946v12.8735619    C43.908474,54.9702492,43.2323036,55.6464195,42.4011497,55.6464195z"/>
		<path fill="#FFFFFF" d="M34.062233,43.9381561l-5.3565426,5.1215401l-2.5344944-2.5344276    c-0.4815903-0.4815865-1.2624493-0.4815865-1.7440395,0c-0.4816589,0.4815903-0.4816589,1.2624512,0,1.7440414    l3.3872261,3.3872261c0.2405548,0.2405548,0.5561352,0.3612099,0.8721237,0.3612099    c0.3066711,0,0.6135483-0.1136665,0.8521862-0.3418884l6.2281189-5.9549522    c0.4923439-0.4706917,0.5097466-1.2513504,0.0390511-1.7436295C35.3353043,43.4850693,34.554718,43.4674606,34.062233,43.9381561z    "/>
	</g>
</g>
</svg>