<?xml version="1.0" encoding="UTF-8"?>
<!-- Generator: Adobe Illustrator 25.0.0, SVG Export Plug-In . SVG Version: 6.00 Build 0)  -->
<svg version="1.2" baseProfile="tiny" xmlns="http://www.w3.org/2000/svg" xmlns:xlink="http://www.w3.org/1999/xlink" x="0px" y="0px" viewBox="0 0 60 85" overflow="visible" xml:space="preserve">
<g id="фоны">
	<linearGradient id="flikr_1_" gradientUnits="userSpaceOnUse" x1="4.1266537" y1="23.3201141" x2="52.3272133" y2="59.0511398">
		<stop offset="0" style="stop-color:#FFFFFF"/>
		<stop offset="1" style="stop-color:#D1D1D1"/>
	</linearGradient>
	<rect id="flikr" fill-rule="evenodd" fill="url(#flikr_1_)" width="60" height="85"/>
</g>
<g id="иконки">
	<path id="favorites" d="M37.3914948,46.6316566L46.375,39.0506363l-10.5755234-0.7581024   c-0.3790512-0.0379028-0.7201958-0.2653351-0.8718147-0.6064796L30,26.9210072l-4.9276619,10.7650471   c-0.1516209,0.3411446-0.4927654,0.5685768-0.8718166,0.6064796L13.625,39.0506363l8.9835072,7.5810204   c0.3032398,0.2653351,0.4548607,0.6822891,0.3411465,1.0613403L20.030962,58.0789948l9.4383659-6.1027222   c0.3411465-0.2274284,0.7960072-0.2274284,1.1371536,0l9.4383678,6.1027222l-2.9186897-10.4239044   C36.9366341,47.3139458,37.088253,46.8969917,37.3914948,46.6316566z"/>
</g>
</svg>