<?xml version="1.0" encoding="UTF-8"?>
<!-- Generator: Adobe Illustrator 25.0.0, SVG Export Plug-In . SVG Version: 6.00 Build 0)  -->
<svg version="1.2" baseProfile="tiny" xmlns="http://www.w3.org/2000/svg" xmlns:xlink="http://www.w3.org/1999/xlink" x="0px" y="0px" viewBox="0 0 60 85" overflow="visible" xml:space="preserve">
<g id="фоны">
	<rect id="Google" fill="#FFFFFF" width="60" height="85"/>
</g>
<g id="лого">
	<g id="google_maps">
		<path fill="#1A73E8" d="M32.9546852,26.6549988C31.8688335,26.312439,30.7054234,26.125,29.503233,26.125    c-3.5096207,0-6.6508293,1.5835304-8.7514324,4.0783997l5.3969326,4.5373001L32.9546852,26.6549988z"/>
		<path fill="#EA4335" d="M20.7518005,30.2033997c-1.7302856,2.0551147-2.6781044,4.6558914-2.6758423,7.342411    c0,2.1458473,0.4265842,3.8909607,1.131094,5.4486389l6.9416809-8.2537498L20.7518005,30.2033997z"/>
		<path fill="#4285F4" d="M29.503233,33.1830215c2.4144993,0.0022163,4.370039,1.9613533,4.3678226,4.3758507    c-0.0009499,1.0317307-0.3667526,2.0298843-1.032711,2.8179054l6.7994843-8.0857048    c-1.3956604-2.6889439-3.8017731-4.7137985-6.6896057-5.629612l-6.793026,8.085701    C26.9838295,33.754818,28.2104149,33.181778,29.503233,33.1830215"/>
		<path fill="#FBBC04" d="M29.503233,41.9215279c-2.4108448,0-4.3692513-1.9584084-4.3692513-4.3692513    c-0.0028267-1.0265236,0.3590965-2.020668,1.0212154-2.8051147l-6.9481449,8.2537537    c1.1892624,2.6306,3.1605968,4.7441254,5.1901016,7.4070435l8.4411907-10.0311813    C32.008255,41.3575592,30.7881355,41.9226913,29.503233,41.9215279"/>
		<path fill="#34A853" d="M32.6702957,53.1419716c3.8134003-5.9592438,8.2537498-8.6674042,8.2537498-15.5961609    c0-1.900238-0.4653664-3.6905975-1.2862167-5.267662L24.4036179,50.407959    c0.6463394,0.8467064,1.2991428,1.7451172,1.9325542,2.7404747C28.6500664,56.7291527,28.010191,58.875,29.503233,58.875    S30.3564014,56.7226906,32.6702957,53.1419716"/>
	</g>
</g>
</svg>