<?xml version="1.0" encoding="UTF-8"?>
<!-- Generator: Adobe Illustrator 25.0.0, SVG Export Plug-In . SVG Version: 6.00 Build 0)  -->
<svg version="1.0" xmlns="http://www.w3.org/2000/svg" xmlns:xlink="http://www.w3.org/1999/xlink" x="0px" y="0px" viewBox="0 0 60 85" enable-background="new 0 0 60 85" xml:space="preserve">
<g id="фоны">
	<rect id="линкедин" fill="#FFFFFF" width="60" height="85"/>
</g>
<g id="иконки">
	<path id="контакты" fill="#007FB1" d="M38.859787,47.2540321c-1.7767601,0-3.3134155,0.7683258-4.3698654,2.016861   l-8.1634903-4.2258072c0.3841629-0.7683258,0.5762463-1.6326981,0.5762463-2.5450859s-0.2401028-1.7767601-0.5762463-2.5450859   l8.1634903-4.2258072c1.0564499,1.2485313,2.6411285,2.016861,4.3698654,2.016861   c3.1693573,0,5.8104858-2.5931091,5.8104858-5.8104839c0-3.1693554-2.5931091-5.8104839-5.8104858-5.8104839   c-3.2173729,0-5.810482,2.7371693-5.810482,5.9065247c0,0.7683296,0.144062,1.4406166,0.3841629,2.1129036l-8.3075504,4.2738266   c-1.0564518-1.0564537-2.4970684-1.6807175-4.0817451-1.6807175c-3.1213341,0-5.7624636,2.6411285-5.7624636,5.810482   s2.5931082,5.810482,5.8104849,5.810482c1.5846767,0,3.0252934-0.6242638,4.0817432-1.6807175l8.3075504,4.2738304   c-0.2401009,0.672287-0.3841629,1.344574-0.3841629,2.1129036c0,3.1693535,2.5931091,5.810482,5.810482,5.810482   c3.2173767,0,5.8104858-2.5931091,5.8104858-5.810482C44.7182922,49.8471413,42.0291443,47.2540321,38.859787,47.2540321z    M38.859787,28.1898823c2.1129036,0,3.8896637,1.7287388,3.8896637,3.8896618c0,2.1129036-1.7287369,3.8896637-3.8896637,3.8896637   c-2.160923,0-3.8896599-1.7767601-3.8896599-3.9376831C34.9701271,29.9186211,36.698864,28.1898823,38.859787,28.1898823z    M21.0921936,46.4376831c-2.1129036,0-3.8896637-1.7287407-3.8896637-3.8896637   c0-2.1129036,1.7287388-3.8896637,3.8896637-3.8896637c2.1129017,0,3.8896618,1.7287407,3.8896618,3.8896637   C24.9818554,44.660923,23.2050953,46.4376831,21.0921936,46.4376831z M38.859787,56.9061584   c-2.1129036,0-3.8896599-1.7287369-3.8896599-3.8896599c0-2.1609268,1.7287369-3.8896637,3.8896599-3.8896637   c2.1609268,0,3.8896637,1.7287369,3.8896637,3.8896637C42.7494507,55.1774216,40.9726906,56.9061584,38.859787,56.9061584z"/>
</g>
</svg>