<?xml version="1.0" encoding="UTF-8"?>
<!-- Generator: Adobe Illustrator 22.0.0, SVG Export Plug-In . SVG Version: 6.00 Build 0)  -->
<svg version="1.0" id="Направляющие" xmlns="http://www.w3.org/2000/svg" xmlns:xlink="http://www.w3.org/1999/xlink" x="0px" y="0px" viewBox="0 0 60 85" enable-background="new 0 0 60 85" xml:space="preserve">
<g id="ок">
	<rect id="canvas_background_4_" x="0.1" y="0" fill="#E67E17" width="60" height="85"/>
</g>
<path id="лайк_6_" fill="#FFFFFF" d="M37.2,31c3.3,0,5.9,2.6,5.9,5.9c0,3.3-6.4,10.5-13.1,16c-6.7-5.7-13.1-12.9-13.1-16  c0-3.3,2.6-5.9,5.9-5.9C26.7,31,30,36,30,36S33.1,31,37.2,31 M37.2,27.8c-2.9,0-5.6,1.5-7.2,3.8c-1.6-2.3-4.3-3.8-7.2-3.8  c-5.1,0-9.2,4.1-9.2,9.2c0,7.2,16.4,20.3,16.4,20.3s16.4-13.1,16.4-20.3C46.4,31.9,42.3,27.8,37.2,27.8L37.2,27.8z"/>
</svg>