<?xml version="1.0" encoding="UTF-8"?>
<!-- Generator: Adobe Illustrator 25.0.0, SVG Export Plug-In . SVG Version: 6.00 Build 0)  -->
<svg version="1.0" xmlns="http://www.w3.org/2000/svg" xmlns:xlink="http://www.w3.org/1999/xlink" x="0px" y="0px" viewBox="0 0 60 85" enable-background="new 0 0 60 85" xml:space="preserve">
<g id="фоны">
	<rect id="линкедин" fill="#FFFFFF" width="60" height="85"/>
</g>
<g id="иконки">
	<path id="лайк_6_" fill="#007FB1" d="M37.204998,31.0375004c3.2750015,0,5.8950005,2.6200008,5.8950005,5.8949986   c0,3.2750015-6.3862495,10.4799995-13.0999985,16.0475044c-6.7137489-5.7312508-13.1000004-12.9362488-13.1000004-16.0475006   c0-3.2750015,2.6200008-5.8950024,5.8950005-5.8950024C26.7250004,31.0375004,30,35.9500008,30,35.9500008   S33.111248,31.0375004,37.204998,31.0375004 M37.204998,27.7625008c-2.9474983,0-5.5674973,1.4737492-7.204998,3.7662487   c-1.6375008-2.2924995-4.2574997-3.7662487-7.2049999-3.7662487c-5.0762501,0-9.1700001,4.09375-9.1700001,9.1699982   C13.625,44.1375008,30,57.2374992,30,57.2374992s16.375-13.0999985,16.375-20.3050003   C46.375,31.8562508,42.28125,27.7625008,37.204998,27.7625008L37.204998,27.7625008z"/>
</g>
</svg>