<?xml version="1.0" encoding="UTF-8"?>
<!-- Generator: Adobe Illustrator 25.0.0, SVG Export Plug-In . SVG Version: 6.00 Build 0)  -->
<svg version="1.2" baseProfile="tiny" xmlns="http://www.w3.org/2000/svg" xmlns:xlink="http://www.w3.org/1999/xlink" x="0px" y="0px" viewBox="0 0 60 85" overflow="visible" xml:space="preserve">
<g id="фоны">
	<rect id="яндекс" fill="#FFE033" width="60" height="85"/>
</g>
<g id="лого">
	<g id="YB">
		<path id="path4496" fill="#FF0000" d="M22.0335293,37.8944397l-2.8404789,2.8404808l8.3031445,8.3038177v9.8713684h4.0176525    v-9.8820839l8.2931023-8.2931023l-2.8404808-2.8404808l-7.4668045,7.4668045L22.0335293,37.8944397"/>
	</g>
</g>
<g id="иконки">
	<path id="favorites" fill="#FFFFFF" stroke="#D3D3D3" stroke-width="2" stroke-miterlimit="10" d="M33.0341835,37.1155014   l4.2255859-3.5658951l-4.9744225-0.3565903c-0.1782951-0.0178299-0.3387623-0.1248055-0.41008-0.2852707l-2.317831-5.0635719   l-2.317831,5.0635719c-0.0713177,0.1604652-0.2317829,0.2674408-0.410078,0.2852707l-4.9744225,0.3565903l4.225584,3.5658951   c0.1426373,0.1248055,0.2139549,0.3209305,0.1604652,0.4992218L24.8682861,42.5l4.439537-2.8705444   c0.1604652-0.1069756,0.3744202-0.1069756,0.5348854,0L34.2822456,42.5l-1.3728676-4.9031067   C32.8202324,37.4364319,32.8915482,37.2403069,33.0341835,37.1155014z"/>
	<path id="favorites_1_" fill="#FFFFFF" stroke="#D3D3D3" stroke-miterlimit="10" d="M23.4670753,50.6662407l3.2117805-2.7103653   l-3.7809582-0.2710342c-0.1355171-0.0135536-0.2574844-0.0948639-0.3116913-0.2168312l-1.7617359-3.8487167l-1.7617359,3.8487167   c-0.0542068,0.1219673-0.1761742,0.2032776-0.3116913,0.2168312l-3.7809572,0.2710342l3.2117796,2.7103653   c0.1084156,0.0948601,0.1626225,0.2439308,0.1219673,0.3794479l-1.0434895,3.7131996l3.3744011-2.1818428   c0.1219673-0.0813103,0.2845879-0.0813103,0.4065552,0l3.374403,2.1818428l-1.0434895-3.7267494   C23.3044529,50.9101715,23.3586597,50.7611008,23.4670753,50.6662407z"/>
	<path id="favorites_2_" fill="#FFFFFF" stroke="#D3D3D3" stroke-miterlimit="10" d="M41.1755486,50.6662407l3.2117767-2.7103653   l-3.7809563-0.2710342c-0.1355171-0.0135536-0.2574844-0.0948639-0.3116913-0.2168312l-1.761734-3.8487167l-1.7617378,3.8487167   c-0.0542068,0.1219673-0.1761742,0.2032776-0.3116913,0.2168312l-3.7809563,0.2710342l3.2117805,2.7103653   c0.1084137,0.0948601,0.1626205,0.2439308,0.1219673,0.3794479l-1.0434914,3.7131996l3.3744011-2.1818428   c0.1219673-0.0813103,0.2845879-0.0813103,0.4065552,0l3.3744011,2.1818428l-1.0434875-3.7267494   C41.0129242,50.9101715,41.067131,50.7611008,41.1755486,50.6662407z"/>
</g>
</svg>