<?xml version="1.0" encoding="UTF-8"?>
<!-- Generator: Adobe Illustrator 22.0.0, SVG Export Plug-In . SVG Version: 6.00 Build 0)  -->
<svg version="1.0" id="Направляющие" xmlns="http://www.w3.org/2000/svg" xmlns:xlink="http://www.w3.org/1999/xlink" x="0px" y="0px" viewBox="0 0 60 85" enable-background="new 0 0 60 85" xml:space="preserve">
<g id="ок">
	<rect id="canvas_background_4_" x="0.1" y="0" fill="#E67E17" width="60" height="85"/>
</g>
<g id="опрос">
	<g>
		<path fill="#FFFFFF" d="M15.3,45.8h4.9c0.9,0,1.6,0.7,1.6,1.6v9.8c0,0.9-0.7,1.6-1.6,1.6h-4.9c-0.9,0-1.6-0.7-1.6-1.6v-9.8    C13.6,46.5,14.4,45.8,15.3,45.8L15.3,45.8z M27.5,26.1h4.9c0.9,0,1.6,0.7,1.6,1.6v29.5c0,0.9-0.7,1.6-1.6,1.6h-4.9    c-0.9,0-1.6-0.7-1.6-1.6V27.8l0,0C25.9,26.9,26.6,26.1,27.5,26.1z M39.8,36h4.9c0.9,0,1.6,0.7,1.6,1.6v19.6c0,0.9-0.7,1.6-1.6,1.6    h-4.9c-0.9,0-1.6-0.7-1.6-1.6V37.6C38.2,36.7,38.9,36,39.8,36z"/>
	</g>
</g>
</svg>