<?xml version="1.0" encoding="UTF-8"?>
<!-- Generator: Adobe Illustrator 25.0.0, SVG Export Plug-In . SVG Version: 6.00 Build 0)  -->
<svg version="1.0" xmlns="http://www.w3.org/2000/svg" xmlns:xlink="http://www.w3.org/1999/xlink" x="0px" y="0px" viewBox="0 0 60 85" enable-background="new 0 0 60 85" xml:space="preserve">
<g id="фоны">
	<rect id="твитер" fill="#1EBEF0" width="60" height="85"/>
</g>
<g id="иконки">
	<g id="опрос">
		<g>
			<path fill="#FFFFFF" d="M15.2624998,45.7750015h4.9124994c0.9043674,0,1.6375008,0.7331314,1.6375008,1.6374969v9.8250008     c0,0.9043655-0.7331333,1.6375008-1.6375008,1.6375008h-4.9124994c-0.9043665,0-1.6374998-0.7331352-1.6374998-1.6375008     v-9.8250008C13.625,46.5081329,14.3581333,45.7750015,15.2624998,45.7750015L15.2624998,45.7750015z M27.5437508,26.125     h4.9124985c0.9043655,0,1.6375008,0.7331333,1.6375008,1.6375008v29.4749985     c0,0.9043655-0.7331352,1.6375008-1.6375008,1.6375008h-4.9124985c-0.9043674,0-1.6375008-0.7331352-1.6375008-1.6375008     V27.7625008l0,0C25.90625,26.8581333,26.6393833,26.125,27.5437508,26.125z M39.8250008,35.9500008h4.9124985     c0.9043655,0,1.6375008,0.7331314,1.6375008,1.6375008v19.6499977c0,0.9043655-0.7331352,1.6375008-1.6375008,1.6375008     h-4.9124985c-0.9043655,0-1.6375008-0.7331352-1.6375008-1.6375008V37.5875015     C38.1875,36.6831322,38.9206352,35.9500008,39.8250008,35.9500008z"/>
		</g>
	</g>
</g>
</svg>