<?xml version="1.0" encoding="UTF-8"?>
<!-- Generator: Adobe Illustrator 23.0.6, SVG Export Plug-In . SVG Version: 6.00 Build 0)  -->
<svg version="1.0" id="Направляющие" xmlns="http://www.w3.org/2000/svg" xmlns:xlink="http://www.w3.org/1999/xlink" x="0px" y="0px" viewBox="0 0 60 85" enable-background="new 0 0 60 85" xml:space="preserve">
<rect id="tidal" stroke="#000000" stroke-width="9.400000e-02" width="60" height="85"/>
<g id="playlist_прослушивания">
	<path fill="#FFFFFF" d="M31.1,53.2c-0.4-0.3-1.3-0.9-1.8-1.2H16.8c-0.5,0-1-0.6-1-1.1V31.9c0-0.5,0.5-1,1-1h13.9   c0.5,0,1.1,0.5,1.1,1v1.4c0.7-0.5,1.8-0.9,2.2-1.2v-0.7c0-1.5-1.3-2.7-2.9-2.7H16.3c-1.5,0-2.7,1.2-2.7,2.7v22.2   c0,1.5,1.2,2.7,2.7,2.7h14.7V53.2z M23.6,55.2c-0.6,0-1.1-0.5-1.1-1.1c0-0.6,0.5-1.1,1.1-1.1s1.1,0.5,1.1,1.1   C24.7,54.7,24.2,55.2,23.6,55.2z"/>
	<path fill="#FFFFFF" d="M20.1,33.5l0,5.9c-0.2-0.1-0.4-0.1-0.6-0.1c-0.2,0-0.4,0-0.7,0.1c-0.3,0.1-0.6,0.3-0.8,0.5   c-0.2,0.2-0.3,0.5-0.3,0.7c0,0.2,0,0.3,0.1,0.4c0.2,0.3,0.5,0.4,0.9,0.4c0.2,0,0.4,0,0.6-0.1c0.3-0.1,0.7-0.2,0.9-0.5   c0.3-0.3,0.5-0.5,0.5-0.8v-4.2l3.6-0.7v3.5c0-0.1-0.3-0.1-0.5-0.1c-0.2,0-0.4,0-0.7,0.1c-0.3,0.1-0.6,0.3-0.7,0.5   c-0.2,0.2-0.3,0.5-0.3,0.7c0,0.2,0,0.3,0.1,0.4c0.2,0.3,0.5,0.4,0.9,0.4c0.2,0,0.4,0,0.6-0.1c0.3-0.1,0.6-0.2,0.8-0.5   c0.3-0.3,0.4-0.5,0.4-0.8v-6.6L20.1,33.5z"/>
	<path fill="#FFFFFF" d="M24.9,45c0,0.2-0.2,0.4-0.4,0.4h-6.2c-0.2,0-0.4-0.2-0.4-0.4v-0.7c0-0.2,0.2-0.4,0.4-0.4h6.2   c0.2,0,0.4,0.2,0.4,0.4V45z"/>
	<path fill="#FFFFFF" d="M24.9,48.3c0,0.2-0.2,0.4-0.4,0.4h-6.2c-0.2,0-0.4-0.2-0.4-0.4v-0.7c0-0.2,0.2-0.4,0.4-0.4h6.2   c0.2,0,0.4,0.2,0.4,0.4V48.3z"/>
	<path fill="#FFFFFF" d="M39.4,33v5.3c1.3,0.5,2.3,1.8,2.3,3.2c0,1.9-1.5,3.5-3.5,3.5c-1.9,0-3.5-1.5-3.5-3.5c0-1.4,0.9-2.7,2.1-3.2   v-5.5c-2,0.1-3.9,1-5.4,2.4c-0.5,0.4-0.9,0.9-1.3,1.5c-0.2,0.2-0.3,0.7-0.4,0.7c-0.4,1-0.7,2.2-0.7,3.5l-1.8,4   c-0.2,0.4-0.2,0.7,0.1,1.1c0.2,0.3,0.6,0.5,1,0.5h1l0.1,1.4c0,1.9,1.5,3.6,3.4,3.9v4.5h10.5v-7.4c1.8-1.6,2.9-4.5,2.9-7.3   C46.4,37.4,43.4,33.9,39.4,33z"/>
</g>
</svg>