<?xml version="1.0" encoding="UTF-8"?>
<!-- Generator: Adobe Illustrator 25.0.0, SVG Export Plug-In . SVG Version: 6.00 Build 0)  -->
<svg version="1.0" xmlns="http://www.w3.org/2000/svg" xmlns:xlink="http://www.w3.org/1999/xlink" x="0px" y="0px" viewBox="0 0 60 85" enable-background="new 0 0 60 85" xml:space="preserve">
<g id="фоны">
	<g id="spotify">
		<g id="svg_2">
			<rect fill="#00D557" width="60" height="85"/>
		</g>
	</g>
</g>
<g id="иконки">
	<g id="playlist_прослушивания">
		<path d="M31.0841007,53.1787872c-0.3637314-0.3397255-1.2777882-0.8580437-1.819746-1.2217751H16.7978268    c-0.5103149,0-0.9904394-0.6350746-0.9904394-1.145752V31.8619518c0-0.5103149,0.4801245-1.0013523,0.9904394-1.0013523    h13.8654366c0.5103149,0,1.1483002,0.4910374,1.1483002,1.0013523v1.4203701    c0.7274609-0.4855804,1.818655-0.8758659,2.1823864-1.1683044v-0.7143688c0-1.5313091-1.3370743-2.7214375-2.8687477-2.7214375    H16.3358898c-1.5316734,0-2.7108898,1.1901283-2.7108898,2.7218018v22.1843338c0,1.5316696,1.1792164,2.737442,2.7108898,2.737442    h14.7482109V53.1787872z M23.6014214,55.1509361c-0.616888,0-1.1170177-0.5001297-1.1170177-1.1170197    c0-0.6168861,0.5001297-1.1170158,1.1170177-1.1170158s1.1170197,0.5001297,1.1170197,1.1170158    C24.718441,54.6508064,24.2183094,55.1509361,23.6014214,55.1509361z"/>
		<path d="M20.0848675,33.5460281l-0.0032749,5.8597107c-0.1669521-0.0589256-0.3546371-0.0887527-0.5554161-0.0887527    c-0.2193317,0-0.4459343,0.040741-0.668539,0.1203957c-0.3091717,0.1051216-0.5616016,0.2731628-0.7500134,0.4997673    c-0.1927776,0.2316971-0.2902584,0.4746704-0.2902584,0.7220078c0,0.1545868,0.0396461,0.2964401,0.116394,0.4179268    c0.1767731,0.2964401,0.4877644,0.4466629,0.9256973,0.4466629c0.199688,0,0.4182892-0.0316467,0.6496239-0.0934792    c0.3139-0.0811119,0.6710835-0.2429733,0.9056892-0.4786682c0.2706165-0.2571602,0.4848557-0.5408707,0.4848557-0.843132    v-4.2349243l3.6373119-0.7136383v3.5321922c0-0.0589256-0.3317223-0.0887489-0.5328655-0.0887489    c-0.2189674,0-0.4342957,0.0407372-0.6572628,0.1203957c-0.3088074,0.1054802-0.5557804,0.273159-0.7438297,0.4997673    c-0.1927776,0.2316971-0.2877121,0.4746666-0.2877121,0.7220039c0,0.1553154,0.0411015,0.2971687,0.117485,0.4179268    c0.1767731,0.2964401,0.4892178,0.4466629,0.9267883,0.4466629c0.2000504,0,0.4186535-0.0316467,0.6492596-0.0934792    c0.3146286-0.0811119,0.6045208-0.2433357,0.8391285-0.478672c0.2695236-0.257885,0.4164715-0.5415955,0.4164715-0.8431282    v-6.562439L20.0848675,33.5460281z"/>
		<path d="M24.9006691,45.0461197c0,0.200779-0.1629524,0.3637314-0.3637314,0.3637314h-6.1834316    c-0.200779,0-0.3637314-0.1629524-0.3637314-0.3637314v-0.7274628c0-0.200779,0.1629524-0.3637314,0.3637314-0.3637314h6.1834316    c0.200779,0,0.3637314,0.1629524,0.3637314,0.3637314V45.0461197z"/>
		<path d="M24.9006691,48.3197021c0,0.200779-0.1629524,0.3637276-0.3637314,0.3637276h-6.1834316    c-0.200779,0-0.3637314-0.1629486-0.3637314-0.3637276v-0.7274628c0-0.2007828,0.1629524-0.3637314,0.3637314-0.3637314h6.1834316    c0.200779,0,0.3637314,0.1629486,0.3637314,0.3637314V48.3197021z"/>
		<path d="M39.4499207,33.0073433v5.2788315c1.3156128,0.4881248,2.2551308,1.7513657,2.2551308,3.2368431    c0,1.9085007-1.5469475,3.4554482-3.4554443,3.4554482c-1.9085007,0-3.4554482-1.5469475-3.4554482-3.4554482    c0-1.4309158,0.8696823-2.6588745,2.109642-3.1833763V32.832386c-2.0285301,0.1498566-3.9272079,0.9820747-5.3952255,2.3897171    c-0.513588,0.431385-0.9417,0.939518-1.2661476,1.5018463c-0.1600418,0.2393341-0.3379078,0.6565323-0.3568211,0.7016373    c-0.4277477,0.9842567-0.6601715,2.1660194-0.6914539,3.5125504l-1.7786446,3.9701271    c-0.178957,0.3571854-0.1600418,0.742012,0.0501938,1.0817375c0.2095089,0.3393593,0.5732403,0.5110435,0.9722538,0.5110435    h1.0260849l0.0883865,1.4221878c0,1.9434166,1.5320377,3.6107635,3.3506947,3.8941078v4.5044479h10.5482063v-7.4193916    c1.8186569-1.62006,2.9236717-4.5430031,2.9236717-7.3019066C46.3746376,37.3968506,43.3971291,33.8741112,39.4499207,33.0073433z    "/>
	</g>
</g>
</svg>