<?xml version="1.0" encoding="UTF-8"?>
<!-- Generator: Adobe Illustrator 22.1.0, SVG Export Plug-In . SVG Version: 6.00 Build 0)  -->
<svg version="1.0" id="Направляющие" xmlns="http://www.w3.org/2000/svg" xmlns:xlink="http://www.w3.org/1999/xlink" x="0px" y="0px" viewBox="0 0 60 85" enable-background="new 0 0 60 85" xml:space="preserve">
<rect id="Quora" fill="#B92B27" width="60" height="85"/>
<g id="подписчики_1_">
	<g>
		<path fill="#FFFFFF" d="M21.9,44c0,0,2.3-1,4.3-1.2c0,0,1.2,1.3,3.7,1.4s3.7-1.4,3.7-1.4s2.8,0.3,4.9,1.4c2,1.1,4.3,1.8,4,11    c0,0-1.6,3.7-12.9,3.7C29.5,58.9,33.9,47.6,21.9,44z"/>
		<path fill="#FFFFFF" d="M29.8,26.1c0,0,5.5-0.3,6.2,3.7s0.3,6.1,0.3,6.1s-0.7,3.3-2.9,4.9s-3.7,1.3-3.7,1.3s-2.9-0.3-4.2-1.8    c-1.2-1.6-2.1-2.9-2.3-5.8c-0.2-2.9,0.5-4.8,0.5-4.8S24.6,26,29.8,26.1z"/>
		<polygon fill="#FFFFFF" points="20.4,57.5 22.7,57.5 22.7,54.7 25.6,54.7 25.6,52.4 22.7,52.4 22.6,49.6 20.4,49.6 20.4,52.4     17.5,52.3 17.5,54.6 20.4,54.6   "/>
	</g>
</g>
</svg>