<?xml version="1.0" encoding="UTF-8"?>
<!-- Generator: Adobe Illustrator 25.0.0, SVG Export Plug-In . SVG Version: 6.00 Build 0)  -->
<svg version="1.0" xmlns="http://www.w3.org/2000/svg" xmlns:xlink="http://www.w3.org/1999/xlink" x="0px" y="0px" viewBox="0 0 60 85" enable-background="new 0 0 60 85" xml:space="preserve">
<g id="фоны">
	<rect id="линкедин" fill="#FFFFFF" width="60" height="85"/>
</g>
<g id="иконки">
	<g id="подписчики_2_">
		<g>
			<path fill="#007FB1" d="M21.8803253,43.9821014c0,0,2.3109283-1.0168076,4.3445435-1.201683     c0,0,1.1926117,1.3403397,3.6929493,1.3865585s3.6558018-1.3865585,3.6558018-1.3865585s2.8193283,0.2795029,4.8529472,1.3876534     c2.0336151,1.1081505,4.2521057,1.7552071,4.0210114,11.0451355c0,0-1.6176491,3.6974831-12.9411926,3.6974831     C29.5063858,58.9106903,33.943367,47.6333656,21.8803253,43.9821014z"/>
			<path fill="#007FB1" d="M29.829916,26.0955238c0,0,5.5000057-0.3235302,6.2395039,3.697485     s0.3235283,6.1470661,0.3235283,6.1470661s-0.6932755,3.3277359-2.8655472,4.8529472s-3.697485,1.3403358-3.697485,1.3403358     s-2.911768-0.2773094-4.1596699-1.8487396c-1.2479-1.5714302-2.1260529-2.9117699-2.3109264-5.777317     c-0.1848736-2.865551,0.4621849-4.7605114,0.4621849-4.7605114S24.5610008,25.9568691,29.829916,26.0955238z"/>
			<polygon fill="#007FB1" points="20.4475517,57.4779167 22.7122593,57.4779167 22.7122593,54.6585846 25.6240273,54.6585846      25.6240273,52.440094 22.7122593,52.440094 22.6198235,49.5745468 20.4475517,49.5745468 20.4475517,52.3938751      17.5357819,52.3014412 17.5357819,54.6123657 20.4013329,54.6123657    "/>
		</g>
	</g>
</g>
</svg>