<?xml version="1.0" encoding="UTF-8"?>
<!-- Generator: Adobe Illustrator 25.0.0, SVG Export Plug-In . SVG Version: 6.00 Build 0)  -->
<svg version="1.0" xmlns="http://www.w3.org/2000/svg" xmlns:xlink="http://www.w3.org/1999/xlink" x="0px" y="0px" viewBox="0 0 60 85" enable-background="new 0 0 60 85" xml:space="preserve">
<g id="фоны">
	<rect id="reddit" fill="#FF4500" width="60" height="85"/>
</g>
<g id="иконки">
	<g id="посетители">
		<g>
			<path fill="#FFFFFF" d="M21.8803253,43.9821014c0,0,2.3109283-1.0168076,4.3445435-1.201683     c0,0,1.1926117,1.3403397,3.6929493,1.3865585s3.6558018-1.3865585,3.6558018-1.3865585s2.8193283,0.2795029,4.8529472,1.3876534     c2.0336151,1.1081505,4.2521057,1.7552071,4.0210114,11.0451355c0,0-1.6176491,3.6974831-12.9411926,3.6974831     C29.5063858,58.9106903,33.943367,47.6333656,21.8803253,43.9821014z"/>
			<path fill="#FFFFFF" d="M29.829916,26.0955238c0,0,5.5000057-0.3235302,6.2395039,3.697485     s0.3235283,6.1470661,0.3235283,6.1470661s-0.6932755,3.3277359-2.8655472,4.8529472s-3.697485,1.3403358-3.697485,1.3403358     s-2.911768-0.2773094-4.1596699-1.8487396c-1.2479-1.5714302-2.1260529-2.9117699-2.3109264-5.777317     c-0.1848736-2.865551,0.4621849-4.7605114,0.4621849-4.7605114S24.5610008,25.9568691,29.829916,26.0955238z"/>
			<path fill="#FFFFFF" d="M22.5577621,52.3583527c0.1293468,0.262085,0.4466629,0.3696899,0.708746,0.2403412     c0.2620831-0.1293449,0.3696899-0.4466591,0.2403431-0.708744l-1.3997288-2.8361588     c-0.1293468-0.262085-0.4466629-0.3696899-0.708746-0.240345c-0.262085,0.1293488-0.3696899,0.4466629-0.2403431,0.7087479     L22.5577621,52.3583527z M23.5280037,54.4076462c-0.2092857,0.2040024-0.2135696,0.5390396-0.0095654,0.7483292     c0.2040043,0.2092857,0.5390434,0.2135696,0.7483273,0.0095634l2.2648087-2.2076416     c0.2092876-0.2040024,0.2135677-0.5390434,0.0095673-0.7483292c-0.2040043-0.2092857-0.5390434-0.2135658-0.7483311-0.0095634     L23.5280037,54.4076462z M21.8788319,55.9636688c-0.2586918-0.1360016-0.5786552-0.0365448-0.7146587,0.2221489     c-0.1360016,0.2586899-0.0365429,0.5786552,0.2221489,0.7146568l2.7994576,1.4717598     c0.2586937,0.1360054,0.5786552,0.0365448,0.7146568-0.2221451c0.1360054-0.2586937,0.0365429-0.5786552-0.222147-0.7146606     L21.8788319,55.9636688z M19.8893452,54.876049c0.0494061-0.2880554-0.1440601-0.5616264-0.4321194-0.6110306     c-0.2880573-0.049408-0.5616245,0.1440582-0.6110306,0.4321175l-0.5346489,3.1172409     c-0.0494061,0.2880554,0.1440601,0.5616264,0.4321175,0.6110306c0.2880573,0.049408,0.5616264-0.1440582,0.6110325-0.4321175     L19.8893452,54.876049z M20.3089466,52.6478424c0.2892265-0.0420265,0.4896202-0.3105621,0.4475937-0.5997887     s-0.3105602-0.4896202-0.5997868-0.4475937l-3.1298885,0.4547997c-0.2892265,0.0420265-0.4896202,0.3105621-0.4475956,0.5997887     c0.0420284,0.2892265,0.3105621,0.4896202,0.5997887,0.4475937L20.3089466,52.6478424z"/>
			<path fill="#FFFFFF" d="M26.0860958,53.1026421c0.2892265,0.0420265,0.5577621-0.1583672,0.5997887-0.4475937     s-0.1583672-0.5577621-0.4475937-0.5997887l-3.1298866-0.4547997c-0.2892284-0.0420265-0.5577621,0.1583672-0.5997906,0.4475937     c-0.0420265,0.2892265,0.1583672,0.5577621,0.4475956,0.5997887L26.0860958,53.1026421z M23.9104595,57.9932899     c0.0494041,0.2880592,0.3229733,0.4815254,0.6110325,0.4321175c0.2880573-0.0494041,0.4815235-0.3229752,0.4321175-0.6110306     l-0.5346489-3.1172409c-0.0494061-0.2880592-0.3229752-0.4815254-0.6110325-0.4321175     c-0.2880573,0.0494041-0.4815235,0.3229752-0.4321175,0.6110306L23.9104595,57.9932899z M18.5868664,57.4354286     c-0.2586918,0.1360054-0.3581524,0.4559669-0.2221489,0.7146606c0.1360035,0.2586899,0.4559669,0.3581505,0.7146587,0.2221451     l2.7994556-1.4717598c0.2586918-0.1360016,0.3581524-0.4559669,0.2221489-0.7146568     c-0.1360016-0.2586937-0.455965-0.3581505-0.7146587-0.2221489L18.5868664,57.4354286z M17.4723434,52.2000046     c-0.2092857-0.2040024-0.544323-0.1997223-0.7483273,0.0095634s-0.1997223,0.5443268,0.0095634,0.7483292l2.2648087,2.2076416     c0.2092857,0.2040062,0.5443249,0.1997223,0.7483292-0.0095634c0.2040024-0.2092896,0.1997204-0.5443268-0.0095673-0.7483292     L17.4723434,52.2000046z M22.1071224,49.5221939c0.1293468-0.262085,0.0217419-0.5793991-0.2403431-0.7087479     c-0.262085-0.1293449-0.579401-0.02174-0.708746,0.240345l-1.3997288,2.8361588     c-0.1293468,0.262085-0.0217419,0.5793991,0.2403431,0.708744c0.2620831,0.1293488,0.579401,0.0217438,0.708746-0.2403412     L22.1071224,49.5221939z"/>
		</g>
	</g>
</g>
</svg>