<?xml version="1.0" encoding="UTF-8"?>
<!-- Generator: Adobe Illustrator 22.0.0, SVG Export Plug-In . SVG Version: 6.00 Build 0)  -->
<svg version="1.0" id="Направляющие" xmlns="http://www.w3.org/2000/svg" xmlns:xlink="http://www.w3.org/1999/xlink" x="0px" y="0px" viewBox="0 0 60 85" enable-background="new 0 0 60 85" xml:space="preserve">
<g>
	<rect id="canvas_background_8_" fill="#1D1D1D" width="60" height="85"/>
</g>
<path id="просмотры" fill="#FFFFFF" d="M30,38.4c0,2.3-1.8,4.1-4.1,4.1c0,2.3,1.8,4.1,4.1,4.1s4.1-1.8,4.1-4.1  S32.3,38.4,30,38.4z M30,30.2c-8.4,0-16.4,9.5-16.4,12.3s8,12.3,16.4,12.3s16.4-9.5,16.4-12.3S38.4,30.2,30,30.2z M30,50.7  c-4.5,0-8.2-3.7-8.2-8.2s3.7-8.2,8.2-8.2s8.2,3.7,8.2,8.2S34.5,50.7,30,50.7z"/>
</svg>