<?xml version="1.0" encoding="UTF-8"?>
<!-- Generator: Adobe Illustrator 24.2.1, SVG Export Plug-In . SVG Version: 6.00 Build 0)  -->
<svg version="1.0" xmlns="http://www.w3.org/2000/svg" xmlns:xlink="http://www.w3.org/1999/xlink" x="0px" y="0px" viewBox="0 0 60 85" enable-background="new 0 0 60 85" xml:space="preserve">
<g id="фоны">
	<rect id="twitch" fill="#AF7AFE" width="60" height="85"/>
</g>
<g id="иконки">
	<g id="prime_twitch">
		<g id="Слой_14__x28_копия_x29_">
			<linearGradient id="SVGID_1_" gradientUnits="userSpaceOnUse" x1="22.9762745" y1="44.6491127" x2="20.4312534" y2="33.600872">
				<stop offset="0" style="stop-color:#CE7AFE"/>
				<stop offset="1" style="stop-color:#8E51FE"/>
			</linearGradient>
			<polygon fill="url(#SVGID_1_)" points="25.6866741,30.5590992 26.2941093,30.5590992 26.2941093,35.0981865      18.4294281,42.9948387 16.0316582,42.9948387    "/>
			<linearGradient id="SVGID_2_" gradientUnits="userSpaceOnUse" x1="13.1523581" y1="42.0667191" x2="22.08708" y2="33.324295">
				<stop offset="0" style="stop-color:#BC6FFE"/>
				<stop offset="1" style="stop-color:#8E51FE"/>
			</linearGradient>
			<polygon fill="url(#SVGID_2_)" points="19.7619877,30.5590992 25.6866741,30.5590992 25.6866741,34.8424225      15.584075,44.5500565 15.584075,43.0268097 13.186306,43.0587769 13.186306,37.1123123    "/>
			<polygon fill="#FFFFFF" points="20.379612,36.1532021 21.8822136,36.1532021 21.8822136,37.3041344 23.033144,36.1532021      24.3758945,36.1532021 25.6866741,34.8424225 25.6866741,31.2297859 20.379612,31.2297859    "/>
			<rect x="22.1699467" y="32.4126854" fill="#AF7AFE" width="0.6713753" height="1.9821556"/>
			<rect x="23.9922504" y="32.4126854" fill="#AF7AFE" width="0.6713753" height="1.9821556"/>
		</g>
		<g id="Слой_14__x28_копия2_x29_">
			<linearGradient id="SVGID_3_" gradientUnits="userSpaceOnUse" x1="34.7053337" y1="59.8036308" x2="32.7934647" y2="51.5039749">
				<stop offset="0" style="stop-color:#CE7AFE"/>
				<stop offset="1" style="stop-color:#8E51FE"/>
			</linearGradient>
			<polygon fill="url(#SVGID_3_)" points="36.7414398,49.2189369 37.1977539,49.2189369 37.1977539,52.628788      31.2896519,58.5609055 29.4884014,58.5609055    "/>
			<linearGradient id="SVGID_4_" gradientUnits="userSpaceOnUse" x1="27.3254147" y1="57.8636856" x2="34.0373535" y2="51.2962074">
				<stop offset="0" style="stop-color:#BC6FFE"/>
				<stop offset="1" style="stop-color:#8E51FE"/>
			</linearGradient>
			<polygon fill="url(#SVGID_4_)" points="32.290699,49.2189369 36.7414398,49.2189369 36.7414398,52.4366531      29.1521683,59.7292175 29.1521683,58.5849228 27.3509178,58.6089401 27.3509178,54.1418381    "/>
			<polygon fill="#FFFFFF" points="32.7546692,53.4213371 33.8834534,53.4213371 33.8834534,54.2859383 34.7480545,53.4213371      35.7567558,53.4213371 36.7414398,52.4366531 36.7414398,49.7227707 32.7546692,49.7227707    "/>
			<rect x="34.0996056" y="50.6113853" fill="#AF7AFE" width="0.5043502" height="1.4890339"/>
			<rect x="35.4685555" y="50.6113853" fill="#AF7AFE" width="0.5043502" height="1.4890339"/>
		</g>
		<g id="Слой_14">
			<linearGradient id="SVGID_5_" gradientUnits="userSpaceOnUse" x1="35.2860832" y1="56.2312622" x2="31.0592175" y2="37.8819466">
				<stop offset="0" style="stop-color:#CE7AFE"/>
				<stop offset="1" style="stop-color:#8E51FE"/>
			</linearGradient>
			<polygon fill="url(#SVGID_5_)" points="39.7876091,32.8300591 40.7964592,32.8300591 40.7964592,40.3687363      27.7345123,53.4837837 23.7522125,53.4837837    "/>
			<linearGradient id="SVGID_6_" gradientUnits="userSpaceOnUse" x1="18.9701672" y1="51.9423294" x2="33.8092766" y2="37.4225998">
				<stop offset="0" style="stop-color:#BC6FFE"/>
				<stop offset="1" style="stop-color:#8E51FE"/>
			</linearGradient>
			<polygon fill="url(#SVGID_6_)" points="29.9476795,32.8300591 39.7876091,32.8300591 39.7876091,39.9439583      23.0088501,56.0667458 23.0088501,53.5368805 19.0265484,53.5899773 19.0265484,43.713871    "/>
			<polygon fill="#FFFFFF" points="30.9734516,42.1209488 33.4690247,42.1209488 33.4690247,44.0324554 35.3805313,42.1209488      37.6106186,42.1209488 39.7876091,39.9439583 39.7876091,33.9439583 30.9734516,33.9439583    "/>
			<rect x="33.9469032" y="35.9085617" fill="#AF7AFE" width="1.1150442" height="3.2920353"/>
			<rect x="36.9734497" y="35.9085617" fill="#AF7AFE" width="1.1150442" height="3.2920353"/>
		</g>
		<g id="Слой_17">
			<linearGradient id="SVGID_7_" gradientUnits="userSpaceOnUse" x1="37.244545" y1="30.7221394" x2="42.5408783" y2="25.5397949">
				<stop offset="0" style="stop-color:#BC6FFE"/>
				<stop offset="1" style="stop-color:#8E51FE"/>
			</linearGradient>
			<polygon fill="url(#SVGID_7_)" stroke="#FFFFFF" stroke-width="0.5" stroke-miterlimit="10" points="35.858345,24.9838791      35.858345,28.9661789 36.5297203,30.5590992 44.66185,30.5590992 45.7345772,28.9661789 45.7345772,24.9838791      43.2458344,27.0546741 41.0393143,24.9838791 38.3520241,27.2139664    "/>
		</g>
	</g>
</g>
</svg>