<?xml version="1.0" encoding="UTF-8"?>
<!-- Generator: Adobe Illustrator 25.0.0, SVG Export Plug-In . SVG Version: 6.00 Build 0)  -->
<svg version="1.0" xmlns="http://www.w3.org/2000/svg" xmlns:xlink="http://www.w3.org/1999/xlink" x="0px" y="0px" viewBox="0 0 60 85" enable-background="new 0 0 60 85" xml:space="preserve">
<g id="фоны">
	<rect id="twitch" fill="#AF7AFE" width="60" height="85"/>
</g>
<g id="иконки">
	<path id="просмотры" fill="#FFFFFF" d="M30,38.40625C30,40.6660004,28.1660004,42.5,25.90625,42.5   c0,2.2597504,1.8339996,4.09375,4.09375,4.09375s4.09375-1.8339996,4.09375-4.09375S32.2597504,38.40625,30,38.40625z M30,30.21875   c-8.3962822,0-16.375,9.5138741-16.375,12.28125S21.6037178,54.78125,30,54.78125S46.375,45.2673759,46.375,42.5   S38.3962822,30.21875,30,30.21875z M30,50.6875c-4.5215473,0-8.1875-3.6659546-8.1875-8.1875S25.4784527,34.3125,30,34.3125   s8.1875,3.6659546,8.1875,8.1875S34.5215454,50.6875,30,50.6875z"/>
</g>
</svg>