<?xml version="1.0" encoding="UTF-8"?>
<!-- Generator: Adobe Illustrator 25.0.0, SVG Export Plug-In . SVG Version: 6.00 Build 0)  -->
<svg version="1.2" baseProfile="tiny" xmlns="http://www.w3.org/2000/svg" xmlns:xlink="http://www.w3.org/1999/xlink" x="0px" y="0px" viewBox="0 0 60 85" overflow="visible" xml:space="preserve">
<g id="фоны">
	<rect id="яндекс" fill="#FFE033" width="60" height="85"/>
</g>
<g id="иконки">
	<path id="favorites" fill="#FFFFFF" stroke="#D3D3D3" stroke-width="3" stroke-miterlimit="10" d="M37.3914948,46.6316566   L46.375,39.0506363l-10.5755234-0.7581024c-0.3790512-0.0379028-0.7201958-0.2653351-0.8718147-0.6064796L30,26.9210072   l-4.9276619,10.7650471c-0.1516209,0.3411446-0.4927654,0.5685768-0.8718166,0.6064796L13.625,39.0506363l8.9835072,7.5810204   c0.3032398,0.2653351,0.4548607,0.6822891,0.3411465,1.0613403L20.030962,58.0789948l9.4383659-6.1027222   c0.3411465-0.2274284,0.7960072-0.2274284,1.1371536,0l9.4383678,6.1027222l-2.9186897-10.4239044   C36.9366341,47.3139458,37.088253,46.8969917,37.3914948,46.6316566z"/>
	<path fill="#FF0000" d="M31.2890854,39.7874794h-1.0169735c-1.0170116,0-1.8920746,0.7568398-1.8920746,2.2231865   c0,0.875103,0.4256897,1.5373192,1.1588821,1.8684311l-1.3717651,2.459713c-0.0472908,0.0709724,0,0.1419067,0.0709743,0.1419067   h0.6385727c0.0472908,0,0.0945816-0.0236435,0.118227-0.0709343l1.2535381-2.4124222h0.449337v2.4124222   c0,0.0236435,0.0236816,0.0709343,0.0709724,0.0709343h0.5676384c0.0472908,0,0.0709362-0.0236435,0.0709362-0.0709343V39.882061   C31.3837051,39.8111267,31.3600597,39.7874794,31.2890854,39.7874794z M30.6978035,43.42976h-0.3784008   c-1.6319008,0-1.5136757-3.0746422-0.0709362-3.0746422h0.4730186V43.42976H30.6978035z"/>
</g>
</svg>