<?xml version="1.0" encoding="UTF-8"?>
<!-- Generator: Adobe Illustrator 25.0.0, SVG Export Plug-In . SVG Version: 6.00 Build 0)  -->
<svg version="1.2" baseProfile="tiny" xmlns="http://www.w3.org/2000/svg" xmlns:xlink="http://www.w3.org/1999/xlink" x="0px" y="0px" viewBox="0 0 60 85" overflow="visible" xml:space="preserve">
<g id="фоны">
	<rect id="яндекс" fill="#FFE033" width="60" height="85"/>
</g>
<g id="лого">
	<g id="Uslugi">
		<path d="M19.5646553,32.7219162L19.5646553,32.7219162c5.2824135,0,9.5646553,4.2822418,9.5646553,9.5646553l0,0    c0,5.2824135-4.2822418,9.5646553-9.5646553,9.5646553l0,0C14.2822418,51.8512268,10,47.568985,10,42.2865715l0,0    C10,37.004158,14.2822418,32.7219162,19.5646553,32.7219162z"/>
		<path fill="#FFFFFF" d="M20.7896137,38.140976H19.90625c-1.6198425,0-2.4724636,0.8205109-2.4724636,2.0304375    c0,1.3677483,0.5889091,2.0099449,1.7988377,2.8304558l0.9995079,0.6729431l-2.8721294,4.2924805h-2.1458988l2.5776749-3.8395233    c-1.4838886-1.0630455-2.3146467-2.0939789-2.3146467-3.84021c0-2.1882553,1.5255613-3.6823921,4.41887-3.6823921h2.8721294    v11.3518753h-1.9785156C20.7896156,47.9570427,20.7896156,38.140976,20.7896137,38.140976z"/>
		<path fill="#242729" d="M40.0603447,32.7219162c5.2824135,0,9.5646553,4.2822418,9.5646553,9.5646553    s-4.2822418,9.5646553-9.5646553,9.5646553c-4.2023811,0-7.7717667-2.7101746-9.0556736-6.4780426    c-0.3299694-0.9683571-0.5089817-2.0065804-0.5089817-3.0866127    C30.4956894,37.004158,34.7779312,32.7219162,40.0603447,32.7219162z"/>
		<path fill="#242729" d="M10,32.7219162"/>
		<path fill="#242729" d="M10,32.7219162"/>
		<path fill="#242729" d="M10,32.7219162"/>
		<path fill="#242729" d="M10,32.7219162"/>
		<path fill="#242729" d="M10,32.7219162"/>
		<path fill="#242729" d="M10,32.7219162"/>
		<path fill="#ED7647" d="M49.3733978,40.1139603c0,0-1.1753502-5.3680382-5.8983154-6.7924271l-5.5169945,3.0198288    c-2.570034,1.4067535-3.4011726,4.7591476-1.6887054,7.1364365c0.0273552,0.0379791,0.055275,0.0760841,0.0837631,0.114315    c2.5262718,3.3905296,7.571743,0,7.571743,0L49.3733978,40.1139603z"/>
		<path fill="#FBE47E" d="M35.6209145,42.286232c3.0689583-2.0522652,7.1794548-3.7919235,9.1286163,0.3728447    s-1.4993553,6.0308456-1.4993553,6.0308456l-5.097805,3.1613045c-5.5468521-0.9892769-7.1476994-6.4780426-7.1476994-6.4780426    L35.6209145,42.286232"/>
	</g>
</g>
</svg>