<?xml version="1.0" encoding="UTF-8"?>
<!-- Generator: Adobe Illustrator 22.0.0, SVG Export Plug-In . SVG Version: 6.00 Build 0)  -->
<svg version="1.0" id="Направляющие" xmlns="http://www.w3.org/2000/svg" xmlns:xlink="http://www.w3.org/1999/xlink" x="0px" y="0px" viewBox="0 0 60 85" enable-background="new 0 0 60 85" xml:space="preserve">
<g id="ок">
	<rect id="canvas_background_4_" x="0.1" y="0" fill="#E67E17" width="60" height="85"/>
</g>
<g id="кубок">
	<g>
		<g>
			<path fill="#FFFFFF" d="M40.4,29.5c0-1.1,0.1-2.3,0.1-3.4H19.7c0,1.1,0,2.2,0.1,3.4h-5.8v1c0,5.7,1,12.2,8.3,16.4     c0.9,0.5,2.1,1,3.3,1.3c0.9,0.9,2.1,1.5,3.5,1.7v1.5c0,3-2.4,5.4-5.4,5.4h-1.4v2H29h2h6.8v-2h-1.4c-3,0-5.4-2.4-5.4-5.4v-1.5     c1.3-0.2,2.5-0.8,3.5-1.7c1.2-0.3,2.4-0.7,3.3-1.3c7.4-4.3,8.3-10.7,8.3-16.4v-1H40.4z M16,31.5h3.8c0.3,4.8,1.2,9.7,3.5,13.6     C17.3,41.7,16.1,36.6,16,31.5z M36.8,45.2c2.3-4,3.2-8.8,3.5-13.6h3.8C44,36.6,42.8,41.7,36.8,45.2z"/>
		</g>
	</g>
</g>
</svg>