<?xml version="1.0" encoding="UTF-8"?>
<!-- Generator: Adobe Illustrator 25.0.0, SVG Export Plug-In . SVG Version: 6.00 Build 0)  -->
<svg version="1.2" baseProfile="tiny" xmlns="http://www.w3.org/2000/svg" xmlns:xlink="http://www.w3.org/1999/xlink" x="0px" y="0px" viewBox="0 0 60 85" overflow="visible" xml:space="preserve">
<g id="фоны">
	<g id="Discord">
		<rect fill="#7289DA" width="60" height="85"/>
	</g>
</g>
<g id="иконки">
	<g id="реакции">
		<polygon fill="#99E1FF" points="39.6192932,33.6823158 39.6192932,37.4231491 41.7569122,37.4231491 41.7569122,39.5607719     43.8945351,37.4231491 46.0321541,37.4231491 46.0321541,33.6823158   "/>
		<path fill="#EF476F" d="M31.0955296,52.3426743L30,53.5269165l-1.0955296-1.1842422    c-0.604948-0.65411-1.5861149-0.65411-2.191597,0c-0.6049461,0.65411-0.6049461,1.7149048,0,2.3690186L30,58.2649536    l3.2871284-3.5532608c0.6049461-0.6541138,0.6049461-1.7149086,0-2.3690186    C32.6816444,51.6885643,31.7010117,51.6885643,31.0955296,52.3426743z"/>
		<rect x="14.5022497" y="33.6823158" fill="#2C618F" width="6.9472675" height="7.4816723"/>
		<circle fill="#26547C" cx="39.6192932" cy="55.592926" r="1.0688103"/>
		<circle fill="#26547C" cx="44.4289398" cy="54.5241165" r="1.0688103"/>
		<polygon fill="#2C618F" points="40.6881027,49.7144699 40.6881027,51.8520889 45.4977493,50.7832794 45.4977493,48.6456604   "/>
		<path fill="#2C618F" d="M19.3118973,51.3176842v-1.0688095h-3.2064323v1.0688095h-1.6032152    c-0.2949915,0-0.5344048,0.2394142-0.5344048,0.5344048v4.2752419c0,0.2949905,0.2394133,0.5344048,0.5344048,0.5344048h6.4128618    c0.2949924,0,0.5344048-0.2394142,0.5344048-0.5344048v-4.2752419c0-0.2949905-0.2394123-0.5344048-0.5344048-0.5344048    H19.3118973z"/>
		<path fill="#99E1FF" d="M17.7086811,55.0585213L17.7086811,55.0585213c-0.590517,0-1.0688114-0.4782906-1.0688114-1.0688095l0,0    c0-0.590519,0.4782944-1.0688095,1.0688114-1.0688095l0,0c0.590517,0,1.0688095,0.4782906,1.0688095,1.0688095l0,0    C18.7774906,54.5802307,18.2991982,55.0585213,17.7086811,55.0585213z"/>
		<g>
			<rect x="19.3118973" y="34.7511253" fill="#99E1FF" width="1.0688103" height="1.0688103"/>
		</g>
		<g>
			<rect x="19.3118973" y="36.8887444" fill="#99E1FF" width="1.0688103" height="1.0688103"/>
		</g>
		<g>
			<rect x="19.3118973" y="39.0263672" fill="#99E1FF" width="1.0688103" height="1.0688103"/>
		</g>
		<g>
			<rect x="15.5710602" y="34.7511253" fill="#99E1FF" width="1.0688103" height="1.0688103"/>
		</g>
		<g>
			<rect x="15.5710602" y="36.8887444" fill="#99E1FF" width="1.0688103" height="1.0688103"/>
		</g>
		<g>
			<rect x="15.5710602" y="39.0263672" fill="#99E1FF" width="1.0688103" height="1.0688103"/>
		</g>
		<path fill="#EF476F" d="M23.5972919,29.6288509l0.0427513,0.4782925c0.0993996,1.1142349,1.0944614,1.9719543,2.2893925,1.9719543    H26.1945c0.6092224,0,1.193327-0.2265873,1.6240578-0.6300621l0.5573845-0.5215797    c0.4307308-0.4029427,1.0148354-0.62953,1.6240578-0.62953l0,0c0.6092224,0,1.193327,0.2265873,1.6240578,0.630064    l0.5573845,0.5215797c0.431263,0.4029408,1.0153694,0.629528,1.6245918,0.629528h0.2650642    c1.194931,0,2.189991-0.8571854,2.2893906-1.9719543l0.0427551-0.4782925    c0.1384087-1.5577908-1.1751595-2.8938046-2.8451729-2.8938046h-7.1161423    C24.7719135,26.7350464,23.4583473,28.0710602,23.5972919,29.6288509z"/>
		<g>
			<g>
				<path fill="#E8E8E8" d="M34.2752419,30.4758835L34.2752419,30.4758835c-0.2949905,0-0.5344048-0.2394142-0.5344048-0.5344048      l0,0c0-0.2949924,0.2394142-0.5344048,0.5344048-0.5344048l0,0c0.2949905,0,0.5344048,0.2394123,0.5344048,0.5344048l0,0      C34.8096466,30.2364693,34.5702324,30.4758835,34.2752419,30.4758835z"/>
			</g>
		</g>
		<g>
			<g>
				<path fill="#E8E8E8" d="M32.6720276,29.407074L32.6720276,29.407074c-0.2949905,0-0.5344086-0.2394142-0.5344086-0.5344067l0,0      c0-0.2949905,0.239418-0.5344048,0.5344086-0.5344048l0,0c0.2949905,0,0.5344048,0.2394142,0.5344048,0.5344048l0,0      C33.2064323,29.1676598,32.9670181,29.407074,32.6720276,29.407074z"/>
			</g>
		</g>
		<polygon fill="#E8E8E8" points="27.8623791,28.8726673 26.7935696,28.8726673 26.7935696,27.8038578 25.7247581,27.8038578     25.7247581,28.8726673 24.6559486,28.8726673 24.6559486,29.9414787 25.7247581,29.9414787 25.7247581,31.0102882     26.7935696,31.0102882 26.7935696,29.9414787 27.8623791,29.9414787   "/>
		<path fill="#3D3D3D" d="M39.9666557,31.6729507c-0.5664673-0.484705-1.1735535-0.9250546-1.8052177-1.3103619    l-0.5563164,0.9122295c0.5830345,0.355381,1.1436272,0.7631302,1.6668091,1.2104301L39.9666557,31.6729507z"/>
		<path fill="#3D3D3D" d="M22.2185249,30.7201061c-0.6594543,0.446228-1.285778,0.9533787-1.8607979,1.5080929l0.7417545,0.7690086    c0.5311985-0.5119629,1.1088905-0.9800987,1.7181129-1.3921261L22.2185249,30.7201061z"/>
		<path fill="#3D3D3D" d="M17.8080807,48.9021721l0.9373455-0.5135612c-1.0276604-1.874157-1.5711498-4.003231-1.5711498-6.1558151    h-1.0688114C16.1054649,44.5644073,16.6943798,46.8708992,17.8080807,48.9021721z"/>
		<path fill="#3D3D3D" d="M25.38274,54.202404c-0.9004726-0.3473625-1.7630024-0.7989349-2.5646114-1.3424263l-0.5996017,0.8849754    c0.8684082,0.5883789,1.8036175,1.0778923,2.7794418,1.4541168L25.38274,54.202404z"/>
		<path fill="#3D3D3D" d="M34.61726,54.202404l0.3853073,0.996666c1.4135017-0.5456276,2.7222595-1.3162384,3.8904686-2.2904587    l-0.6845703-0.8203125C37.1300316,52.9871674,35.9217453,53.6984596,34.61726,54.202404z"/>
		<path fill="#3D3D3D" d="M42.8257256,42.2327957c0,1.7838478-0.3591232,3.5094414-1.0672112,5.130291l0.9795685,0.4280586    c0.7674026-1.7565918,1.1564522-3.6270103,1.1564522-5.5583496H42.8257256z"/>
		<path fill="#3D3D3D" d="M46.0321541,33.1479111h-6.4128609c-0.2949905,0-0.5344048,0.2388763-0.5344048,0.5344048v3.7408333    c0,0.2955284,0.2394142,0.5344086,0.5344048,0.5344086h1.6032143v1.6032143c0,0.2159004,0.130394,0.4114914,0.329731,0.4937897    c0.0662651,0.0277901,0.1357346,0.0406151,0.2046738,0.0406151c0.1389465,0,0.275753-0.0545082,0.3778267-0.1565819    l1.981041-1.9810371h1.9163742c0.2949905,0,0.5344048-0.2388802,0.5344048-0.5344086v-3.7408333    C46.5665588,33.3867874,46.3271446,33.1479111,46.0321541,33.1479111z M45.4977493,36.8887444h-1.6032143    c-0.1416168,0-0.2778931,0.0561142-0.3778267,0.1565819l-1.2253876,1.2253914v-0.8475685    c0-0.2955246-0.239418-0.5344048-0.5344086-0.5344048H40.153698v-2.6720238h5.3440514V36.8887444z"/>
		<path fill="#3D3D3D" d="M32.191597,51.3176842c-0.564333,0-1.0928593,0.2351379-1.4877853,0.6621284l0,0L30,52.7402725    l-0.7032776-0.7604599c-0.3949261-0.4269905-0.9234524-0.6621284-1.4883175-0.6621284    c-0.564867,0-1.0928593,0.2351379-1.4883194,0.6621284c-0.7893162,0.853447-0.7893162,2.2412949,0,3.0942078l3.2871265,3.5532608    C29.7087498,58.7373657,29.8509007,58.7993584,30,58.7993584s0.2912502-0.0619926,0.3922539-0.1715431l3.2871284-3.5532608    c0.7893143-0.8529129,0.7893143-2.2407608,0-3.0942078C33.2844543,51.5528221,32.755928,51.3176842,32.191597,51.3176842z     M32.8948746,54.3488312L30,57.4777756l-2.8948727-3.1289444c-0.4189739-0.4531746-0.4189739-1.1901207,0-1.6432953    c0.1902485-0.2057457,0.4403496-0.3190384,0.7032776-0.3190384s0.5130272,0.1132927,0.7032776,0.3190384l1.0955296,1.1847763    c0.2025394,0.2191048,0.5825024,0.2191048,0.7850418,0l1.0955296-1.1847763c0.3804989-0.4114914,1.0260563-0.4114914,1.4065571,0    C33.3138466,53.1587105,33.3138466,53.8956566,32.8948746,54.3488312z"/>
		<path fill="#3D3D3D" d="M40.153698,49.7144699v2.137619v2.2359505c-0.1678009-0.0598526-0.3462944-0.0983276-0.5344048-0.0983276    c-0.8839073,0-1.6032143,0.7193108-1.6032143,1.6032143c0,0.8839073,0.7193069,1.6032181,1.6032143,1.6032181    s1.6032143-0.7193108,1.6032143-1.6032181v-3.3122406l3.7408371-0.8315353v1.5695496    c-0.1678009-0.0593224-0.3462944-0.0977974-0.5344048-0.0977974c-0.8839073,0-1.6032143,0.7193069-1.6032143,1.6032143    s0.7193069,1.6032143,1.6032143,1.6032143s1.6032143-0.7193069,1.6032143-1.6032143v-3.7408371v-2.137619    c0-0.1624603-0.0737457-0.3153-0.2004013-0.4168358c-0.1261177-0.1010017-0.2912483-0.1389465-0.4499664-0.104744    l-4.8096466,1.0688095C40.3279152,49.2473984,40.153698,49.4638329,40.153698,49.7144699z M39.6192932,56.1273308    c-0.2944565,0-0.5344048-0.2394142-0.5344048-0.5344048s0.2399483-0.5344048,0.5344048-0.5344048    s0.5344048,0.2394142,0.5344048,0.5344048S39.9137497,56.1273308,39.6192932,56.1273308z M44.4289398,55.0585213    c-0.2944565,0-0.5344048-0.2394142-0.5344048-0.5344048s0.2399483-0.5344048,0.5344048-0.5344048    s0.5344048,0.2394142,0.5344048,0.5344048S44.7233963,55.0585213,44.4289398,55.0585213z M41.2225075,50.1430626    l3.7408371-0.8310013v1.0426254l-3.7408371,0.8310013V50.1430626z"/>
		<path fill="#3D3D3D" d="M14.5022497,57.1961441h6.4128618c0.5894489,0,1.0688114-0.4793625,1.0688114-1.0688133v-4.2752419    c0-0.589447-0.4793625-1.0688095-1.0688114-1.0688095H19.846302v-0.5344048c0-0.2955246-0.2394142-0.5344048-0.5344048-0.5344048    h-3.2064323c-0.2949915,0-0.5344048,0.2388802-0.5344048,0.5344048v0.5344048h-1.0688105    c-0.5894489,0-1.0688105,0.4793625-1.0688105,1.0688095v4.2752419    C13.4334393,56.7167816,13.9128008,57.1961441,14.5022497,57.1961441z M14.5022497,51.8520889h1.6032152    c0.2949924,0,0.5344048-0.2388763,0.5344048-0.5344048v-0.5344048h2.1376209v0.5344048    c0,0.2955284,0.2394142,0.5344048,0.5344067,0.5344048h1.6032143v4.2752419h-6.4128618V51.8520889z"/>
		<path fill="#3D3D3D" d="M21.983923,41.1639862v-7.4816704c0-0.2955284-0.2394142-0.5344048-0.5344067-0.5344048h-6.9472666    c-0.2949915,0-0.5344048,0.2388763-0.5344048,0.5344048v7.4816704c0,0.2955284,0.2394133,0.5344048,0.5344048,0.5344048h6.9472666    C21.7445087,41.698391,21.983923,41.4595146,21.983923,41.1639862z M20.9151115,40.6295815h-5.8784561v-6.4128609h5.8784561    V40.6295815z"/>
		<path fill="#3D3D3D" d="M23.1077766,30.154707c0.1245155,1.4017448,1.337616,2.4587955,2.821125,2.4587955h0.2650642    c0.7497711,0,1.456789-0.275219,1.9895916-0.7743511l0.5568485-0.5215797    c0.6594563-0.616703,1.8591976-0.616169,2.5181179-0.0005341l0.5573845,0.5221138    c0.5333385,0.4991322,1.2403545,0.7743511,1.9901257,0.7743511h0.2650642c1.4835091,0,2.6966095-1.0570507,2.8216591-2.4587955    l0.0427551-0.4788284c0.0774879-0.8684082-0.211628-1.7090263-0.8139-2.3679485    c-0.6444931-0.7032776-1.5791702-1.1072884-2.5635414-1.1072884h-7.1161423c-0.9843731,0-1.9185143,0.4040108-2.5630054,1.1078224    c-0.6022758,0.6583862-0.8908539,1.4995403-0.8139,2.3679485L23.1077766,30.154707z M24.6671715,28.0304451    c0.4424877-0.4836369,1.0896511-0.7609921,1.7747574-0.7609921h7.1161385c0.6851082,0,1.3322716,0.2773552,1.7742271,0.7609921    c0.3970604,0.4339371,0.5883789,0.9854431,0.5376091,1.5508442l-0.0427513,0.4788265    c-0.0732117,0.8320694-0.8448906,1.4845772-1.7560539,1.4845772h-0.2650642c-0.4708099,0-0.9293289-0.1768875-1.2590561-0.485239    l-0.5573864-0.5226479c-0.5333385-0.4986-1.2403545-0.7732849-1.9895916-0.7732849s-1.456255,0.2746849-1.9895897,0.773819    l-0.5573845,0.5221138c-0.3297291,0.3083515-0.7882481,0.485239-1.2590599,0.485239h-0.2650642    c-0.9111614,0-1.6828423-0.6525078-1.7571239-1.4845772l-0.0427532-0.4788265    C24.0793247,29.0158882,24.2701073,28.4643822,24.6671715,28.0304451z"/>
	</g>
</g>
</svg>