<?xml version="1.0" encoding="utf-8"?>
<!-- Generator: Adobe Illustrator 25.0.0, SVG Export Plug-In . SVG Version: 6.00 Build 0)  -->
<svg version="1.2" baseProfile="tiny" xmlns="http://www.w3.org/2000/svg" xmlns:xlink="http://www.w3.org/1999/xlink" x="0px"
	 y="0px" viewBox="0 0 60 85" overflow="visible" xml:space="preserve">
<g id="фоны">
	<linearGradient id="_x32_gis_2_" gradientUnits="userSpaceOnUse" x1="4.1266537" y1="23.3201141" x2="52.3272133" y2="59.0511398">
		<stop  offset="0" style="stop-color:#FFFFFF"/>
		<stop  offset="1" style="stop-color:#D1D1D1"/>
	</linearGradient>
	<rect id="_x32_gis" fill-rule="evenodd" fill="url(#_x32_gis_2_)" width="60" height="85"/>
</g>
<g id="лого">
	<g id="_x32_gis_1_">
		<g id="g20" transform="translate(486.8061,62.337)">
			<path id="path22" fill="#AFCA0B" d="M-459.8410034-20.0844288c0-1.0010586-0.1972351-1.9561424-0.5422974-2.8425121
				c-0.0919495,2.9156761-3.1801453,5.1738663-4.9934082,6.6682854h4.539093
				C-460.2028503-17.4001102-459.8410034-18.7012386-459.8410034-20.0844288 M-463.1224976-26.5050449
				c-1.4365845-1.0742226-3.2384644-1.7193489-5.2015381-1.7193489c-4.6844482,0-8.4820557,3.6443481-8.4820557,8.1399651
				s3.7976074,8.1399641,8.4820557,8.1399641c2.1459656,0,4.0996399-0.7697029,5.5925903-2.0302944h-6.1413269l-0.01828-1.7312136
				c3.7001953-3.0867195,5.9687805-5.1743603,5.9687805-7.1908131c0-0.7494335-0.2976074-1.6951256-1.6358032-1.6951256
				c-1.0598755,0-2.0827026,0.5892658-1.8973083,3.0511284h-2.1563721c-0.5398254-2.8543777,1.078186-5.1214657,4.164917-5.1214657
				C-463.9692993-26.6622486-463.5258789-26.6068802-463.1224976-26.5050449"/>
		</g>
		<g id="g24" transform="translate(502.7218,67.422)">
			<path id="path26" fill="#3C3C3B" d="M-467.8887634-27.6831913h2.0065613
				c0.0682068-1.4647579-0.4459229-3.7852364-3.7555847-3.7852364c-2.4351501,0-4.2024536,1.3990097-4.2024536,4.3117199
				c0,0.3949852,0.0173035,2.4356613,0.0173035,3.7031746c0,3.1593895,2.2814026,3.8509865,4.2019653,3.8509865
				c1.149353,0,2.8123474-0.2471752,3.5845337-1.0534611v-5.0359421h-3.7728882v1.8271179h1.6807861v2.2211132
				c-1.2694702,0.4112988-3.5845337,0.5764122-3.5845337-2.2211132v-3.2918758c0-1.9581203,0.9432373-2.6334019,1.9887695-2.6334019
				C-468.643158-29.7901096-467.8887634-29.2631321-467.8887634-27.6831913 M-452.9648438-22.7950592
				c0.0865173-4.5094604-5.2984314-3.0120735-5.2470398-5.5302925c0.0168152-0.8883457,0.6174622-1.4647579,1.5947876-1.4647579
				c1.0455322,0,1.6634827,0.5927238,1.6456909,2.1400394h1.9724426c0.0519104-1.3995037-0.2906799-3.7857304-3.5489197-3.7857304
				c-2.0238953,0-3.6878662,0.9550838-3.7219849,3.0778217c-0.0859985,4.3280334,5.3330688,2.9132042,5.2470398,5.5293045
				c-0.0341187,1.0697727-0.8399048,1.5468197-1.7489929,1.5468197c-1.0628662,0-1.9205627-0.5922318-1.7490234-2.3694191
				h-1.9897461c-0.2224731,2.3531055,0.8581848,4.0324116,3.7219543,4.0324116
				C-454.3707886-19.6188622-452.9989624-20.903183-452.9648438-22.7950592 M-462.0238037-19.767662h-2.0238647v-11.5198326
				h2.0238647V-19.767662z M-462.0238037-19.767662h-2.0238647v-11.5198326h2.0238647V-19.767662z"/>
		</g>
	</g>
</g>
</svg>
