<?xml version="1.0" encoding="utf-8"?>
<!-- Generator: Adobe Illustrator 25.0.0, SVG Export Plug-In . SVG Version: 6.00 Build 0)  -->
<svg version="1.0" xmlns="http://www.w3.org/2000/svg" xmlns:xlink="http://www.w3.org/1999/xlink" x="0px" y="0px"
	 viewBox="0 0 60 85" enable-background="new 0 0 60 85" xml:space="preserve">
<g id="фоны">
	<linearGradient id="Apple_2_" gradientUnits="userSpaceOnUse" x1="4.1266537" y1="23.3201141" x2="52.3272133" y2="59.0511398">
		<stop  offset="0" style="stop-color:#FFFFFF"/>
		<stop  offset="1" style="stop-color:#D1D1D1"/>
	</linearGradient>
	<rect id="Apple" fill-rule="evenodd" clip-rule="evenodd" fill="url(#Apple_2_)" width="60" height="85"/>
</g>
<g id="лого">
	<path id="Apple_1_" fill="#999999" d="M31.3672543,28.945116c2.1292629-2.8064346,5.0894451-2.820116,5.0894451-2.820116
		s0.4403191,2.638525-1.6749916,5.1802654c-2.2586288,2.7140141-4.8258686,2.2699108-4.8258686,2.2699108
		S29.4737797,31.4406986,31.3672543,28.945116z M30.226656,35.4234543c1.0954018,0,3.1284084-1.5057526,5.7746525-1.5057526
		c4.5550499,0,6.3470039,3.2412186,6.3470039,3.2412186s-3.5047417,1.7919006-3.5047417,6.1398621
		c0,4.9048691,4.3659554,6.5952454,4.3659554,6.5952454s-3.0519638,8.5901375-7.174305,8.5901375
		c-1.8933678,0-3.3653641-1.2759285-5.3603115-1.2759285c-2.0330086,0-4.0504723,1.3235245-5.3644638,1.3235245
		c-3.7643242,0.000103-8.5199718-8.1485405-8.5199718-14.6986961c0-6.4444275,4.0253448-9.8250732,7.8009548-9.8250732
		C27.0459137,34.0079918,28.9506226,35.4234543,30.226656,35.4234543L30.226656,35.4234543z"/>
</g>
</svg>
