<?xml version="1.0" encoding="utf-8"?>
<!-- Generator: Adobe Illustrator 22.0.0, SVG Export Plug-In . SVG Version: 6.00 Build 0)  -->
<svg version="1.0" id="Направляющие" xmlns="http://www.w3.org/2000/svg" xmlns:xlink="http://www.w3.org/1999/xlink"
	 x="0px" y="0px" viewBox="0 0 60 85" enable-background="new 0 0 60 85" xml:space="preserve">
<g>
	<title>background</title>
	<rect id="canvas_background" fill="#FF664A" width="60" height="85"/>
</g>
<g>
	<title>Layer 1</title>
	<g id="svg_10">
		<path id="svg_6" fill="#FFFFFF" d="M17.3,45.6c-0.5,0.8-1.2,1.2-2,1.4c-1.8,0.4-3.5-0.3-4.5-1.9c-1.3-2.1-1-5.1,0.7-6.7
			c1.2-1.2,2.6-1.5,4.2-1c0.7,0.2,1,0.5,1.5,1.2c0-0.2,0.1-0.4,0.1-0.6c0.1-0.5,0.4-0.8,0.9-0.9c0.3-0.1,0.7-0.1,1,0
			c0.5,0.1,0.8,0.5,0.9,0.9c0.1,0.3,0.1,0.6,0.1,0.8c0,2.3,0,4.5,0,6.8c0,1.3-0.7,1.9-2,1.6c-0.5-0.1-0.8-0.4-0.9-0.9
			C17.3,46.1,17.3,45.9,17.3,45.6z M16.7,42.3c-0.1-0.4-0.1-0.7-0.2-1c-0.2-0.8-0.7-1.1-1.5-1.2c-0.8,0-1.4,0.3-1.7,1
			c-0.3,0.8-0.3,1.7,0,2.5c0.3,0.7,0.9,1,1.7,1c0.7,0,1.2-0.5,1.4-1.1C16.5,43,16.6,42.6,16.7,42.3z"/>
		<path id="svg_7" fill="#FFFFFF" d="M25.3,36.8c1,0,2.1,0.2,3,0.9c0.4,0.3,0.6,0.7,0.9,1.1c0.2,0.4,0.1,0.8-0.4,1.1
			c-0.6,0.4-1.2,0.4-1.8-0.1c-0.6-0.5-1.2-0.7-2-0.6c-0.3,0.1-0.7,0.2-0.7,0.6c0,0.4,0.3,0.6,0.6,0.7c0.6,0.2,1.3,0.4,1.9,0.7
			c0.7,0.3,1.3,0.5,1.9,1c1.4,1.2,1.3,3.1-0.2,4.2c-1.7,1.2-4.7,1.2-6.4,0.1c-0.5-0.3-0.9-0.7-1.1-1.2c-0.2-0.5-0.1-1.1,0.3-1.4
			c0.6-0.4,1.2-0.4,1.6,0.1c0.5,0.5,1,0.9,1.7,1c0.4,0,0.9,0,1.4,0c0.3,0,0.5-0.2,0.6-0.6c0-0.3-0.2-0.6-0.5-0.7
			c-0.7-0.2-1.3-0.4-2-0.7c-0.6-0.3-1.3-0.5-1.8-0.9c-1.5-0.9-1.6-3.2,0-4.3C23.2,37.1,24.1,36.9,25.3,36.8z"/>
		<path id="svg_8" fill="#FFFFFF" d="M33.3,39.9c0.5-0.6,1.1-1.2,1.6-1.8c0.2-0.2,0.4-0.5,0.7-0.7c0.6-0.5,1.3-0.4,1.9,0.2
			c0.5,0.5,0.5,1.1-0.1,1.7c-0.6,0.7-1.2,1.3-1.8,2c-0.2,0.2-0.2,0.3,0,0.5c0.8,1.1,1.6,2.3,2.4,3.4c0.6,0.9,0.1,1.9-0.9,2
			c-0.6,0.1-1-0.3-1.4-0.7c-0.7-1-1.4-2-2-3c-0.1-0.1-0.2-0.2-0.3-0.3c0,0.1,0,0.3,0,0.4c0,0.8,0,1.7-0.1,2.5
			c-0.1,0.8-0.6,1.1-1.4,1.2c-0.8,0-1.3-0.4-1.4-1.1c0-0.3-0.1-0.6-0.1-0.9c0-2.1,0-4.2,0-6.3c0-0.3,0-0.6,0.1-0.9
			c0.1-0.7,0.6-1.1,1.4-1.1c0.9,0,1.3,0.3,1.4,1.1c0.1,0.5,0,1,0,1.4c0,0.2,0,0.3,0,0.5C33.2,39.9,33.2,39.9,33.3,39.9z"/>
		<path id="svg_9" fill="#FFFFFF" d="M42.2,42.1c-1.1-0.2-1.1-0.2-1.3,0.8c-0.2,1.4-0.4,2.8-0.7,4.1c-0.1,0.5-0.3,0.9-0.6,1.3
			c-0.4,0.5-0.9,0.7-1.6,0.8c-0.3,0-0.6-0.1-0.7-0.5c-0.1-0.3,0-0.6,0.3-0.7c0.8-0.3,1.1-0.9,1.2-1.7c0.2-1.2,0.4-2.5,0.5-3.7
			c0-0.1,0-0.2,0-0.3c-0.1,0-0.1,0-0.2,0c-0.2,0-0.6,0.1-0.6-0.3c0-0.5,0.2-0.7,0.7-0.8c0.2,0,0.3-0.1,0.3-0.3
			c0.3-1.7,1.8-2.1,3-1.9c0.3,0,0.3,0.3,0.3,0.5c0,0.2,0,0.6-0.4,0.6c-0.2,0-0.3,0-0.5,0c-0.7,0-1,0.3-1,1.1c0.6,0,1.2,0,1.8,0
			c0.4,0,0.6,0.1,0.7,0.4c0.5-0.2,1-0.4,1.6-0.5c0.6-0.1,1.1,0.2,1.4,0.7c0.2-0.1,0.3-0.2,0.4-0.3c0.4-0.3,0.9-0.5,1.5-0.5
			c0.8,0,1.3,0.5,1.2,1.2c0,0.9-0.2,1.7-0.3,2.6c-0.1,0.7-0.2,1.4-0.3,2.1c0,0.3-0.2,0.5-0.5,0.5c-0.9,0-1,0-0.9-0.9
			c0.2-1,0.3-2.1,0.5-3.1c0-0.2,0-0.3,0-0.5c0-0.5-0.3-0.8-0.8-0.6c-0.4,0.1-0.7,0.4-0.8,0.9c-0.1,1.2-0.3,2.5-0.5,3.7
			c-0.1,0.5-0.2,0.6-0.7,0.6c-0.1,0-0.2,0-0.3,0c-0.4,0-0.5-0.1-0.5-0.5c0.1-1.1,0.3-2.2,0.5-3.3c0-0.3,0.1-0.6,0.1-0.9
			c0-0.3-0.2-0.5-0.5-0.5c-0.5,0-1,0.4-1.1,0.9c-0.2,1.2-0.3,2.4-0.5,3.6c-0.1,0.6-0.9,0.9-1.4,0.6c-0.1-0.1-0.1-0.3-0.1-0.5
			c0.1-0.8,0.2-1.7,0.4-2.5C42,43.5,42.1,42.8,42.2,42.1z"/>
	</g>
</g>
</svg>
