<?xml version="1.0" encoding="utf-8"?>
<!-- Generator: Adobe Illustrator 25.0.0, SVG Export Plug-In . SVG Version: 6.00 Build 0)  -->
<svg version="1.2" baseProfile="tiny" xmlns="http://www.w3.org/2000/svg" xmlns:xlink="http://www.w3.org/1999/xlink" x="0px"
	 y="0px" viewBox="0 0 60 85" overflow="visible" xml:space="preserve">
<g id="фоны">
	
		<linearGradient id="clubhouse_2_" gradientUnits="userSpaceOnUse" x1="4.1266537" y1="23.3201141" x2="52.3272133" y2="59.0511398">
		<stop  offset="0" style="stop-color:#B8B8B8"/>
		<stop  offset="1" style="stop-color:#696969"/>
	</linearGradient>
	<rect id="clubhouse" fill-rule="evenodd" fill="url(#clubhouse_2_)" width="60" height="85"/>
</g>
<g id="лого">
	<g id="clubhouse_1_">
		<g transform="translate(0.000000,538.000000) scale(0.100000,-0.100000)">
			<path d="M165.6273346,5117.4003906c-2.24646-2.9072266-6.9376221-12.4873047-8.4572906-17.2446289
				c-2.2464752-6.8056641-4.0304413-17.2451172-4.3607941-25.3061523c-0.2642975-6.5410156-0.0660706-8.9194336,1.0571594-13.875
				c2.4446869-10.175293,7.4001312-18.9628906,16.0556488-28.3452148c1.453598-1.5859375,1.5196686-3.0395508,0.1982269-4.7573242
				c-1.3214569-1.7177734-1.3214569-3.3696289-0.0660706-2.246582c0.5285797,0.3964844,1.6518097,0.6611328,2.5107574,0.5288086
				c1.1893005-0.1323242,1.5196686-0.5947266,1.5196686-2.1806641c0-1.5854492,0.3964386-2.1142578,1.9821777-2.7089844
				c1.5196686-0.5283203,2.0482483-1.1889648,2.1804047-2.7749023c0.1321411-1.1894531,0.4625092-2.1142578,0.7267914-2.1142578
				c1.3214569,0,6.6733398,6.7392578,9.2501678,11.6948242l2.907196,5.3520508l7.0697784,3.3696289
				c3.8982849,1.8500977,7.3340607,3.3696289,7.6644287,3.3696289s1.12323,0.5947266,1.7839661,1.3212891
				c1.3214417,1.5859375,3.1714783,1.6518555,9.3162384,0.3305664c2.5107574-0.5288086,4.8233032-0.7929688,5.1536713-0.5947266
				c1.12323,0.7270508,3.8322144-0.3964844,3.8322144-1.5854492c0-2.3129883,1.0571594-2.9072266,5.7483215-3.1054688
				c3.7661285-0.1323242,5.153656-0.5288086,7.9287109-2.246582c3.5679169-2.1806641,4.8893738-4.559082,3.1054077-5.550293
				c-0.7267914-0.3964844-0.9250031-1.1230469-0.6607208-2.1801758c0.330368-1.1894531,0-1.7841797-1.2553864-2.6430664
				c-1.2553711-0.8588867-1.6518097-1.6518555-1.6518097-3.5678711s-0.330368-2.6430664-1.2553864-2.9731445
				c-0.7267914-0.1982422-1.453598-0.7929688-1.6518097-1.3217773c-0.1982117-0.5283203-0.7928772-0.9907227-1.3214569-0.9907227
				c-1.2553711,0-5.0875854-3.237793-4.6911469-3.9643555c0.1982117-0.3305664,0.4625092-2.0483398,0.6607208-3.8984375
				l0.2642822-3.3696289l-1.7839508,0.3964844c-1.651825,0.4624023-4.8233032,2.4443359-8.7876587,5.6162109
				c-0.9250183,0.7265625-2.8411255,1.4536133-4.1625824,1.5195312c-2.1804047,0.1982422-2.4446869,0.065918-2.1804047-0.9912109
				c0.1982269-0.7265625,0.0660706-1.1230469-0.1982117-0.9248047c-0.330368,0.1982422-0.9250183-0.1982422-1.2553864-0.925293
				c-0.9910889-1.7836914-0.9250183-2.0478516,0.5946655-2.0478516c0.7267914,0,1.3214417-0.1982422,1.3214417-0.4628906
				c0-0.3300781,0.6607361-1.3212891,1.5196686-2.2460938c1.0571747-1.3217773,2.3786163-1.8500977,5.0876007-2.246582
				c2.8411255-0.3964844,4.0965118-0.9912109,5.7483215-2.6430664c1.1893005-1.1894531,2.1803894-2.5766602,2.1803894-3.0390625
				c0.0660858-0.5288086,1.5857544-1.6518555,3.5018616-2.5112305c1.9161072-0.9248047,4.1625671-2.3125,5.0875854-3.1713867
				s1.7839661-1.5195312,2.0482635-1.5195312c0.1982117,0,0.7928619-1.1894531,1.2553711-2.6430664
				s1.2553864-2.9731445,1.7839661-3.3696289c0.4625092-0.3964844,0.8589478-1.0571289,0.8589478-1.4536133
				c0-0.9912109,2.9732666-3.5678711,3.8322144-3.2373047c0.3964233,0.1318359,1.3214417-0.1323242,2.1143188-0.5288086
				c1.3214569-0.7265625,1.3214569-0.8588867,0.3964386-2.3125c-0.5946503-0.9248047-1.0571594-2.3125-1.0571594-3.1054688
				c0-1.9819336-1.453598-6.0126953-2.5768433-7.3999023c-0.4625092-0.5947266-0.6607208-1.0571289-0.3964386-1.0571289
				c0.2642975,0-0.5946503-1.4536133-1.9161072-3.237793c-1.3214417-1.7836914-2.3786011-3.5678711-2.3786011-3.9643555
				s-0.2642975-0.7265625-0.6607361-0.7265625c-2.1803894,0-4.6911621-2.5771484-4.4929352-4.6254883
				c0.1321411-1.0571289-0.1321411-1.5854492-0.6607361-1.4536133c-0.3964233,0.0664062-0.8589325-0.1318359-0.8589325-0.5283203
				c-0.330368-1.8500977-0.1982269-2.3125,0.5946503-2.3125c1.9161072,0,0.5946503-1.2553711-1.3875275-1.2553711
				c-1.6518097-0.065918-2.1803894-0.3964844-2.3125458-1.5195312c-0.1321411-0.925293-0.5285797-1.3217773-1.1893005-1.0576172
				c-0.7268066,0.2646484-0.9250183-0.3959961-0.9250183-2.9731445c0-1.8500977-0.3964386-3.7661133-0.7928772-4.2285156
				c-0.4625092-0.4624023-0.9250183-1.7177734-1.0571594-2.7749023c-0.1321411-1.1235352-0.7267914-2.7089844-1.3875275-3.6342773
				c-0.6607208-0.9248047-1.3875275-2.1801758-1.6518097-2.7089844c-0.1982269-0.5283203-0.2642975-0.3300781-0.1321564,0.5288086
				c0.1982269,0.9912109,0,1.4536133-0.4625092,1.2553711c-0.4624939-0.1323242-0.8589325-0.925293-0.9910889-1.7177734
				c-0.1982117-1.0576172,0.1321564-1.5859375,1.1232452-1.8500977c0.7928619-0.1982422,1.3875275-0.7270508,1.3875275-1.1894531
				c0-1.1230469,2.0482483-1.8500977,3.5679169-1.2553711c0.9910889,0.3964844,1.0571594-0.065918,0.6607208-4.4267578
				c-0.1982117-2.7089844-0.5285797-5.2861328-0.6607208-5.8144531c-0.4625092-1.5195312-2.0482483,0.3964844-2.8411255,3.5678711
				c-0.7267914,3.0395508-2.0482483,4.0302734-2.0482483,1.6518555c0-0.7270508-0.3964386-1.3212891-0.8589478-1.3212891
				s-1.5857391-1.4536133-2.5107574-3.3037109c-0.8589478-1.7841797-1.9821777-3.3037109-2.4446869-3.3037109
				s-0.9910889-0.5288086-1.1893158-1.1235352c-0.7267914-2.2460938-1.3875275-3.8320312-2.7089691-6.8051758
				c-1.1232452-2.4448242-1.9161072-5.9467773-2.3125458-10.9018555c-0.0660706-0.3964844-0.8589478-0.6611328-1.7839661-0.6611328
				c-1.0571594,0-1.6518097-0.3300781-1.5857391-0.8588867c0.2642822-0.9907227-0.5946503-1.0571289-1.651825,0
				c-0.3964233,0.3964844-0.9910889,0.5947266-1.1893005,0.3305664c-0.7928772-0.7929688,0.9910889-2.1806641,3.7661438-3.0395508
				c3.0393372-0.9248047,3.1714783-2.378418,0.1982117-2.378418c-2.1143188,0-6.8715515-2.1142578-6.8715515-3.0395508
				c0-0.3300781-0.4625092-0.3964844-1.0571594-0.1318359c-0.8589478,0.3300781-0.9250183,0-0.5946503-1.8500977
				c0.3964233-2.1806641,0.3964233-2.246582-2.0482635-2.4448242c-2.907196-0.1982422-3.0393372-0.2641602-3.2375488-2.378418
				c-0.330368-2.7089844-0.7268066-2.9736328-3.7661438-2.3125c-1.7839661,0.4624023-2.9732666,0.3964844-3.4357758-0.0664062
				c-0.4625092-0.4624023-0.4625092-0.6606445,0.0660706-0.6606445c0.3964386,0,0.7267914-0.7265625,0.7267914-1.6518555
				c0-1.3212891-0.2642822-1.5854492-1.1893005-1.3212891c-0.8589478,0.2641602-1.3214569-0.065918-1.651825-0.9912109
				c-0.1982117-0.7265625-0.6607208-1.3212891-0.9910889-1.3212891c-0.3303528,0-0.7928619-0.6606445-1.0571594-1.4536133
				c-0.3964386-1.3217773-0.4625092-1.3876953-1.3214569-0.2641602c-0.4625092,0.6606445-0.6607208,1.5854492-0.5285797,2.0478516
				c0.5285797,1.2553711-1.7839508,1.5200195-3.5679169,0.3964844c-1.3214569-0.7929688-1.651825-0.7929688-2.1804047,0
				c-0.4625092,0.7270508-0.5946503,0.7270508-0.5946503-0.2641602c0-0.6606445-0.6607208-1.3876953-1.453598-1.7177734
				c-0.8589478-0.3305664-1.5196686-1.1235352-1.5196686-1.7841797c0-0.7265625-0.6607208-1.5195312-1.453598-1.9160156
				c-0.8589478-0.3305664-1.5196686-0.9912109-1.5196686-1.4536133s-0.2642975-0.8588867-0.6607361-0.8588867
				c-0.3303528,0-0.6607208,0.3305664-0.6607208,0.6606445c0,0.3964844-0.5285797,0.6606445-1.1893005,0.6606445
				c-0.6607361,0-1.9161072,0.7270508-2.7089844,1.5859375c-1.1893158,1.2553711-1.453598,2.1801758-1.2553864,4.2944336
				c0.1321564,1.9165039,0,2.7089844-0.5946503,2.7089844c-1.12323,0-1.0571594-4.8232422,0.0660706-7.9287109
				c0.5946503-1.5854492,1.2553864-2.2460938,1.9821777-2.1142578c0.9910889,0.1982422,1.0571747,0,0.3964386-1.2553711
				c-1.12323-2.1142578,0.330368-4.3608398,3.9643555-6.2104492c2.4446869-1.2558594,4.9554596-1.7182617,12.2234497-2.3129883
				c5.0215149-0.3959961,9.382309-0.8588867,9.6466064-1.0571289c0.2642822-0.1318359,3.5679169-0.8588867,7.3340607-1.5854492
				c7.5983582-1.3876953,12.8841705-3.237793,16.518158-5.6821289c2.1804047-1.5200195,3.5679321-3.9648438,5.4179688-9.6469727
				c0.3303528-1.1889648,1.7178802-1.6518555,1.7178802-0.6606445c0,0.7929688,3.3036346,2.1806641,4.0304413,1.7177734
				c0.3303528-0.1982422,1.7839508-0.3964844,3.2375488-0.3964844s2.6429138-0.2641602,2.6429138-0.5942383
				c0-0.2646484,0.9250183-0.4628906,1.9821777-0.4628906c2.7089691,0.0664062,5.1536713-2.378418,3.8982849-3.8320312
				c-0.5285797-0.6606445-0.5946503-1.1894531-0.1982117-1.4536133c0.8589325-0.5288086,0.1982117-3.5019531-0.7268066-3.5019531
				c-0.330368,0-0.6607208-0.5947266-0.6607208-1.4536133c0-0.9912109-0.6607361-1.7836914-2.0482635-2.5107422
				c-1.7178802-0.7929688-1.9821777-1.2553711-1.453598-2.1801758c0.4625092-0.8588867,0.330368-1.3876953-0.4625092-1.9824219
				c-0.9910889-0.7265625-1.0571594-0.9907227-0.2642822-2.246582c0.9250183-1.5195312,2.8411255-1.9160156,3.5679169-0.8588867
				c0.1982269,0.3305664,1.2553864,0.5947266,2.3786163,0.5947266c1.9161072-0.065918,1.9821777-0.1982422,1.7839661-2.7749023
				c-0.1321411-1.7177734-0.5285797-2.6430664-0.9910889-2.5766602c-0.6607361,0.1318359-0.6607361-0.1982422-0.1321411-1.3876953
				c0.5946503-1.1894531,0.5285797-1.9160156-0.3964386-3.237793c-0.8589478-1.387207-1.453598-1.6518555-3.1714935-1.3212891
				c-3.1714783,0.4624023-5.4179535-1.5195312-4.7572327-4.2949219l0.4625092-2.1142578h107.6323395h107.6323547v48.1010742
				c0,50.1489258-0.0660706,51.6689453-2.7750549,51.6689453c-0.594635,0-1.1893005,0.5947266-1.3214417,1.4536133
				c-0.1321411,0.9248047-0.7928772,1.5854492-1.8500366,1.8500977c-1.0571594,0.2641602-1.7178955,0.9248047-1.8500366,1.8496094
				c-0.1982117,1.2553711-0.6607361,1.4536133-3.1054077,1.4536133c-1.9161072,0-2.9732666,0.3305664-3.2375793,0.9912109
				c-0.1982117,0.5288086-0.9250183,0.9912109-1.6517944,0.9912109c-0.7268066,0-1.5196838,0.3300781-1.7178955,0.6606445
				c-0.1982117,0.3964844-1.7178955,0.6606445-3.3697205,0.6606445c-2.6428833,0-2.907196,0.1323242-2.907196,1.6518555
				s-0.1982117,1.6518555-3.3036194,1.6518555s-3.3036194,0.1323242-3.3036194,1.6518555s-0.1982422,1.6518555-3.3036499,1.6518555
				c-1.7839661,0-3.3036194,0.3300781-3.3036194,0.6606445c0,0.3964844-0.7268066,0.6606445-1.651825,0.6606445
				s-1.651825-0.2641602-1.651825-0.6606445c0-0.3305664-0.7268066-0.6606445-1.5857239-0.6606445
				c-1.5196838,0-1.651825,0.3300781-1.8500366,3.1713867c-0.1982422,2.5766602-0.3964539,3.1054688-1.5857544,3.3037109
				c-2.4447021,0.3300781-2.6429138,4.8891602-0.528595,10.7700195c2.7750549,7.6640625,4.2947388,23.8520508,3.7661438,39.3789062
				c-0.3303528,7.4663086-0.1982117,10.5717773,0.4625244,12.0913086c0.4624939,1.1894531,0.8589478,3.8325195,0.8589478,6.0126953
				c-0.0660706,3.4360352-0.5946655,4.9555664-4.0964966,12.0913086c-2.2464905,4.4931641-4.4929504,8.5234375-4.9554749,8.9199219
				c-0.5285645,0.4624023-1.12323,1.9160156-1.3875122,3.3696289c-0.2642822,1.3876953-0.9910889,3.0395508-1.651825,3.6337891
				c-0.8589478,0.7929688-1.12323,1.7841797-0.9250183,4.1625977c0.1982117,3.8325195-1.3214417,8.3251953-4.8893738,14.0078125
				c-1.5196533,2.378418-4.4268494,7.5981445-6.4751282,11.5625c-4.2947083,8.3911133-6.9376221,12.0913086-13.2145081,18.5004883
				c-7.2680054,7.3999023-9.2501831,8.6552734-18.1039124,11.496582
				c-10.5055542,3.4355469-14.5359802,3.3696289-13.6109619-0.3305664c0.3964233-1.387207,0.1982117-1.4536133-2.1143188-1.1230469
				c-2.5107727,0.3300781-2.907196,0.1982422-9.712677-3.5678711c-0.7928772-0.4624023-2.7750549-2.0483398-4.3608093-3.5019531
				c-2.1803894-1.9824219-2.7089844-2.7749023-2.0482483-3.1713867c1.2553711-0.8588867,3.8322144-0.1982422,5.0875854,1.1889648
				c0.5946655,0.6611328,1.4536133,1.1235352,1.9161072,0.925293c0.4625244-0.1982422,1.5196838,0.4624023,2.3786316,1.3212891
				c1.3214417,1.4536133,1.6517944,1.5859375,2.24646,0.6606445c0.9910889-1.387207,3.2375488-0.5283203,2.7089844,1.0571289
				c-0.4625244,1.5200195,1.12323,2.1147461,3.2375488,1.1235352c2.8411255-1.3212891,2.6429138-6.9375-0.2642822-9.9111328
				c-1.12323-1.1230469-1.9821777-2.5766602-1.9821777-3.3032227c0-0.6611328-0.3303833-1.7841797-0.6607361-2.4448242
				c-0.3964233-0.6606445-0.7928772-2.0483398-0.9250183-3.1054688c-0.3964233-3.3696289-1.1893005-5.3520508-2.1143188-5.7485352
				c-1.5196838-0.5947266-3.5679321,1.0571289-3.5679321,2.7753906c0,1.2553711-0.2642822,1.4536133-1.3214417,1.1230469
				c-1.651825-0.5288086-3.9643555,0.1982422-3.9643555,1.1894531c0,0.4624023-0.3303833,1.9160156-0.7268066,3.2373047
				c-0.7268066,2.8413086-3.5679321,4.7573242-5.3518982,3.7661133c-1.4535828-0.7924805-3.1714783-0.065918-3.1714783,1.3876953
				c0,0.7265625-0.2642822,1.4536133-0.6607361,1.6518555c-1.0571594,0.6606445-0.7267761,2.6430664,0.7268066,4.559082
				c1.5196838,1.9160156,1.3875427,3.0390625-0.1982117,1.5195312c-0.528595-0.5288086-1.8500366-1.4536133-2.9732666-1.9819336
				c-3.5018616-1.8500977-7.0697632,0.1977539-12.619873,7.3339844c-1.2553711,1.7177734-1.7839661,3.2373047-2.0482483,6.6069336
				l-0.3964539,4.4272461l-2.5768127,0.1982422c-2.2464905,0.1977539-2.5107727,0.065918-2.0482483-0.9912109
				c0.2642822-0.6606445,0.594635-2.9731445,0.7928467-5.0878906l0.3964539-3.8979492l-5.0215149,0.3964844
				c-4.8233032,0.3300781-7.1358643,1.0571289-8.8537598,2.8408203c-0.7267761,0.6606445-0.594635,0.8588867,0.5946655,1.0571289
				c1.2553711,0.1323242,0.9250183,0.5947266-2.3125305,2.7089844c-2.1143494,1.3876953-4.559021,3.237793-5.5501099,4.1625977
				c-2.5107727,2.3125-9.2501831,2.246582-13.0823975-0.065918c-1.453598-0.925293-3.5018463-1.6518555-4.6250763-1.6518555
				c-1.0571594,0-2.5107574-0.4624023-3.1714935-0.9248047c-0.8589478-0.6611328-1.7839508-0.7270508-3.9643555-0.2646484
				c-4.4268646,1.0571289-20.0200195,8.8540039-27.4201508,13.8095703
				c-3.7000732,2.5107422-9.0519562,5.7480469-11.8930817,7.1357422c-2.7750397,1.4536133-7.7304993,4.2944336-11.0341339,6.4086914
				c-18.4342651,11.6953125-21.8700409,13.6772461-24.5129395,14.0078125
				C167.6095276,5119.5810547,167.1470184,5119.3828125,165.6273346,5117.4003906z M286.5402832,5061.1728516
				c4.2947388-1.8500977,8.5233765-4.0966797,9.5144653-4.9555664c2.0482483-1.9160156,3.0393372-1.9160156,3.6340027-0.065918
				c0.3964233,1.387207,0.4624939,1.3212891,1.2553711-0.5288086c0.9910889-2.3125,0.5946655-2.5766602-4.2947083-3.2373047
				c-1.9821777-0.2646484-4.2947388-0.8588867-5.087616-1.3876953c-0.7928467-0.5283203-2.0482483-0.9248047-2.7089539-0.9248047
				c-1.5196838,0-4.9554749,3.0390625-4.4268799,3.8979492c0.1982117,0.3305664-0.3303528,0.7270508-1.12323,0.8588867
				c-1.12323,0.1323242-1.5196838,0.5947266-1.4536133,1.7182617c0,0.9248047-0.3303528,1.4536133-1.0571594,1.4536133
				c-1.2553711,0-7.2679749,5.0214844-7.2679749,6.012207
				C273.5239868,5065.6655273,279.2062378,5064.4101562,286.5402832,5061.1728516z M347.5253601,5049.4116211
				c0-0.8588867,0.4624939-1.3212891,1.2553711-1.3212891c1.2553711,0,2.3125305-1.6518555,1.7178955-2.6430664
				c-0.1982422-0.3300781-0.0660706-0.7265625,0.1982117-0.9248047c1.0571594-0.5947266,0.0660706-3.7001953-1.3875427-4.4931641
				c-1.5196533-0.7924805-12.0912781,0.4628906-12.7520142,1.5200195c-0.1982117,0.3300781-0.9250183,0.5947266-1.651825,0.5947266
				c-0.9910889,0-1.2553711,0.4624023-1.2553711,2.1801758c0,1.1230469,0.3303528,2.5766602,0.6607361,3.1054688
				c0.594635,0.8588867,0.7928772,0.8588867,1.651825-0.2641602c0.4624939-0.6606445,1.1893005-0.9912109,1.5857239-0.7270508
				c0.3964539,0.1982422,0.7268066-0.065918,0.7268066-0.5947266c0-1.6518555,0.7928772-1.2553711,4.2947083,1.9165039
				C346.2038879,5050.9975586,347.5253601,5051.394043,347.5253601,5049.4116211z M299.1601562,5041.0205078
				c0.3964539-1.0571289,0.9250183-2.9731445,1.1893311-4.3608398c0.1982117-1.3212891,0.6607056-2.6425781,0.9910889-2.8408203
				c0.3303528-0.1982422,0.594635-1.3217773,0.594635-2.4448242c0-1.1894531,0.5946655-3.3037109,1.3214722-4.7573242
				c0.7267761-1.387207,1.5196533-3.5678711,1.717865-4.7573242c0.2643127-1.3212891,0.9250183-2.3125,1.651825-2.5107422
				c1.8500366-0.5947266,4.559021-5.2197266,4.559021-7.7963867c0-1.5195312,0.5285645-2.7089844,1.651825-3.7661133
				c2.9732666-2.7749023,5.6161499-9.9111328,3.6339722-9.9111328c-1.0571594,0-11.8930664,18.3022461-11.8930664,20.2182617
				c0,0.4628906-0.3303528,1.0571289-0.6607361,1.2553711c-0.3964233,0.2646484-1.7178955,1.9824219-2.907196,3.9643555
				c-2.24646,3.4360352-3.9643555,5.2197266-9.5144653,9.9770508c-3.1714783,2.7089844-3.1714783,3.4360352-0.1321411,2.3125
				l2.0482483-0.6606445l-0.3964233,2.9072266c-0.4625244,2.7749023-0.3964233,2.8413086,1.0571594,2.5107422
				c1.12323-0.3305664,1.3875122-0.1982422,1.0571594,0.5947266c-0.4624939,1.3212891,0.0660706,1.8500977,1.8500366,1.8500977
				C297.9708557,5042.8046875,298.6976624,5042.2099609,299.1601562,5041.0205078z M335.8304749,4974.4853516
				c1.1893311-0.4624023,4.2286682-3.1054688,6.871582-5.8803711c4.9554443-5.2197266,5.748291-7.0698242,5.6822205-12.6860352
				c-0.0660706-5.0214844-3.3036194-15.5268555-4.7572327-15.5268555c-0.9910889,0-0.9249878,3.3696289,0.3303833,10.0429688
				c0.9910889,5.6162109,0.9910889,5.9462891-0.3303833,10.2412109c-1.3214417,4.4931641-3.1714783,6.9375-7.3340454,9.6464844
				c-3.5018616,2.3789062-8.9197998,0.925293-12.6859436-3.4355469c-1.2554016-1.4536133-2.4447021-2.7089844-2.6429138-2.7089844
				c-0.9250183,0-1.0571594,2.246582-0.2642822,4.1625977c1.1893005,2.9072266,3.1054077,4.4267578,7.1358337,5.8144531
				C332.0643311,4975.6088867,333.0554199,4975.6748047,335.8304749,4974.4853516z M338.6716003,4963.8476562
				c1.7839661-2.7089844,1.8500366-6.8051758,0.2643127-11.5625c-0.7928772-2.3125-1.8500366-6.6074219-2.3786316-9.5146484
				c-1.0571594-6.0786133-2.4446716-9.1181641-6.5411987-14.6020508c-3.8322144-5.0874023-3.8322144-5.6821289,0-5.1538086
				c2.3786316,0.3305664,2.907196,0.1982422,2.6429138-0.5283203c-0.9910889-2.6430664-9.1180115-5.9467773-11.4305725-4.625
				c-0.7268066,0.3964844-1.7178955,0.2641602-2.9732666-0.3964844c-1.8500366-0.925293-2.0482483-0.8588867-3.3696899,0.3964844
				l-1.3214722,1.387207h3.7661438c3.5679321,0,7.7304993,1.3876953,7.7304993,2.5107422
				c0,0.2646484-0.9250183,1.3217773-2.0482483,2.246582c-1.651825,1.5195312-1.8500366,1.9824219-1.2553711,3.1713867
				c0.3964233,0.7270508,1.12323,1.3217773,1.6517944,1.3217773c1.7178955,0,4.7572327,3.3037109,6.2108459,6.6733398
				l1.5196838,3.3696289l-1.5196838,3.9643555c-0.9250183,2.4448242-2.5768433,5.2197266-4.3608093,7.003418
				c-3.1054077,3.3701172-3.5679016,4.7573242-1.5196533,4.7573242c3.3036194,0,6.6072693,2.8413086,7.9287109,6.7397461
				C332.9893494,4965.3671875,336.6894226,4966.8208008,338.6716003,4963.8476562z M309.2032166,4944.6206055
				c-0.7268066-1.3212891-1.3214722-3.0395508-1.3214722-3.9643555c0-0.8588867-0.594635-2.1142578-1.3875122-2.7089844
				c-0.7268066-0.6606445-2.7089844-2.4448242-4.2947388-3.9643555c-1.5857239-1.5859375-3.0393372-2.8413086-3.2375488-2.8413086
				c-0.7928772,0-0.2642822,1.9824219,1.3214417,4.8896484c0.9250183,1.7177734,1.651825,3.9643555,1.651825,5.0214844
				c0,2.5107422,2.4447021,5.2856445,5.2858276,5.8803711
				C310.4585876,4947.6601562,310.7889404,4947.1972656,309.2032166,4944.6206055z M318.1230164,4930.480957
				c0.1982117-0.3964844-0.6607361-1.9819336-1.9161072-3.5678711c-1.3214417-1.5195312-2.3786011-3.1713867-2.3786011-3.5678711
				c0-1.0571289-3.6340027-3.4355469-5.3518982-3.4355469c-1.9821777,0-7.7965698,2.7749023-7.8626404,3.7661133
				c0,1.1230469,3.2375488,3.5014648,4.8893738,3.5014648c0.7268066,0,3.3036194,0.925293,5.682251,1.9165039
				C315.8765564,4931.2080078,317.4622803,4931.472168,318.1230164,4930.480957z M235.3339844,4906.8271484
				c-1.0571594-0.3305664,1.0571594-3.4360352,2.3125458-3.4360352c0.6607208,0,0.7928772-0.3964844,0.5285797-1.4536133
				c-0.3964386-1.0571289-0.2642975-1.3212891,0.5946503-0.9907227c1.5196686,0.5942383,3.1714935-1.3876953,2.6429138-3.1054688
				c-0.9250183-3.0395508-2.8411255-3.7661133-6.4751282-2.3789062c-1.453598,0.5288086-1.7178802,1.0571289-1.7178802,3.1054688
				v2.5107422l-1.1893158-1.5195312l-1.1893005-1.5195312l0.2642822,2.3125c0.1982269,1.4536133,0,2.378418-0.4625092,2.378418
				c-0.3964233,0-0.7267914,0.5947266-0.7267914,1.3217773c0,0.7265625,0.330368,1.3212891,0.6607208,1.3212891
				c0.3964386,0,0.6607361,0.3964844,0.6607361,0.8588867c0,0.5288086,0.8589325,0.8588867,2.4446869,0.8588867
				C235.0036163,4907.0913086,235.730423,4906.9589844,235.3339844,4906.8271484z M288.8528442,4837.1865234
				c-0.1982422-0.8588867-0.6607361-1.7177734-1.0571594-2.0483398c-0.4625244-0.2641602-0.1321716-0.5947266,0.7928467-0.8588867
				c2.0482483-0.5947266,1.8500366-1.7841797-0.8589478-4.6914062c-1.2553711-1.387207-2.3125305-2.7749023-2.3125305-3.0390625
				s0.9250183-0.925293,2.1143188-1.3876953c2.0482483-0.9248047,2.0482483-0.9248047,0.6607361-1.7836914
				c-0.7928772-0.5288086-1.4536133-1.2553711-1.4536133-1.6518555s-0.4624939-1.1235352-0.9910889-1.5859375
				c-1.3875122-1.1894531-1.2553711-2.6425781,0.3303833-2.6425781c2.4446716,0,0.8589478-2.5771484-1.5857544-2.7089844
				c-1.12323-0.0664062-1.1893005-0.1323242-0.1982117-0.3964844c1.9821777-0.5288086,1.3214417-2.1806641-0.9250183-2.1806641
				c-1.3875427,0-2.7750549-0.7265625-4.4268799-2.3125c-1.3214417-1.2553711-2.7750549-2.3125-3.2375488-2.3125
				c-0.4625244,0-1.0571594-0.5288086-1.4536133-1.1230469c-0.594635-1.0571289-0.8589172-1.0571289-2.1143188-0.2646484
				c-1.3214417,0.7929688-1.5857239,0.7270508-2.3786011-0.3300781c-0.528595-0.7270508-1.2554016-1.3217773-1.7178955-1.3217773
				c-0.4624939-0.065918-1.0571594-0.1318359-1.4536133-0.1982422c-0.3303528-0.065918-0.1982117-0.3959961,0.3303833-0.7924805
				c0.7268066-0.5288086,0.594635-0.5947266-0.6607361-0.1982422c-1.9821777,0.5283203-3.3696899,1.5854492-2.9732666,2.1801758
				c0.3964233,0.6606445,0.3964233,4.8896484,0,10.4394531c-0.1982117,2.8413086-0.0660706,4.8896484,0.3303528,5.1538086
				c0.9910889,0.5947266,2.7089844,4.9555664,2.2464905,5.6821289c-0.1982117,0.3305664-0.0660706,0.5947266,0.3303528,0.5947266
				c0.3303528,0,0.7268066,0.6606445,0.8589478,1.5195312l0.1982117,1.4536133l1.5196838-1.4536133
				c1.5196533-1.5854492,2.7750549-1.9819336,2.7750549-0.8588867c0,0.3964844-0.4625244,0.6606445-0.9910889,0.6606445
				c-0.528595,0-0.9910889,0.1982422-0.9910889,0.3964844c0,0.8588867,3.5018311,4.8896484,4.2947083,4.8896484
				c0.4625244,0,1.5196838,0.5283203,2.3786316,1.2553711c0.8589172,0.6606445,2.0482483,1.0571289,2.5768127,0.8588867
				c0.8589478-0.3305664,0.8589478-0.1982422,0.0660706,0.7265625c-0.7268066,0.9912109-0.7268066,1.1235352,0.1321411,1.1235352
				c0.5946655,0,1.7839661-0.2646484,2.7750549-0.6606445c1.3214722-0.5288086,1.7839661-0.4628906,2.0482483,0.3300781
				c0.2643127,0.6606445,1.3214722,0.9912109,2.907196,0.9912109
				C289.0510559,4838.6401367,289.2492676,4838.5078125,288.8528442,4837.1865234z"/>
			<path d="M193.0474854,5007.984375c-2.0482483-0.3964844-3.3036346-3.5019531-1.8500366-4.559082
				c0.5946655-0.3964844,1.0571747-1.0571289,1.0571747-1.5195312c0-0.3964844,0.3964233-0.7929688,0.8589325-0.7929688
				c3.2375641-0.3305664,5.3518982-0.3305664,9.7126923,0.2641602c3.5679169,0.4624023,5.8143921,0.3964844,8.1269226-0.1982422
				c2.4447021-0.5947266,3.3697052-0.5947266,4.0965118,0c1.5196686,1.2553711,1.1893005,1.9824219-1.2553864,2.9731445
				c-2.24646,0.9912109-4.3607941,0.7270508-4.3607941-0.3959961c0-0.3305664-0.3303528-0.5947266-0.7267914-0.5947266
				s-0.5285797,0.7265625-0.2642975,1.9160156c0.3964386,1.7836914,0.2642975,1.9160156-2.576828,2.6430664
				C203.0244598,5008.4467773,196.1529083,5008.5791016,193.0474854,5007.984375z"/>
			<path d="M202.4958801,4994.5053711c-1.0571594-0.3300781-2.576828-1.0571289-3.2375641-1.5854492
				c-1.1893005-0.859375-1.1893005-1.0571289-0.2642822-2.1147461c0.5285797-0.6606445,1.3214417-2.0478516,1.6518097-3.1713867
				c0.4625092-1.387207,1.0571594-1.9819336,2.0482483-1.9160156c2.3125458,0.065918,2.3786163-2.9731445,0-5.1538086
				c-1.8500214-1.7177734-1.9161072-1.8500977-0.5946503-1.8500977c0.7928772,0,1.5857391,0.4628906,1.8500366,1.0576172
				c0.2642822,0.7924805,0.9250183,0.9248047,2.3125458,0.6606445c1.3214417-0.2646484,2.24646,0,3.1714783,0.9248047
				c1.7839661,1.7841797,1.651825,2.6430664-0.3303528,2.6430664c-0.9910889,0-1.651825,0.3964844-1.651825,0.9248047
				c0,1.3876953,1.1893158,1.9824219,2.2464752,1.1235352c0.9910889-0.8588867,1.7178802-0.3305664,1.7178802,1.387207
				c0,0.6606445,0.330368,1.1894531,0.7268066,1.1894531c1.2553864,0,0.0660706,0.9912109-2.9732666,2.5766602
				c-3.3036346,1.5859375-3.7000732,2.246582-1.8500366,3.3037109c0.9250183,0.5947266,0.7928772,0.6606445-0.8589478,0.6606445
				C205.4030762,4995.1000977,203.6191101,4994.8359375,202.4958801,4994.5053711z"/>
			<path d="M180.3615417,4946.8671875c-1.0571594-2.1806641-1.6518097-4.4931641-1.6518097-6.6074219
				c0-1.7177734-0.1321564-3.1713867-0.330368-3.1713867c-0.1982269,0-1.0571594,0.4624023-1.9161072,1.0571289
				c-1.1893158,0.8588867-2.576828,0.9912109-6.5411987,0.7929688c-6.4751129-0.4624023-8.7215881-1.4536133-8.7215881-3.8984375
				c0-1.5859375,0.4625092-2.0483398,3.0393524-3.1713867c2.7089691-1.2553711,3.2375488-1.2553711,5.7483063-0.3964844
				c5.2197418,1.7177734,8.7216034,2.5107422,10.9680634,2.4448242c4.4268646-0.1982422,7.9947968,2.7749023,7.9947968,6.4750977
				c0,1.9160156-1.9821777,7.4663086-3.1714935,8.7875977
				C183.9294586,4951.2939453,182.1455078,4950.5673828,180.3615417,4946.8671875z"/>
			<path d="M192.5849762,4918.7861328c-1.3214417-0.3300781-2.3125305-1.3212891-2.3125305-2.4448242
				c0-0.2641602,0.4625092-0.3300781,1.0571594-0.1318359c0.6607208,0.2641602,0.9250183,0.065918,0.7928619-0.3964844
				c-0.3964233-1.0571289-2.7089691-1.7177734-6.805481-1.7841797c-3.6339874-0.1318359-9.2501678-2.3125-8.589447-3.3696289
				c0.1982269-0.3300781,2.1143341-0.6606445,4.1625824-0.6606445c4.0965118,0,8.4573059-0.9912109,9.0519562-2.0483398
				c0.2642822-0.3300781,0.1321411-1.0571289-0.2642975-1.5195312s-0.5285797-1.0571289-0.2642822-1.2553711
				c0.5285797-0.5947266-1.1232452-2.5107422-1.8500366-2.1142578c-0.2642975,0.1982422-1.5196686-0.2646484-2.7089844-0.9912109
				c-1.1893005-0.7265625-2.576828-1.3212891-3.0393372-1.3212891c-0.7268066,0-11.8270111-4.9555664-14.8663483-6.6733398
				c-0.6607208-0.3305664-1.453598-0.4628906-1.7839661-0.2646484c-0.8589325,0.5288086-0.8589325-1.2553711,0.0660858-3.2373047
				c0.9910889-2.1142578,2.6428986-2.7749023,3.6339874-1.4536133c0.3964386,0.5947266,1.12323,1.0571289,1.5857391,1.0571289
				c0.8589478,0,7.9947968,3.8320312,8.589447,4.625c0.1982269,0.2641602,2.4446869,1.2553711,5.0876007,2.246582
				c5.8143921,2.1801758,8.1269379,3.8984375,8.1269379,6.0786133c0,0.8588867-0.2642975,1.5859375-0.6607361,1.5859375
				c-0.3303528,0-0.6607208,0.2641602-0.6607208,0.5947266c0,0.6606445,3.4357758,1.9819336,8.4572906,3.3696289
				c3.435791,0.8588867,4.7572327,2.9731445,3.5679321,5.6162109c-0.4625092,0.9248047-1.453598,1.9160156-2.3125458,2.2460938
				c-0.7928772,0.3305664-1.9161072,1.0571289-2.3786163,1.6518555
				C197.4082794,4919.2485352,195.2939606,4919.4467773,192.5849762,4918.7861328z"/>
		</g>
	</g>
</g>
</svg>
