<?xml version="1.0" encoding="utf-8"?>
<!-- Generator: Adobe Illustrator 22.0.0, SVG Export Plug-In . SVG Version: 6.00 Build 0)  -->
<svg version="1.0" id="Направляющие" xmlns="http://www.w3.org/2000/svg" xmlns:xlink="http://www.w3.org/1999/xlink"
	 x="0px" y="0px" viewBox="0 0 60 85" enable-background="new 0 0 60 85" xml:space="preserve">
<rect width="60" height="85"/>
<path fill="#FAFAFA" d="M46.3,41.7c0,0-0.2,0.9,0.4,0.9c0.6,0,0.7-0.9,0.7-0.9s0.9-2.1,1.1-2.3c0.2-0.2,0.8-0.9,0.8-0.9
	s0.8-1.2-0.8-0.5c-1.5,0.6-2.8,1.6-3.8,1.9c-1,0.3-1.4,1.3-1.2,2c0.2,0.7,0.8,2,0.8,2s-3.7,0.9-4.1,0.9l-0.6-2.5
	c0,0-0.5-1.3,0.8-1.8c1.2-0.5,1.6-0.5,1.6-0.5s-1.3,2.1-1.2,2.9c0.1,0.8,0.1,0.8,0.5,0.9c0.5,0.1,0.8-0.2,1-1.1
	c0.2-0.9,1.1-2.8,2-3.7c0.9-0.9,0.5-1.3-0.8-0.8s-4,1.8-4.9,1.8s-1.1,1.4-0.9,2.1c0.2,0.7,1.1,3,1.1,3s-1.3,0.2-1.5,0.2
	c0,0,0.2,1.5,2.1,1.2l0.8,1.8c0,0,1,1.3,0.7-0.6l-0.4-1.5l4-1.2l0.8,1.8c0,0,0.9,1.7,0.7-0.4l-0.4-1.8l1.6-0.6c0,0,1.3-0.8-0.2-0.5
	s-1.5,0.3-1.5,0.3s-1-2.3-0.1-2.8s1.6-0.8,1.6-0.8S46.3,41.1,46.3,41.7z"/>
<path fill="#FAFAFA" d="M30.4,50.4c0,0,2.5,0.1,1.7-1.9c-0.8-2-1.3-3.2-1.3-3.2s4.1-1.4,4.6-4.2c0,0,0.3,0.3,0.8-0.1
	c0.4-0.4,1.8-2,1.8-2s0.3-0.1-0.1-0.6c-0.4-0.5-0.6-0.5-1.1,0c-0.5,0.5-0.7,0.7-0.7,0.7s0.9-3.7-1.3-4.7s-4.5,2.9-4.6,3.6
	c0,0,1.1-3.7,0.3-3.4c-0.8,0.2-2,1.1-2,1.1s-1.3,0.7-0.5,7.1l-1.3,0.4c0,0-0.2-4.7,0-5.2c0,0-2.1-1.9-2.3,0.2
	c-0.2,2.1,0.4,5.5,0.4,5.5l-1.9,0.5c0,0,2.5-3.9-0.9-4.2c-3.4-0.3-5.6,1.5-5.6,1.5s0.4-3.8-0.6-4.8s-2,1-2,1l0.2,2.1
	c0,0-0.9-1-2.6,0.4s-1.8,2.6-1.7,5.1c0.2,2.5,2.8,2.9,2.8,2.9s2.1-0.5,2.4-2c0,0,0-0.2,0-0.1c0.4,2.5,2.2,1.4,2.2,1.4
	s-1.1-1.1-1-4.4c0,0,2-1.7,4.2-1.7c2.2,0,1.4,2.1,1.1,2.2c0,0-2.9-2.1-3.8-0.5c-0.9,1.6-0.6,3.3,0.6,4.4s2.4,1.8,3.5,1.3
	c1.1-0.4,1.2-1.6,1-3.2l2-0.8l0.5,2.5c0,0,0.2,1.1,0.7,1.3c0.5,0.3,1.3,0.8,0.9-1.5c-0.4-2.2-0.3-2-0.3-3l1.3-0.4
	C28,43.9,29.6,49.9,30.4,50.4z"/>
<path fill="#000105" d="M13.3,43c0,0-0.1-2.3-1-2.1c-0.9,0.2-1,2.1-1,2.1s-0.1,3.3,1.2,3.5s2-2.6,2-2.6l-0.3-1.7
	C14.4,42.1,13.6,42.9,13.3,43z"/>
<path fill="#000105" d="M21,47.8c0,0,0.1-3.8-1.9-4S20,48.3,21,47.8z"/>
<path fill="#000105" d="M32.8,36.3c0,0,0.8-1.6,1.1,1.2s-2.4,5.9-3.3,6.4C30.6,43.9,30.7,39.1,32.8,36.3z"/>
<path fill="#FAFAFA" d="M36.7,43.1c0,0,0,0.1,0,0.1c-0.9,2.5,0.6,4.4,0.6,4.4c-1,1.8-2.3,0.1-2.7-2.3C34.5,45.4,34.4,41.5,36.7,43.1
	z"/>
</svg>
