<?xml version="1.0" encoding="utf-8"?>
<!-- Generator: Adobe Illustrator 25.0.0, SVG Export Plug-In . SVG Version: 6.00 Build 0)  -->
<svg version="1.2" baseProfile="tiny" xmlns="http://www.w3.org/2000/svg" xmlns:xlink="http://www.w3.org/1999/xlink" x="0px"
	 y="0px" viewBox="0 0 60 85" overflow="visible" xml:space="preserve">
<g id="фоны">
	<g id="Discord">
		<rect fill="#7289DA" width="60" height="85"/>
	</g>
</g>
<g id="лого">
	<g id="discord">
		<path fill="#FFFFFF" d="M26.9892502,39.8636246c-0.9333744,0-1.670248,0.8187523-1.670248,1.817627
			s0.7532482,1.8176231,1.670248,1.8176231c0.9333763,0,1.6702499-0.8187485,1.6702499-1.8176231
			C28.6758747,40.6823769,27.9226265,39.8636246,26.9892502,39.8636246z M32.9661255,39.8636246
			c-0.9333763,0-1.6702499,0.8187523-1.6702499,1.817627s0.7532501,1.8176231,1.6702499,1.8176231
			c0.9333763,0,1.6702499-0.8187485,1.6702499-1.8176231S33.8995018,39.8636246,32.9661255,39.8636246z"/>
		<path fill="#FFFFFF" d="M40.9243774,26.125h-21.942503c-1.8503742,0-3.3568745,1.5065002-3.3568745,3.3732491V51.637249
			c0,1.8667488,1.5065002,3.3732529,3.3568745,3.3732529h18.5692501l-0.8678741-3.029377l2.0960007,1.9486237l1.9813766,1.8339996
			L44.2812538,58.875V29.4982491C44.2812538,27.6315002,42.7747536,26.125,40.9243774,26.125z M34.6036263,47.5107536
			c0,0-0.5895004-0.7041283-1.0807533-1.3263779c2.1451263-0.6058731,2.9638786-1.9486237,2.9638786-1.9486237
			c-0.6713753,0.4421234-1.3100014,0.7532501-1.8831253,0.9661255c-0.8187523,0.3438759-1.6047516,0.5731239-2.3743744,0.7041245
			c-1.5720024,0.2947502-3.0130024,0.2128754-4.241127-0.0163765c-0.9333744-0.1801262-1.7357502-0.4421234-2.4071255-0.7041245
			c-0.3766251-0.1473732-0.7859993-0.3274994-1.1953754-0.5567513c-0.0491257-0.0327492-0.0982494-0.0491257-0.1473751-0.0818748
			c-0.0327492-0.0163765-0.0491257-0.0327492-0.0655003-0.0491257c-0.2947502-0.1637497-0.4584999-0.2783737-0.4584999-0.2783737
			s0.7860012,1.3100014,2.8656254,1.932251c-0.491251,0.6222496-1.0971241,1.359127-1.0971241,1.359127
			c-3.6188755-0.114624-4.9943771-2.4890022-4.9943771-2.4890022c0-5.272747,2.3580017-9.5466232,2.3580017-9.5466232
			c2.3579998-1.7685013,4.6013756-1.7193756,4.6013756-1.7193756l0.1637497,0.1964989
			c-2.9475002,0.8514977-4.3066254,2.1451263-4.3066254,2.1451263s0.3602505-0.1965027,0.9661255-0.4748764
			c1.7521248-0.7696266,3.144001-0.982502,3.7171268-1.0316277c0.0982494-0.0163727,0.1801243-0.0327492,0.2783737-0.0327492
			c0.9988747-0.1310005,2.1287498-0.1637497,3.3077488-0.0327492c1.5556259,0.1801262,3.2258759,0.6386261,4.9288788,1.5720024
			c0,0-1.2936249-1.2281265-4.0773773-2.079628l0.2292519-0.2619972c0,0,2.2433739-0.0491257,4.6013756,1.7193756
			c0,0,2.3579979,4.2738724,2.3579979,9.5466232C39.6143761,45.0217514,38.2224998,47.3961296,34.6036263,47.5107536z"/>
	</g>
</g>
</svg>
