<?xml version="1.0" encoding="utf-8"?>
<!-- Generator: Adobe Illustrator 22.0.0, SVG Export Plug-In . SVG Version: 6.00 Build 0)  -->
<svg version="1.0" id="Направляющие" xmlns="http://www.w3.org/2000/svg" xmlns:xlink="http://www.w3.org/1999/xlink"
	 x="0px" y="0px" viewBox="0 0 60 85" enable-background="new 0 0 60 85" xml:space="preserve">
<rect fill="#FF4E38" width="60" height="85"/>
<circle fill="#FFFFFF" cx="30.2" cy="42.4" r="16.4"/>
<path fill="#FF4E38" d="M26.7,46.1v-6.8c0,0-0.3-2.5,2.7-0.9c3,1.6,5.6,3.2,5.6,3.2s2.3,0.7,0,2c-2.3,1.3-6.4,3.4-6.4,3.4
	S26.7,47,26.7,46.1z"/>
<polygon fill="#FF4E38" points="22.6,35.9 25.4,33.7 22.8,30.5 20.2,32.6 "/>
<polygon fill="#FF4E38" points="23.7,30.1 24.4,29.8 23.5,28.2 22.8,28.6 "/>
<polygon fill="#FF4E38" points="25.4,29.3 26.2,33.2 29.7,32.5 28.9,28.4 "/>
<polygon fill="#FF4E38" points="30.7,32.2 33.9,33.4 35.1,29.6 31.8,28.4 "/>
<polygon fill="#FF4E38" points="36,29.7 36.3,29.9 37.3,28.6 36.7,28.2 35.8,29.6 "/>
<polygon fill="#FF4E38" points="16.7,37.8 18.5,34.8 22,36.7 20.3,39.9 "/>
<polygon fill="#FF4E38" points="34.9,33.5 37.6,30.4 40.4,32.8 37.8,35.9 "/>
<polygon fill="#FF4E38" points="38.3,36.5 39.9,39.6 43.5,38 42.1,34.6 "/>
<polygon fill="#FF4E38" points="43.8,38.7 43.8,39.6 45.7,39.6 45.7,38.6 "/>
<polygon fill="#FF4E38" points="40.1,40.5 40.1,44.2 44.2,44.1 44.2,40.5 "/>
<polygon fill="#FF4E38" points="38.3,48 40.1,44.9 43.7,46.7 42.1,49.9 "/>
<polygon fill="#FF4E38" points="41,51.4 41.5,50.7 43,51.8 42.4,52.4 "/>
<polygon fill="#FF4E38" points="37.8,48.9 35,51.1 37.5,54.4 40.5,52.1 "/>
<polygon fill="#FF4E38" points="30.7,52.1 34.3,51.6 35.2,55.6 31.6,56.4 "/>
<rect x="29.8" y="56.4" fill="#FF4E38" width="0.9" height="1.9"/>
<polygon fill="#FF4E38" points="26.4,51.4 25.1,55.4 29,56.5 30,52.4 "/>
<polygon fill="#FF4E38" points="22.8,54.4 25.6,51.3 22.8,48.9 20,52.1 "/>
<polygon fill="#FF4E38" points="17.6,52.1 18.1,52.7 19.5,51.4 18.8,50.8 "/>
<polygon fill="#FF4E38" points="16.7,47.1 20.6,45.1 22.2,48.3 18.5,50.2 "/>
<polygon fill="#FF4E38" points="16.2,40.7 16.2,44.2 20.4,44.4 20.4,40.7 "/>
<rect x="14.8" y="38.8" fill="#FF4E38" width="1.7" height="0.8"/>
</svg>
