<?xml version="1.0" encoding="utf-8"?>
<!-- Generator: Adobe Illustrator 22.0.0, SVG Export Plug-In . SVG Version: 6.00 Build 0)  -->
<svg version="1.0" id="Направляющие" xmlns="http://www.w3.org/2000/svg" xmlns:xlink="http://www.w3.org/1999/xlink"
	 x="0px" y="0px" viewBox="0 0 60 85" enable-background="new 0 0 60 85" xml:space="preserve">
<g id="Слой_2">
	<rect fill="#1C212E" width="60" height="85"/>
</g>
<path fill="#FF2D42" d="M27.4,29.6l6-2.9c0,0,3.6-1.8,5.9,2.4c2.4,4.2-2.2,6.6-2.2,6.6l-4.6,2.4l3,1.7c0,0,3.5,2.9,3.7,5.4
	c0.2,2.5-0.2,6.8-3.2,8.5c-3,1.7-9,4.6-9,4.6s-4.7,2-6.6-2.5s2.9-6.7,2.9-6.7l4.2-2.1l-3.5-2c0,0-3.1-2.2-3.3-5.3
	c-0.2-3.1,1-6.4,2.3-7.4C24.3,31.3,27.4,29.6,27.4,29.6z"/>
<path fill="#1C212E" d="M28.8,46.3l5-2.7c0,0,2.8-2.6-0.3-4c-3.1-1.4-2-0.8-2-0.8l-4.1,1.9C27.4,40.7,21.5,44.1,28.8,46.3z"/>
</svg>
