<?xml version="1.0" encoding="utf-8"?>
<!-- Generator: Adobe Illustrator 25.0.0, SVG Export Plug-In . SVG Version: 6.00 Build 0)  -->
<svg version="1.0" xmlns="http://www.w3.org/2000/svg" xmlns:xlink="http://www.w3.org/1999/xlink" x="0px" y="0px"
	 viewBox="0 0 60 85" enable-background="new 0 0 60 85" xml:space="preserve">
<g id="фоны">
	<rect id="Google" fill="#FFFFFF" width="60" height="85"/>
</g>
<g id="лого">
	<g id="Google_1_">
		<path fill="#4285F4" d="M45.9612503,42.8619194c0-1.339138-0.1086655-2.3163567-0.3438301-3.3297577H30.3257389v6.0442123
			h8.9758739c-0.1808968,1.5020714-1.1581192,3.7641602-3.3297577,5.2841988l-0.0304413,0.2023544l4.8349457,3.7455673
			l0.3349724,0.0334358c3.0763779-2.8412094,4.8499184-7.0215569,4.8499184-11.9800148"/>
		<path fill="#34A853" d="M30.3257389,58.7869911c4.3974247,0,8.0891018-1.4478035,10.785593-3.9450569l-5.1394768-3.9813614
			c-1.3753166,0.9591293-3.2212181,1.6287003-5.6461163,1.6287003c-4.3069744,0-7.9624729-2.8410835-9.2655544-6.7680511
			l-0.1910038,0.0162201l-5.0274458,3.8907852l-0.0657463,0.1827698
			C18.4542656,55.1313667,23.9556618,58.7869911,30.3257389,58.7869911"/>
		<path fill="#FBBC05" d="M21.0601826,45.7212181c-0.3438301-1.013401-0.5428162-2.0992813-0.5428162-3.2212181
			c0-1.1220627,0.198988-2.2078209,0.5247269-3.2212219l-0.0091076-0.2158279l-5.0904484-3.953289l-0.1665497,0.0792198
			C14.6721401,37.3967018,14.0387497,39.8759918,14.0387497,42.5s0.6333904,5.1031723,1.7372379,7.3109932L21.0601826,45.7212181"/>
		<path fill="#EB4335" d="M30.3257389,32.5106049c3.0582867,0,5.1212635,1.3210487,6.2975941,2.4250221l4.5965385-4.487999
			c-2.822998-2.6240082-6.4967079-4.2346172-10.8941326-4.2346172c-6.3700771,0-11.8714733,3.6554966-14.5497513,8.9758701
			l5.2661057,4.089901C22.363266,35.3518143,26.0187626,32.5106049,30.3257389,32.5106049"/>
	</g>
</g>
</svg>
