<?xml version="1.0" encoding="utf-8"?>
<!-- Generator: Adobe Illustrator 22.0.0, SVG Export Plug-In . SVG Version: 6.00 Build 0)  -->
<svg version="1.0" id="Направляющие" xmlns="http://www.w3.org/2000/svg" xmlns:xlink="http://www.w3.org/1999/xlink"
	 x="0px" y="0px" viewBox="0 0 60 85" enable-background="new 0 0 60 85" xml:space="preserve">
<g>
	<title>background</title>
	<rect id="canvas_background" x="0" fill="#E5B922" width="60" height="85"/>
</g>
<g>
	<title>Layer 1</title>
	<rect id="svg_6" x="10.3" y="37.6" fill="#010101" width="4.1" height="15.9"/>
	<path id="svg_7" fill="#010101" d="M23.2,37.6l-1,7.5l-0.6-4c-0.2-1.3-0.3-2.4-0.5-3.4h-5.3v15.9h3.6l0-10.5l1.5,10.5h2.6l1.5-10.8
		v10.8h3.6V37.6H23.2L23.2,37.6z"/>
	<path id="svg_8" fill="#010101" d="M34.8,53.5c1,0,1.7-0.1,2.2-0.2c0.5-0.1,0.9-0.3,1.2-0.6c0.3-0.3,0.6-0.7,0.7-1.1
		c0.1-0.5,0.2-1.4,0.2-2.9v-5.6c0-1.5-0.1-2.5-0.2-3c-0.1-0.5-0.3-1-0.7-1.4c-0.4-0.4-0.9-0.7-1.6-0.9c-0.7-0.2-1.8-0.3-3.8-0.3
		h-3.1v15.9L34.8,53.5L34.8,53.5z M34.8,40.5c0.2,0.1,0.3,0.2,0.3,0.4c0.1,0.2,0.1,0.7,0.1,1.4v6.2c0,1.1-0.1,1.7-0.2,1.9
		c-0.1,0.3-0.5,0.4-1.1,0.4V40.3C34.4,40.3,34.7,40.3,34.8,40.5L34.8,40.5z"/>
	<path id="svg_9" fill="#010101" d="M40.5,37.6v15.9h3.7l0.3-1c0.3,0.4,0.7,0.7,1.1,0.9c0.4,0.2,1,0.3,1.5,0.3
		c0.7,0,1.2-0.2,1.7-0.5c0.5-0.3,0.8-0.7,0.9-1.2c0.1-0.5,0.2-1.2,0.2-2.1v-4.5c0-1,0-1.6-0.1-1.9c0-0.3-0.2-0.6-0.4-0.9
		c-0.2-0.3-0.5-0.5-0.9-0.7c-0.4-0.2-0.9-0.3-1.4-0.3c-0.5,0-1.1,0.1-1.5,0.3c-0.4,0.2-0.8,0.5-1.1,0.9v-5.2H40.5L40.5,37.6z
		 M45.9,49.6c0,0.8,0,1.2-0.1,1.4c-0.1,0.2-0.4,0.3-0.7,0.3c-0.2,0-0.4-0.1-0.5-0.3c-0.1-0.2-0.1-0.7-0.1-1.3v-4.2
		c0-0.7,0-1.2,0.1-1.3c0.1-0.2,0.2-0.3,0.5-0.3c0.3,0,0.6,0.1,0.7,0.3c0.1,0.2,0.1,0.7,0.1,1.3V49.6L45.9,49.6z"/>
</g>
</svg>
