<?xml version="1.0" encoding="utf-8"?>
<!-- Generator: Adobe Illustrator 25.0.0, SVG Export Plug-In . SVG Version: 6.00 Build 0)  -->
<svg version="1.2" baseProfile="tiny" xmlns="http://www.w3.org/2000/svg" xmlns:xlink="http://www.w3.org/1999/xlink" x="0px"
	 y="0px" viewBox="0 0 60 85" overflow="visible" xml:space="preserve">
<g id="фоны">
	
		<linearGradient id="irecommend_2_" gradientUnits="userSpaceOnUse" x1="4.1266537" y1="23.3201141" x2="52.3272133" y2="59.0511398">
		<stop  offset="0" style="stop-color:#FFFFFF"/>
		<stop  offset="1" style="stop-color:#D1D1D1"/>
	</linearGradient>
	<rect id="irecommend" fill-rule="evenodd" fill="url(#irecommend_2_)" width="60" height="85"/>
</g>
<g id="лого">
	<g id="irecommend_1_">
		<path fill="#FF6643" d="M18.5609894,53.3446884c1.1693764,1.0381699,2.7626686,1.867672,4.8973503,1.9627838L22.7772465,58.875
			L30,55.1712532l5.8326416-0.092617c2.3987465-0.0380898,4.7643394-0.8102531,6.5971222-2.3582611
			c1.0016899-0.8460464,1.8663139-4.1898003,1.9173965-5.3136063c0.1010017-2.2220459,0.0049133-8.1202545-0.0270576-12.2188606
			c-0.0171204-2.194664-0.5846672-4.3667717-1.7735786-6.2115803C41.5839844,27.4827747,37.4950142,26.125,35.7173538,26.125
			H24.84828c-3.037714,0-5.9993439,1.2648754-7.9003429,3.6342468c-0.7398224,0.9221001-1.2682667,4.9651451-1.2682667,6.0689049
			v10.7599907C15.6796703,49.1387787,16.6535835,51.6513023,18.5609894,53.3446884z"/>
		<polygon fill="#FFFFFF" points="24.8205299,47.4067688 33.5385475,47.4067688 34.0834236,44.4099503 31.4952621,44.4099503 
			32.7212334,37.0541229 35.0369568,37.0541229 35.7180519,33.7848663 27.4086914,33.7848663 26.5913773,37.0541229 
			28.4984436,37.1903419 27.6811295,44.2737312 25.7740631,44.1375122 		"/>
	</g>
</g>
</svg>
