<?xml version="1.0" encoding="utf-8"?>
<!-- Generator: Adobe Illustrator 23.0.6, SVG Export Plug-In . SVG Version: 6.00 Build 0)  -->
<svg version="1.0" xmlns="http://www.w3.org/2000/svg" xmlns:xlink="http://www.w3.org/1999/xlink" x="0px" y="0px"
	 viewBox="0 0 60 85" enable-background="new 0 0 60 85" xml:space="preserve">
<g id="фоны">
	<rect id="likee" fill-rule="evenodd" clip-rule="evenodd" fill="#4F535B" width="60" height="85"/>
</g>
<g id="лого">
	<g id="Layer1000">
		<g id="Layer1001">
			<path id="path4" fill-rule="evenodd" clip-rule="evenodd" fill="#FF8434" stroke="#FF8434" stroke-width="0.5669" d="M22.8,43.4
				L39.1,27c1.7,0.9,2.9,2.2,3.6,3.7L26.4,47L22.8,43.4z"/>
			<path id="path6" fill-rule="evenodd" clip-rule="evenodd" fill="#FFCB3A" stroke="#FFCB3A" stroke-width="0.5669" d="M26.4,47
				l16.3-16.3c1.4,2.8,0.8,6.3-1.9,9L30,50.6L26.4,47L26.4,47z"/>
			<path id="path8" fill-rule="evenodd" clip-rule="evenodd" fill="#FF474C" stroke="#FF474C" stroke-width="0.5669" d="M19.1,39.7
				l11.4-11.4c2.5-2.2,5.3-2.7,8.5-1.4c0,0,0.1,0,0.1,0L22.8,43.3L19.1,39.7z"/>
			<path id="path10" fill-rule="evenodd" clip-rule="evenodd" fill="#9330FD" stroke="#9330FD" stroke-width="0.5669" d="M19,39.6
				l-0.7-0.7c-1.9-2.2-2.4-5.6-1.1-8.4l5.5,5.5l-3.6,3.6C19.1,39.6,19,39.6,19,39.6L19,39.6z"/>
			<path id="path12" fill-rule="evenodd" clip-rule="evenodd" fill="#C43FF8" stroke="#C43FF8" stroke-width="0.5669" d="M22.7,36.1
				l-5.5-5.5c0.7-1.5,1.9-2.7,3.6-3.6l0,0l5.5,5.5L22.7,36.1z"/>
			<path id="path14" fill-rule="evenodd" clip-rule="evenodd" fill="#DD48E2" stroke="#DD48E2" stroke-width="0.5669" d="M26.3,32.5
				l-5.5-5.5c3.3-1.5,6.3-0.8,8.9,1.6l0.3,0.3L26.3,32.5z"/>
		</g>
		<g id="Layer1002">
			<path id="path17" fill-rule="evenodd" clip-rule="evenodd" fill="#FFFFFF" stroke="#FFFFFF" stroke-width="0.216" d="M17.8,50.5
				h1.1v6.4c0,0.5,0.2,0.8,0.7,0.8l3.3,0v1.2h-3.4c-1,0-1.7-0.8-1.7-1.6L17.8,50.5z"/>
			<path id="path19" fill-rule="evenodd" clip-rule="evenodd" fill="#FFFFFF" stroke="#FFFFFF" stroke-width="0.216" d="M23.8,53.5
				h1.1v5.4h-1.1V53.5z"/>
			<path id="path21" fill-rule="evenodd" clip-rule="evenodd" fill="#FFFFFF" stroke="#FFFFFF" stroke-width="0.216" d="M26.1,50.5
				h1.1v4.7l2.4-2.9H31l-2.5,3.2l2.6,3.4h-1.5l-2.5-3.2v3.2h-1.1L26.1,50.5z"/>
			<path id="path23" fill-rule="evenodd" clip-rule="evenodd" fill="#FFFFFF" stroke="#FFFFFF" stroke-width="0.216" d="M24.4,50.5
				c-0.4,0-0.7,0.3-0.7,0.7c0,0.4,0.3,0.7,0.7,0.7c0.4,0,0.7-0.3,0.7-0.7C25.1,50.8,24.7,50.5,24.4,50.5z"/>
			<path id="path25" fill-rule="evenodd" clip-rule="evenodd" fill="#FFFFFF" stroke="#FFFFFF" stroke-width="0.216" d="M33.3,52
				c1.7,0.1,2.6,1.2,3,2.9l-4.7,1.4c0.3,1.8,2.8,2,3.5,0.1l1,0.2c-1.5,3.5-5.5,2.6-5.7-1.2C30.4,53.8,31.5,52.1,33.3,52L33.3,52z
				 M35.1,54.4l-3.6,1C31.1,53.1,34,52,35.1,54.4z"/>
			<path id="path27" fill-rule="evenodd" clip-rule="evenodd" fill="#FFFFFF" stroke="#FFFFFF" stroke-width="0.216" d="M39.2,52
				c1.7,0.1,2.6,1.2,3,2.9l-4.7,1.4c0.3,1.8,2.8,2,3.5,0.1l1,0.2c-1.5,3.5-5.5,2.6-5.7-1.2C36.3,53.8,37.4,52.1,39.2,52L39.2,52z
				 M41,54.4l-3.6,1C37.1,53.1,39.9,52,41,54.4z"/>
		</g>
	</g>
</g>
</svg>
