<?xml version="1.0" encoding="utf-8"?>
<!-- Generator: Adobe Illustrator 22.0.0, SVG Export Plug-In . SVG Version: 6.00 Build 0)  -->
<svg version="1.0" id="Направляющие" xmlns="http://www.w3.org/2000/svg" xmlns:xlink="http://www.w3.org/1999/xlink"
	 x="0px" y="0px" viewBox="0 0 60 85" enable-background="new 0 0 60 85" xml:space="preserve">
<g>
	<rect fill="#FFFFFF" width="60" height="85"/>
	<title>Layer 1</title>
	<path id="path5" fill="#007FB1" d="M39.4,38c0-0.4,0.3-0.8,0.8-0.8H49c0.4,0,0.8,0.3,0.8,0.8v9c0,0.4-0.3,0.8-0.8,0.8h-8.9
		c-0.4,0-0.8-0.3-0.8-0.8V38L39.4,38z"/>
	<polygon id="polygon7" fill="#231F20" points="14.5,44.6 11.8,44.6 11.8,39.3 10.2,39.3 10.2,46 10.2,46 14.5,46 	"/>
	<path id="path9" fill="#231F20" d="M16.7,46v-4.7h-1.6V46H16.7L16.7,46z M16,40.7c0.5,0,0.9-0.4,0.9-0.8c0-0.5-0.3-0.8-0.9-0.8
		c-0.5,0-0.9,0.4-0.9,0.8C15.1,40.3,15.4,40.7,16,40.7L16,40.7L16,40.7z"/>
	<path id="path11" fill="#231F20" d="M17.5,46h1.6v-2.6c0-0.1,0-0.3,0.1-0.4c0.1-0.3,0.4-0.6,0.8-0.6c0.6,0,0.8,0.4,0.8,1.1V46h1.6
		v-2.7c0-1.5-0.8-2.1-1.8-2.1c-0.8,0-1.2,0.5-1.4,0.8h0v-0.7h-1.6C17.5,41.7,17.5,46,17.5,46C17.5,46,17.5,46,17.5,46z"/>
	<path id="path13" fill="#231F20" d="M24.5,39.3h-1.6V46h1.6v-1.5l0.4-0.5l1.2,2h1.9L26,43.1l1.8-2h-1.9c0,0-1.3,1.8-1.4,2V39.3
		L24.5,39.3z"/>
	<path id="path15" fill="#231F20" d="M32.3,44.1c0-0.1,0.1-0.4,0.1-0.6c0-1.2-0.6-2.5-2.3-2.5c-1.8,0-2.6,1.4-2.6,2.6
		c0,1.6,1,2.5,2.7,2.5c0.7,0,1.3-0.1,1.8-0.3l-0.2-1C31.4,44.9,31,45,30.4,45c-0.7,0-1.4-0.3-1.4-0.9L32.3,44.1
		C32.3,44.1,32.3,44.1,32.3,44.1z M29,43c0-0.4,0.3-1,1-1c0.7,0,0.9,0.6,0.9,1H29L29,43z"/>
	<path id="path17" fill="#231F20" d="M36.2,39.3v2.2h0C36,41.2,35.5,41,34.9,41c-1.2,0-2.3,1-2.3,2.6c0,1.5,1,2.5,2.2,2.5
		c0.7,0,1.3-0.3,1.6-0.8h0l0.1,0.7h1.4c0-0.3,0-0.9,0-1.5v-5.3L36.2,39.3C36.2,39.3,36.2,39.3,36.2,39.3z M36.2,43.9
		c0,0.1,0,0.2,0,0.3c-0.1,0.4-0.5,0.7-0.9,0.7c-0.7,0-1.1-0.5-1.1-1.4c0-0.8,0.4-1.4,1.1-1.4c0.5,0,0.8,0.3,0.9,0.7
		c0,0.1,0,0.2,0,0.3L36.2,43.9C36.2,43.9,36.2,43.9,36.2,43.9z"/>
	<path id="path19" fill="#FFFFFF" d="M42.5,46v-4.7H41V46H42.5L42.5,46z M41.8,40.7c0.5,0,0.9-0.4,0.9-0.8c0-0.5-0.3-0.8-0.9-0.8
		c-0.5,0-0.9,0.4-0.9,0.8C40.9,40.3,41.2,40.7,41.8,40.7L41.8,40.7L41.8,40.7z"/>
	<path id="path21" fill="#FFFFFF" d="M43.4,46H45v-2.6c0-0.1,0-0.3,0.1-0.4c0.1-0.3,0.4-0.6,0.8-0.6c0.6,0,0.8,0.4,0.8,1.1V46h1.6
		v-2.7c0-1.5-0.8-2.1-1.8-2.1c-0.8,0-1.2,0.5-1.4,0.8h0v-0.7h-1.6C43.4,41.7,43.4,46,43.4,46S43.4,46,43.4,46z"/>
</g>
</svg>
