<?xml version="1.0" encoding="utf-8"?>
<!-- Generator: Adobe Illustrator 25.0.0, SVG Export Plug-In . SVG Version: 6.00 Build 0)  -->
<svg version="1.0" xmlns="http://www.w3.org/2000/svg" xmlns:xlink="http://www.w3.org/1999/xlink" x="0px" y="0px"
	 viewBox="0 0 60 85" enable-background="new 0 0 60 85" xml:space="preserve">
<g id="фоны">
	<rect id="medium" stroke="#000000" stroke-width="0.094" width="60" height="85"/>
</g>
<g id="лого">
	<g>
		<g>
			<g>
				<path fill="#FFFFFF" d="M32.0977821,42.2900314c0,5.1361237-4.1352844,9.2997513-9.2363911,9.2997513
					S13.625,47.4261551,13.625,42.2900314s4.1352825-9.2997551,9.2363911-9.2997551S32.0977821,37.153904,32.0977821,42.2900314"/>
				<path fill="#FFFFFF" d="M42.2303429,42.2900391c0,4.8347778-2.0676384,8.7541275-4.6181946,8.7541275
					c-2.5505524,0-4.6181946-3.9193497-4.6181946-8.7541275s2.0676422-8.7541237,4.6181946-8.7541237
					C40.1627045,33.5359154,42.2303429,37.4552612,42.2303429,42.2900391"/>
				<path fill="#FFFFFF" d="M46.375,42.2900314c0,4.3317642-0.7271957,7.8433266-1.6242867,7.8433266
					c-0.8970871,0-1.6241913-3.5115623-1.6241913-7.8433266s0.7271042-7.8433266,1.6241913-7.8433266
					C45.6478043,34.4467049,46.375,37.9582672,46.375,42.2900314"/>
			</g>
		</g>
	</g>
</g>
</svg>
