<?xml version="1.0" encoding="utf-8"?>
<!-- Generator: Adobe Illustrator 25.0.0, SVG Export Plug-In . SVG Version: 6.00 Build 0)  -->
<svg version="1.2" baseProfile="tiny" xmlns="http://www.w3.org/2000/svg" xmlns:xlink="http://www.w3.org/1999/xlink" x="0px"
	 y="0px" viewBox="0 0 60 85" overflow="visible" xml:space="preserve">
<g id="фоны">
	<rect id="metacritic" width="60" height="85"/>
</g>
<g id="лого">
	<g>
		<path id="Fill-1" fill="#FFCC34" d="M46.3895607,42.4521217c0,9.0461082-7.3913307,16.437439-16.437439,16.437439
			S13.625,51.49823,13.625,42.4521217c0-8.935791,7.2810135-16.3271217,16.3271217-16.3271217
			S46.3895607,33.5163307,46.3895607,42.4521217"/>
		<path id="Fill-4" fill="#333333" d="M43.1903267,42.4521217c0,7.2810135-5.8468742,13.1278877-13.1278877,13.1278877
			s-13.1278877-5.8468742-13.1278877-13.1278877S22.7814255,29.324234,30.062439,29.324234
			C37.2331352,29.324234,43.1903267,35.1711082,43.1903267,42.4521217"/>
		<path id="Fill-6" fill="#FEFEFE" d="M21.4576054,46.975174c-1.1031837-1.1031837-2.0960484-2.0960503-2.9785957-2.8682785
			l2.4270039-2.427002l1.3238201,1.1031837l0.1103191-0.110321c-0.2206364-0.8825455-0.3309555-2.537323,1.213501-4.0817795
			c1.2135029-1.213501,2.7579613-1.5444565,4.0817814-0.8825455l0,0c-0.1103191-0.8825493-0.1103191-1.6547775,0.1103191-2.3166885
			c0.2206364-0.7722282,0.6619091-1.5444565,1.3238201-2.2063675c1.7650948-1.7650928,4.3024158-1.875412,7.0603771,0.8825493
			l5.4056015,5.4056015l-2.7579613,2.7579575l-4.9643288-4.964325c-1.3238182-1.323822-2.5373211-1.6547775-3.4198685-0.7722282
			c-0.661911,0.661911-0.661911,1.5444565-0.3309555,2.3166847c0.1103191,0.2206345,0.4412727,0.55159,0.661911,0.7722282
			l5.4056015,5.4056015l-2.7579613,2.7579575l-5.0746441-5.074646c-1.1031857-1.1031837-2.3166866-1.5444565-3.3095531-0.55159
			c-0.7722282,0.7722282-0.5515919,1.7650948-0.3309555,2.3166847c0.1103191,0.3309555,0.3309555,0.5515938,0.661911,0.8825493
			l5.2952824,5.2952805l-2.7579594,2.7579613L21.4576054,46.975174z"/>
	</g>
</g>
</svg>
