<?xml version="1.0" encoding="utf-8"?>
<!-- Generator: Adobe Illustrator 22.0.0, SVG Export Plug-In . SVG Version: 6.00 Build 0)  -->
<svg version="1.0" id="Направляющие" xmlns="http://www.w3.org/2000/svg" xmlns:xlink="http://www.w3.org/1999/xlink"
	 x="0px" y="0px" viewBox="0 0 60 85" enable-background="new 0 0 60 85" xml:space="preserve">
<rect width="60" height="85"/>
<path fill="#FFFFFF" d="M43.8,50.4c4.9-5.3,0-10,0-10l-1.4,1.4c0,0,3.4,3.6,0,7.1L43.8,50.4z"/>
<path fill="#FFFFFF" d="M22.9,40.8l1.3-1.6c0,0-1.3-1.3-3.4-1.5c-0.8-0.1-1.7,0-2.7,0.3c-3.6,1.3-4.4,4.6-4.4,4.6s-0.8,3.8,1.6,6
	c2.4,2.2,4.5,1.9,4.5,1.9l17.6,0c0,0,3.6-0.1,4.4-4.4c0.8-4.4-3.7-5.6-3.7-5.6l-1.5-0.1c0,0,0.8-3.3-2.9-6.5
	c-3.8-3.2-8.1-1.3-8.1-1.3s-4.1,1.5-4.7,5.7c-0.6,4.2,0.9,3.3,0.9,3.3L22.9,40.8z"/>
<path d="M19.6,48.4h17.7c0,0,2.7-0.4,2.5-3.5c0,0-0.7-2.6-2.7-2.5c-2,0-0.6,0-0.6,0s-0.3,0.7-0.7,1.6s-0.2,0.2-0.2,0.2l-1.7-1
	c0,0,1.3-2.4,0.8-4.4c0,0-0.9-4.4-5.5-4.8s-6.3,4.1-6.3,4.1s-0.4-0.5,1,0.8c1.4,1.3,0.3,0.3,0.3,0.3l-1.3,1.6c0,0-2.4-2.5-5.6,0
	S16.2,48,19.6,48.4z"/>
<path fill="#FFFFFF" d="M46.4,53.1c0,0,7.2-7.4,0-15.2l-1.3,1.4c5.7,6.8,0,12.3,0,12.3L46.4,53.1z"/>
</svg>
