<?xml version="1.0" encoding="utf-8"?>
<!-- Generator: Adobe Illustrator 22.0.0, SVG Export Plug-In . SVG Version: 6.00 Build 0)  -->
<svg version="1.0" id="Направляющие" xmlns="http://www.w3.org/2000/svg" xmlns:xlink="http://www.w3.org/1999/xlink"
	 x="0px" y="0px" viewBox="0 0 60 85" enable-background="new 0 0 60 85" xml:space="preserve">
<g>
	<rect id="canvas_background" fill="#E67E17" width="60" height="85"/>
</g>
<g>
	<path id="svg_3" fill="#FFFFFF" d="M29.5,42.7c4.5,0,8.2-3.7,8.2-8.3s-3.7-8.3-8.2-8.3s-8.2,3.7-8.2,8.3S25,42.7,29.5,42.7z
		 M29.5,30.3c2.2,0,4,1.8,4,4.1c0,2.2-1.8,4.1-4,4.1s-4-1.8-4-4.1C25.5,32.2,27.3,30.3,29.5,30.3z M39,43.7
		c-0.5-0.9-1.7-1.7-3.4-0.4c-2.3,1.8-6,1.8-6,1.8s-3.7,0-6-1.8c-1.7-1.4-3-0.6-3.4,0.4c-0.8,1.6,0.1,2.4,2.2,3.8
		c1.8,1.1,4.2,1.6,5.7,1.7l-1.3,1.3c-1.8,1.9-3.6,3.6-4.8,4.9c-0.7,0.7-0.7,1.9,0,2.7l0.2,0.2c0.7,0.7,1.9,0.7,2.7,0l4.8-4.9
		c1.8,1.9,3.6,3.6,4.8,4.9c0.7,0.7,1.9,0.7,2.7,0l0.2-0.2c0.7-0.7,0.7-1.9,0-2.7l-4.8-4.9l-1.3-1.3c1.6-0.2,4-0.6,5.7-1.7
		C38.8,46.1,39.8,45.3,39,43.7z"/>
</g>
</svg>
