<?xml version="1.0" encoding="utf-8"?>
<!-- Generator: Adobe Illustrator 22.0.0, SVG Export Plug-In . SVG Version: 6.00 Build 0)  -->
<svg version="1.0" id="Направляющие" xmlns="http://www.w3.org/2000/svg" xmlns:xlink="http://www.w3.org/1999/xlink"
	 x="0px" y="0px" viewBox="0 0 60 85" enable-background="new 0 0 60 85" xml:space="preserve">
<g>
	<linearGradient id="SVGID_1_" gradientUnits="userSpaceOnUse" x1="0" y1="42.5" x2="60" y2="42.5">
		<stop  offset="0" style="stop-color:#DD272D"/>
		<stop  offset="0.5153" style="stop-color:#CA2429"/>
		<stop  offset="1" style="stop-color:#B22025"/>
	</linearGradient>
	<rect fill="url(#SVGID_1_)" width="60" height="85"/>
	<path id="svg_1" fill="#FFFFFF" d="M30,26.1c-9,0-16.4,7.3-16.4,16.4S21,58.9,30,58.9s16.4-7.3,16.4-16.4S39,26.1,30,26.1L30,26.1z
		 M31.7,47.5c-1.4,0-2.7-0.8-3.2-1.6c0,0-0.7,3-0.9,3.5c-0.6,2-2.2,4.1-2.3,4.2c-0.1,0.1-0.3,0.1-0.3-0.1c0-0.3-0.5-2.8,0-4.9
		c0.2-1,1.7-7,1.7-7s-0.4-0.8-0.4-2c0-1.9,1.1-3.3,2.5-3.3c1.2,0,1.7,0.9,1.7,1.9c0,1.2-0.8,2.9-1.1,4.6c-0.3,1.4,0.7,2.5,2,2.5
		c2.4,0,4.1-3.1,4.1-6.9c0-2.8-1.9-4.9-5.4-4.9c-3.9,0-6.4,2.9-6.4,6.2c0,1.1,0.3,1.9,0.9,2.5c0.2,0.3,0.3,0.4,0.2,0.7
		c-0.1,0.2-0.2,0.8-0.3,1c-0.1,0.3-0.4,0.4-0.6,0.3c-1.8-0.7-2.6-2.7-2.6-4.9c0-3.7,3.1-8.1,9.2-8.1c4.9,0,8.2,3.6,8.2,7.4
		C38.7,43.7,35.9,47.5,31.7,47.5L31.7,47.5z"/>
</g>
</svg>
