<?xml version="1.0" encoding="utf-8"?>
<!-- Generator: Adobe Illustrator 22.1.0, SVG Export Plug-In . SVG Version: 6.00 Build 0)  -->
<svg version="1.0" xmlns="http://www.w3.org/2000/svg" xmlns:xlink="http://www.w3.org/1999/xlink" x="0px" y="0px"
	 viewBox="0 0 60 85" enable-background="new 0 0 60 85" xml:space="preserve">
<g id="Направляющие">
	<rect id="Quora" fill="#B92B27" width="60" height="85"/>
</g>
<g id="Слой_2">
	<path fill="#FFFFFF" d="M20.3,45.4h0.6c0,0,0,2.4-2.1,2.3c0,0-1.4,0.2-2.4-1.6c0,0-1.9,0.5-3.2-0.1c-1.3-0.6-3-1.7-3-4.6
		c0-2.9,2.3-4.9,4.8-4.9s3.8,1.4,4.3,2.4c0.5,1,0.9,2,0.6,3.6c-0.4,1.6-1.4,2.5-1.7,2.7c0,0,0.4,1,1.2,1
		C20.1,46.2,20.3,45.4,20.3,45.4z"/>
	<path fill="#B92B27" d="M13.6,43.8c0,0,0.5-0.2,0.9-0.1c0.3,0.1,0.9,0.4,1.5,1.6c0,0-1.8,0.5-2.6-0.4c-0.8-0.9-1.1-2.3-1-3.6
		c0.1-1.3,0.4-3.9,2.6-3.9s2.6,1.6,2.6,1.6s0.4,1.1,0.4,2.6c-0.1,1.5-0.2,2.1-0.4,2.4c0,0-0.8-1.4-2.3-1.3s-1.8,0.6-1.8,0.6
		L13.6,43.8"/>
	<path fill="#FFFFFF" d="M20.5,39.7V39h2.9v5c0,0,0.1,0.9,1.1,0.9s1.4-0.7,1.4-0.7v-4c0,0,0.1-0.5-0.5-0.5s-0.6,0-0.6,0l0-0.7h3v5.3
		c0,0,0,0.5,0.8,0.5v0.8L26,46l0-1c0,0-0.8,1.1-2.4,1.1s-2.1-1.2-2.1-2c0-0.8,0-4.1,0-4.1s0.1-0.3-0.6-0.3
		C20.2,39.7,20.5,39.7,20.5,39.7z"/>
	<path fill="#FFFFFF" d="M32.6,46.1c0,0,3.7,0,3.7-3.7s-3.7-3.7-3.7-3.7s-3.8,0.1-3.7,3.7C29.1,46,32.6,46.1,32.6,46.1z"/>
	<path fill="#B92B27" d="M32.6,45.4c0,0,1.4,0.1,1.5-2c0.1-2.1,0-3.8-1.4-3.8c-1.4,0-1.7,1.3-1.7,2.9C31.1,44.1,31.4,45.3,32.6,45.4
		z"/>
	<path fill="#FFFFFF" d="M36.4,39.7v-0.8h2.7l0.1,1.4c0,0,0.6-1.6,1.8-1.6c1.2,0,1.3,0.8,1.3,0.8s0.3,1.4-0.8,1.3
		c-1.1,0-1.2-0.4-1.2-0.4s-0.3-0.2-0.7,0.2c-0.4,0.4-0.3,1-0.3,1v3c0,0,0,0.5,0.6,0.5c0.6,0,0.7,0,0.7,0l0,0.8h-4.2v-0.8H37
		c0,0,0.5,0,0.5-0.5s0-4.6,0-4.6s0-0.4-0.5-0.4S36.4,39.7,36.4,39.7z"/>
	<path fill="#FFFFFF" d="M49.8,45.2l-0.2-0.5c0,0-1,0.3-1-0.4s0-3.7,0-3.7s0-1.9-2.6-1.9c-2.6,0-3,0.9-3.1,1.2s-0.2,1,0.5,1.1
		c0.7,0.1,0.9,0,1.2-0.6c0.3-0.6,0.4-0.9,1.1-0.9s0.9,0.5,0.9,0.8c0,0.3,0,0.8,0,0.8s-0.4,0.6-1.3,0.9s-2.8,0.7-2.7,2.1
		c0.1,1.4,0.8,1.9,1.5,1.9c0.8,0,1.9,0.1,2.6-1.2c0,0,0.1,1,1.1,1.1C48.8,46,49.2,45.9,49.8,45.2z"/>
	<path fill="#B92B27" d="M46.7,43.6c0,0-0.3,1.3-0.9,1.3c-0.6,0-1.1,0.1-1.2-0.7c0,0-0.1-0.8,0.4-1.1s1.6-0.8,1.7-0.9"/>
</g>
</svg>
