<?xml version="1.0" encoding="utf-8"?>
<!-- Generator: Adobe Illustrator 22.1.0, SVG Export Plug-In . SVG Version: 6.00 Build 0)  -->
<svg version="1.0" id="Направляющие" xmlns="http://www.w3.org/2000/svg" xmlns:xlink="http://www.w3.org/1999/xlink"
	 x="0px" y="0px" viewBox="0 0 60 85" enable-background="new 0 0 60 85" xml:space="preserve">
<rect id="reddit" fill="#FF4500" width="60" height="85"/>
<g id="Group_54" transform="translate(2318 -61)">
	<g id="Group_53" transform="translate(334 460)">
		<g id="Group_52" transform="translate(-4.675 -103)">
			<ellipse id="Ellipse_37" fill="#FFFFFF" cx="-2617.4" cy="-249.4" rx="13.7" ry="9.1"/>
			<path id="Path_148" fill="#FF4500" d="M-2622-253.3c1.2,0,2.1,1,2.1,2.1s-1,2.1-2.1,2.1s-2.1-1-2.1-2.1S-2623.2-253.3-2622-253.3
				z"/>
			<path id="Path_147" fill="#FF4500" d="M-2612.4-253.3c1.2,0,2.1,1,2.1,2.1s-1,2.1-2.1,2.1s-2.1-1-2.1-2.1
				S-2613.6-253.3-2612.4-253.3z"/>
			<g id="Ellipse_40" transform="translate(137.675 547.541) rotate(-42)">
				<circle fill="none" cx="-1520.2" cy="-2447" r="3.6"/>
				<circle fill="none" stroke="#FFFFFF" stroke-width="3" cx="-1520.2" cy="-2447" r="3"/>
			</g>
			<g id="Ellipse_41" transform="translate(204.675 547.541) rotate(-42)">
				<circle fill="none" cx="-1552.3" cy="-2475.8" r="3.6"/>
				<circle fill="none" stroke="#FFFFFF" stroke-width="3" cx="-1552.3" cy="-2475.8" r="3"/>
			</g>
			<path id="Path_145" fill="none" stroke="#FF4500" stroke-width="3" d="M-2622.2-245.4c0,0,2.5,1.9,5.4,1.7
				c1.7-0.1,3.3-0.7,4.6-1.7"/>
			<g id="Ellipse_42" transform="translate(208 513)">
				<circle fill="#FF4500" cx="-2814.5" cy="-776.4" r="2.8"/>
				<circle fill="none" stroke="#FFFFFF" stroke-width="3" cx="-2814.5" cy="-776.4" r="2.3"/>
			</g>
			<path id="Path_146" fill="none" stroke="#FFFFFF" stroke-width="3" d="M-2617.7-257.5c0,0,2.7-7.7,2.8-7.7c0.1,0,5.6,1.3,5.6,1.3
				"/>
		</g>
	</g>
	
		<ellipse id="Ellipse_43" transform="matrix(0.4068 -0.9135 0.9135 0.4068 -1462.1395 -2028.5101)" fill="#FF4500" cx="-2293" cy="111.6" rx="0.5" ry="0.7"/>
	
		<ellipse id="Ellipse_44" transform="matrix(0.7772 -0.6292 0.6292 0.7772 -578.8438 -1411.587)" fill="#FF4500" cx="-2283" cy="111.7" rx="0.7" ry="0.5"/>
</g>
</svg>
