<?xml version="1.0" encoding="utf-8"?>
<!-- Generator: Adobe Illustrator 25.0.0, SVG Export Plug-In . SVG Version: 6.00 Build 0)  -->
<svg version="1.2" baseProfile="tiny" xmlns="http://www.w3.org/2000/svg" xmlns:xlink="http://www.w3.org/1999/xlink" x="0px"
	 y="0px" viewBox="0 0 60 85" overflow="visible" xml:space="preserve">
<g id="фоны">
	<rect id="rottentomatoes" fill="#F3F3F3" width="60" height="85"/>
</g>
<g id="лого">
	<g id="Rotten_Tomatoes">
		<path fill="#F93208" d="M16.0278854,38.0520859l-0.4595604-0.0059624v-5.8032951h1.3864212
			c1.495451,0,1.6216755,0.007164,1.9867687,0.1130981c0.5923786,0.1718559,1.0446014,0.544342,1.2937851,1.0656967
			c0.1211815,0.2534866,0.1686459,0.4562378,0.1811428,0.7730637c0.0280876,0.7159691-0.2756691,1.3384972-0.8133602,1.6670761
			c-0.1610794,0.098423-0.1685314,0.1062202-0.1422768,0.147892c0.0707378,0.1124115,1.1886559,2.0377312,1.1886559,2.0471878
			c0,0.0058479-0.4266567,0.0106621-0.9481277,0.0106621h-0.9480114l-0.5503044-0.9267464
			c-0.3026676-0.509716-0.5619411-0.9426804-0.5761566-0.9621124c-0.0192604-0.0263672-0.0683861-0.0382919-0.1924915-0.046833
			l-0.1665821-0.0114059l0.0104332,0.9735184l0.010376,0.9735222l-0.4005756-0.0047569
			c-0.220293-0.0025787-0.6073971-0.0074501-0.860136-0.0107193C16.0278854,38.0519714,16.0278854,38.0520859,16.0278854,38.0520859
			z M18.0744991,34.8145256c0.387907-0.0816307,0.5863037-0.2675285,0.6080284-0.5696793
			c0.0151901-0.2113533-0.0350246-0.3555222-0.1693325-0.4862175c-0.1779327-0.1732903-0.4263134-0.2333069-0.9702549-0.2345657
			l-0.287075-0.000576l0.0134144,0.1890526c0.0073948,0.1039848,0.0134144,0.4074554,0.0134144,0.6744652v0.4853592
			l0.3253078-0.0140457C17.7869663,34.8505821,17.9968834,34.8308601,18.0744991,34.8145256z"/>
		<path fill="#F93208" d="M22.498539,38.1495361c-0.5116119-0.057724-0.9628601-0.2854691-1.3274364-0.6698799
			c-0.4140453-0.4366302-0.6368027-0.9740372-0.6604214-1.5934143c-0.0126667-0.3317871,0.0123825-0.5514526,0.0916042-0.8025284
			c0.2984238-0.9462929,1.1449165-1.510067,2.3338604-1.5543785c0.2029819-0.0075645,0.381773-0.0024643,0.5060501,0.0143318
			c1.0203552,0.1385498,1.7707157,0.8495293,1.9941635,1.8893738c0.0472336,0.2199516,0.0467758,0.723938-0.000803,0.9326515
			c-0.1969643,0.86409-0.8045902,1.4613991-1.7187252,1.6896629c-0.3619957,0.0903969-0.8901157,0.1312103-1.2184067,0.0941238
			L22.498539,38.1495361L22.498539,38.1495361z M23.0597324,37.4586182
			c0.2004604-0.0595589,0.2830048-0.1688194,0.2808285-0.3718567c-0.0007458-0.0681572-0.0162811-0.163372-0.0345669-0.2116966
			c-0.0960159-0.2541122-0.0952129-0.2508469-0.0719414-0.3019218c0.0124969-0.0273972,0.0451717-0.0600739,0.0726299-0.0725708
			c0.0662079-0.0301514,0.1057606-0.0041847,0.1952419,0.1282921c0.1270294,0.1880188,0.3558636,0.4018364,0.504446,0.4714241
			c0.1191177,0.0557213,0.1525936,0.0624275,0.2776165,0.0553169c0.1241627-0.0069923,0.1566639-0.0179977,0.256464-0.0867271
			c0.1310406-0.090229,0.166296-0.1637154,0.1650925-0.3437119c-0.0012627-0.1803398-0.0948143-0.3292084-0.2808285-0.4468346
			c-0.1137867-0.0719986-0.355978-0.1460609-0.5322456-0.1627998c-0.2247086-0.0213814-0.3040428-0.0580101-0.3327045-0.1538544
			c-0.027916-0.0931511,0.0014324-0.1695633,0.090456-0.2354279c0.0453434-0.0335922,0.1008892-0.0448837,0.2685032-0.0546837
			c0.1349392-0.0078545,0.2344513-0.0245934,0.2753811-0.0462608c0.2926922-0.1548882,0.3117237-0.657383,0.0322723-0.8515968
			c-0.0781879-0.0543404-0.1070786-0.0621376-0.2272301-0.061451c-0.2766991,0.0015488-0.4638596,0.1826897-0.5521374,0.5345993
			c-0.0071659,0.0284309-0.034853,0.075264-0.0616226,0.1040993c-0.0565205,0.0609932-0.1627979,0.0702782-0.2555485,0.0223541
			c-0.0934372-0.048378-0.1054745-0.1544266-0.0516472-0.4577255c0.0668964-0.3773575,0.0305538-0.5354004-0.1469193-0.6393852
			c-0.1129837-0.0662079-0.3138466-0.0894241-0.4331932-0.0500412c-0.1052456,0.0347366-0.2423058,0.1754646-0.2738914,0.2811699
			c-0.0636272,0.2131271-0.0131836,0.3481827,0.2228737,0.595932c0.0991688,0.1040993,0.1863003,0.2083702,0.1937523,0.2317009
			c0.0338211,0.106678-0.0948124,0.2291222-0.2134151,0.2030983c-0.0676403-0.014904-0.1320152-0.0804253-0.2366867-0.2411613
			c-0.1681862-0.2583542-0.4030972-0.3408432-0.6345119-0.2227554c-0.1990833,0.1015739-0.2506161,0.3310394-0.1184292,0.5272026
			c0.0766983,0.113842,0.2143898,0.1897392,0.4264851,0.2350235c0.3071384,0.0656357,0.3936386,0.1323013,0.3098316,0.2388077
			c-0.0434494,0.0552597-0.0475769,0.056179-0.1905994,0.0405846c-0.2158222-0.0234451-0.2994556-0.0147896-0.4193192,0.043396
			c-0.1249638,0.0606461-0.1794224,0.1277161-0.2134151,0.2627678c-0.0682144,0.2708549,0.1226711,0.5108109,0.4052753,0.5096054
			c0.1488113-0.0006866,0.261797-0.0621376,0.450676-0.2449989c0.2086563-0.2020645,0.2459164-0.2233887,0.3132725-0.1792526
			c0.0737171,0.0483246,0.0829468,0.1199226,0.032444,0.2519379c-0.1148758,0.3001442-0.0088844,0.6122131,0.2378922,0.7001457
			c0.1034107,0.0368576,0.1433067,0.0367432,0.2694187-0.0006866V37.4586182L23.0597324,37.4586182z M27.7751465,38.0669899
			c-0.7754116-0.0495834-1.1954784-0.2654076-1.4263172-0.7325363c-0.1601048-0.3240471-0.1979961-0.5966187-0.217598-1.5646362
			l-0.0132408-0.6557808h-0.1083431c-0.0596161,0-0.1515045-0.0059013-0.2041855-0.0131836l-0.0958443-0.0130692v-1.4195557
			h0.4337635v-1.2393265h1.6936741v1.2393265h0.7022686v1.4665604h-0.7022667l0.0000572,0.655777
			c0.0000572,0.6139336,0.002636,0.6600227,0.0404129,0.7219315c0.070507,0.1156197,0.1256504,0.1301231,0.4955025,0.1301231
			h0.331501v1.4457512l-0.3459473-0.0030937c-0.1903133-0.0017204-0.4528542-0.0099182-0.5834923-0.0182304l0.0000572-0.0000572
			H27.7751465z M30.9193287,38.0457802c-0.8959045-0.0865593-1.3058243-0.4479256-1.4415665-1.2708015
			c-0.0240765-0.1456566-0.0375462-0.4106064-0.0470047-0.9206123c-0.0072803-0.3938103-0.0209808-0.7238197-0.0304394-0.7332191
			c-0.0094585-0.0094604-0.1047287-0.0204086-0.2117519-0.0243645l-0.1944981-0.0071068v-1.4419098h0.4593315l-0.0152473-0.6196671
			l-0.0152473-0.6196632h1.6986027v1.259964h0.7022686v1.4458084h-0.7043877l0.0061913,0.6660995
			c0.0056744,0.6038437,0.0097466,0.6712532,0.0438538,0.7214699c0.0806541,0.1188316,0.1196918,0.1298943,0.4839211,0.1374626
			l0.3356285,0.0068779v1.4216156l-0.4492416-0.0027504c-0.2470646-0.0015488-0.526228-0.0103188-0.6204109-0.0193748v0.0001717
			H30.9193287z M34.3484077,37.1581879c-0.71035-0.0894852-1.3702545-0.4456329-1.6943016-0.9144249
			c-0.3063965-0.443222-0.4622574-0.9422226-0.4626007-1.4808884c-0.0004578-0.7781067,0.3387794-1.4053383,0.9967384-1.843174
			c0.4121513-0.2742348,0.7305832-0.3640022,1.3516808-0.3811989c0.3165398-0.0087128,0.4009171-0.0042419,0.5680733,0.030323
			c0.3285789,0.0679283,0.6147346,0.2029266,0.8534889,0.4026413c0.2126694,0.1779289,0.450386,0.5285759,0.5703087,0.8412743
			c0.1437073,0.3748398,0.2250519,0.9763298,0.1739197,1.2857628l-0.0128403,0.0774422h-1.4947624
			c-0.8221321,0-1.4947624,0.0078545-1.4947624,0.0174866c0,0.0095711,0.0357132,0.072628,0.079277,0.1400948
			c0.1906013,0.2948723,0.4943008,0.4418488,0.9113274,0.4411049c0.3122406-0.0005722,0.6071701-0.0827179,0.8180046-0.2277451
			l0.0848389-0.0584145l0.4733162,0.4445419c0.1672325,0.1569023,0.3342705,0.3140068,0.5011215,0.4713135
			c0.0431061,0.0414429,0.0032654,0.0946999-0.1808548,0.2420197c-0.283638,0.2270012-0.6318169,0.3832054-1.0511398,0.4717712
			c-0.2315292,0.0488968-0.7531128,0.0699348-0.9907761,0.0400085L34.3484077,37.1581879z M35.2232208,34.283596
			c-0.0342216-0.213932-0.1601639-0.3739777-0.3724327-0.47332c-0.2323303-0.1087418-0.5355148-0.0992851-0.7775307,0.0241928
			c-0.1641769,0.0836906-0.3169975,0.2794495-0.3575249,0.4577255l-0.0127258,0.0559464L33.8736,34.3551331
			c0.0938377,0.0038414,0.4390411,0.008831,0.7670441,0.0111809l0.5964508,0.0041847L35.2232208,34.283596L35.2232208,34.283596z
			 M37.0907555,35.8576355v-2.2307358h1.6730385v0.3098335c0,0.1704216,0.0069923,0.3097725,0.0154762,0.3096581
			c0.0085411,0,0.0619659-0.056633,0.1187744-0.1256523c0.1909981-0.2321587,0.4872437-0.4394951,0.7656059-0.5358582
			c0.8703995-0.3013458,1.7996674,0.3764992,1.9289322,1.4070015c0.0131836,0.1058197,0.0216103,0.7352295,0.0216103,1.6243134
			v1.4515381h-1.693676v-2.6357231l-0.0547981-0.1100616c-0.0902252-0.1809692-0.2703362-0.2865028-0.4925804-0.2885094
			c-0.2497559-0.0022354-0.4361725,0.1501884-0.5333939,0.4362335c-0.0427628,0.1258812-0.0443115,0.1669807-0.0507317,1.3742676
			l-0.0065918,1.2444878h-1.6916084v-2.2307358l-0.000061-0.0000572H37.0907555z M37.6915054,43.3550644
			c-0.5037575-0.070507-0.9875107-0.2909164-1.3092651-0.5965652c-0.3979378-0.3780441-0.6338806-0.9664688-0.6338806-1.5809174
			c0-0.6410446,0.2907982-1.2074013,0.8403015-1.6365242c0.0955582-0.0746346,0.1703072-0.1390648,0.1661224-0.1431923
			c-0.0041275-0.0041847-0.1627388,0.0029831-0.3523674,0.0159378c-0.1896248,0.0129547-0.3502426,0.0181122-0.3568382,0.0114632
			c-0.0203476-0.0203514,0.1101761-0.1928368,0.1994858-0.2635727c0.1828613-0.1447983,0.412674-0.1960449,0.6315308-0.1410141
			c0.1641769,0.0413857,0.1582146,0.0006866-0.0303802-0.2057915l-0.1683006-0.1844673l0.1116638-0.0954437
			c0.061451-0.0524483,0.1161957-0.0953865,0.1216431-0.0953865c0.0054436,0,0.0770988,0.1070251,0.1592445,0.2378349
			c0.0821457,0.1308136,0.1569519,0.2424774,0.1662369,0.2482109c0.0091705,0.0057335,0.0505028-0.0404701,0.0918312-0.1026649
			c0.1779327-0.2681007,0.4301529-0.38871,0.6721725-0.3215256c0.1621094,0.0450554,0.1621094,0.0544548,0.000515,0.2564621
			c-0.080307,0.1004295-0.1460571,0.1841812-0.1460571,0.1861877s0.1660652-0.0002861,0.3690453-0.0051041
			c0.7128143-0.0167961,1.1880226,0.0922356,1.5867653,0.3640594c0.1366005,0.0930939,0.3377495,0.2972221,0.4385223,0.4450035
			c0.077961,0.1141853,0.2908592,0.5528259,0.3406715,0.7016373c0.1073112,0.3211823,0.1234741,0.8890839,0.0347404,1.2223625
			c-0.0626564,0.2353096-0.2236176,0.5494995-0.3826904,0.747036c-0.3592491,0.4461479-0.9427948,0.7759285-1.6021881,0.905365
			c-0.204586,0.0401268-0.753685,0.0578957-0.9485855,0.0306091h0.0000572H37.6915054z M43.1223145,43.4158249
			c-0.449131-0.0569191-0.8530273-0.2046432-1.2283249-0.4492416c-0.429348-0.2797966-0.7525368-0.8013802-0.891716-1.4391022
			c-0.0449982-0.2060776-0.0596771-0.6290627-0.0291214-0.8380089c0.106678-0.7296677,0.5520248-1.316143,1.2771645-1.6818085
			c0.1374016-0.0693016,0.2546883-0.1091423,0.4417343-0.150013c0.231472-0.0506172,0.2941818-0.0557175,0.6884537-0.0557747
			c0.387619,0,0.4524498,0.0049858,0.6093445,0.047348c0.7338524,0.1980515,1.2390442,0.7765007,1.428154,1.6352615
			c0.039669,0.1801071,0.0478058,0.2781334,0.0482063,0.5783348l0.0004616,0.3614235l-1.5022163,0.0103149l-1.5022125,0.0103188
			l0.0632286,0.1106911c0.1798248,0.3148766,0.500206,0.4780197,0.9386711,0.4780197
			c0.3087997,0,0.6412735-0.0959015,0.828949-0.2390366l0.0675278-0.0514755l0.5075417,0.4789925l0.5075378,0.4789925
			l-0.078476,0.0808258c-0.455204,0.4691353-1.3705978,0.7359161-2.1749611,0.6339951l0.0000572-0.0000572H43.1223145z
			 M44.0018806,40.5618706c-0.0442505-0.2805405-0.2625389-0.479908-0.5861893-0.5353966
			c-0.4185181-0.0717697-0.8341103,0.1731148-0.9241638,0.5446854c-0.0134697,0.055603-0.0131836,0.0557747,0.1175117,0.0631676
			c0.072113,0.0040131,0.4181175,0.0091743,0.7689323,0.0113525l0.6377792,0.0040131l-0.0138741-0.087822H44.0018806z
			 M47.2014389,43.4376068c-0.2376633-0.0269394-0.545948-0.0960732-0.7514534-0.1685867
			c-0.2878761-0.1015778-0.7253685-0.3362579-0.7253685-0.3890533c0-0.0171967,0.6038437-1.0789375,0.6330795-1.1132164
			c0.0040703-0.0048141,0.1351662,0.0568657,0.2913132,0.137001c0.4284363,0.2199516,0.6245384,0.2785912,0.9242249,0.2762985
			c0.2411575-0.0018921,0.395874-0.0431633,0.4699364-0.1253662c0.103241-0.1146469,0.0559464-0.2811127-0.0932655-0.3284035
			c-0.0367432-0.0116386-0.2109489-0.0203514-0.3869324-0.0193176c-0.2238503,0.0012589-0.36446-0.0080261-0.467186-0.0311279
			c-0.5856171-0.1312714-1.0430565-0.509201-1.2295876-1.0159988c-0.0371437-0.1007156-0.0458565-0.169735-0.0471191-0.3715668
			l-0.0014915-0.2478676l0.0888519-0.1858406c0.2571526-0.5379791,0.7567825-0.9217606,1.3631477-1.0468979
			c0.1663513-0.0343933,0.2548027-0.0397797,0.5204964-0.0320435c0.3447418,0.0100899,0.5505905,0.0470047,0.8684502,0.1557465
			c0.326683,0.1117821,0.7715149,0.3209534,0.7692757,0.3618279c-0.0004578,0.0093422-0.1296654,0.2349091-0.2870712,0.5012321
			c-0.2197227,0.3717995-0.2934952,0.4810028-0.3175697,0.4702797c-0.1157951-0.05159-0.6385841-0.2178268-0.7748985-0.2464905
			c-0.0909157-0.0190849-0.2585831-0.0358849-0.3726578-0.0372581c-0.2201767-0.0026932-0.2831764,0.0177689-0.3653183,0.1188316
			c-0.056179,0.0691299-0.0477524,0.2017784,0.0166206,0.26231c0.051136,0.0480385,0.0666695,0.0503311,0.377018,0.0557785
			c0.7684212,0.0134697,1.2485008,0.1799927,1.5884285,0.5510483c0.2029228,0.2213821,0.3086281,0.4741783,0.3292084,0.7870483
			c0.0292892,0.4444275-0.1289787,0.8309593-0.4746399,1.1593056c-0.2372055,0.2252808-0.3321304,0.2830048-0.6424217,0.3905449
			c-0.337635,0.1169968-0.916481,0.1755219-1.3031273,0.1317291l0.0000572,0.0000572V43.4376068z M34.472229,43.2943001
			c-0.1785622-0.0085983-0.4874191-0.05056-0.6209259-0.0844383c-0.6214447-0.1576385-0.9204979-0.5136147-1.0372086-1.2344551
			c-0.0159378-0.098484-0.0273438-0.3554039-0.0392647-0.8854179l-0.0167961-0.7466354l-0.0959053-0.0090561
			c-0.0695419-0.0057259-0.1392784-0.0087852-0.2090569-0.0091705l-0.1132126-0.0001144v-1.4459229h0.4515915l-0.0069923-0.5221024
			c-0.0038986-0.2871895-0.0097466-0.5665245-0.0131874-0.620697l-0.006134-0.0985947h1.7070885v1.2560654h0.7010651v1.4604836
			h-0.7010651l0.0001144,0.6243668c0,0.3905983,0.0057907,0.6450005,0.0154228,0.6795654
			c0.0190315,0.0686188,0.0929794,0.1546021,0.1554031,0.1806831c0.0349655,0.0145607,0.1329918,0.0197182,0.3763275,0.0197182
			h0.3290367v1.4459229l-0.3906593-0.0028076C34.7429657,43.3001442,34.5245056,43.2968216,34.472229,43.2943001
			L34.472229,43.2943001z M28.7393246,43.4364624c-0.3478374-0.0515327-0.6982555-0.2441978-1.0340538-0.5686493
			c-0.2072239-0.2001724-0.3251381-0.3584976-0.441391-0.5926056c-0.1736889-0.3498459-0.239439-0.6210976-0.2514763-1.0377808
			c-0.0114651-0.3996582,0.03405-0.7075424,0.1577549-1.0662155c0.1280022-0.3712807,0.2548008-0.5853844,0.4795074-0.8096924
			c0.4852409-0.484436,1.067934-0.6765289,1.623455-0.5352249c0.3214111,0.0817413,0.5838375,0.2347946,0.8646069,0.5043297
			l0.1278305,0.122673v-0.5445709h1.5919838v4.4107971h-1.5919838v-0.2774467c0-0.1526489-0.0042992-0.2775574-0.0095711-0.2775574
			c-0.0052166,0-0.0699348,0.0607605-0.1438255,0.1351089c-0.4049301,0.4073982-0.9109802,0.605278-1.3728924,0.5368919
			l0.0000572-0.0000572H28.7393246z M29.753088,41.8132362c0.3316727-0.1630821,0.5216408-0.6396675,0.4009171-1.0058479
			c-0.0663242-0.2013206-0.2441978-0.3680191-0.4742355-0.4444313c-0.2221851-0.0737152-0.3789062-0.0656319-0.5793095,0.0300407
			c-0.2586994,0.1234741-0.4122677,0.3784485-0.4122677,0.6846085c0,0.2228737,0.0728569,0.4014359,0.2264271,0.5550079
			c0.230669,0.2306671,0.582634,0.3065071,0.8384686,0.1806793V41.8132362L29.753088,41.8132362z M24.9152889,43.0248795
			c-0.0052738-0.16996-0.0102596-0.6514206-0.0110054-1.0698242c-0.0007458-0.418457-0.0057335-0.885643-0.0110054-1.0382957
			c-0.010891-0.3153915-0.0243626-0.3616524-0.1382065-0.4761276c-0.1331635-0.1339073-0.3626842-0.1824608-0.5422802-0.1147041
			c-0.1574669,0.0593872-0.2772732,0.2178307-0.3135586,0.4146194c-0.0107193,0.0582962-0.0159359,0.4917183-0.0159359,1.325428
			v1.2387581h-0.8471222c-0.4659252,0-0.8484421-0.0017204-0.8500481-0.0036697
			c-0.0016041-0.0020065-0.0065346-0.5951881-0.0109482-1.3181496l-0.0080242-1.3144798l-0.0496426-0.0915451
			c-0.0571499-0.1053581-0.1285191-0.1751213-0.2382927-0.2328453c-0.0686722-0.0361137-0.0925198-0.0405846-0.2159367-0.0406418
			c-0.1166534,0-0.1487541,0.0053291-0.2014332,0.0334167c-0.1384926,0.0738335-0.2430515,0.2320442-0.291605,0.4411621
			c-0.0232735,0.1004868-0.0249348,0.2102051-0.0200634,1.325428l0.0052738,1.2158279H19.462698l-0.0097446-1.3168335
			c-0.0052738-0.7242775-0.0096874-1.7265739-0.0096874-2.2272949v-0.910408h1.6787701l0.0040684,0.2079124
			c0.0034409,0.1781044,0.007452,0.2086563,0.0277443,0.2124977c0.0139294,0.0026932,0.0768719-0.0481529,0.1533413-0.1239357
			c0.1547718-0.1533966,0.2896538-0.2342796,0.5231323-0.3138428c0.6350269-0.2163391,1.2635193-0.0660934,1.7338009,0.4144478
			l0.1262817,0.1290321l0.039669-0.0676956c0.1861286-0.3175735,0.7085724-0.5460625,1.248558-0.5460625
			c0.4474068,0,0.8469505,0.1523056,1.1297264,0.4306107c0.2933826,0.2887383,0.4691334,0.7324219,0.4975662,1.2562981
			c0.0044136,0.0803108,0.0117512,0.7589035,0.0163956,1.5080032l0.0083694,1.3619461h-1.7058277l-0.0096302-0.3090897
			l0.0000591,0.000061L24.9152889,43.0248795z M16.141386,43.3854446c-0.3492708-0.057209-0.6030416-0.1550598-0.8825493-0.3402138
			c-0.6655235-0.440815-1.0775061-1.2844429-1.0395584-2.128643c0.0464325-1.0344582,0.71035-1.8133659,1.7552395-2.0594559
			c0.4574966-0.1077652,0.9788532-0.123703,1.3795433-0.0422478c0.7011204,0.1426239,1.3052502,0.6227608,1.6153126,1.2837563
			c0.3018646,0.6436272,0.311552,1.3779373,0.0262547,1.9925575c-0.3208389,0.6910896-0.9819489,1.1387863-1.8891468,1.2792282
			c-0.2154217,0.0333595-0.7977695,0.0424194-0.9649811,0.0150185H16.141386L16.141386,43.3854446z M16.8946133,41.807621
			c0.2549744-0.0535393,0.4654655-0.2117538,0.5763874-0.4333649c0.0573235-0.1145325,0.0589848-0.1218681,0.0587559-0.2658081
			c-0.0002289-0.1720848-0.0269432-0.3004875-0.0884495-0.4253387c-0.2110081-0.4287758-0.7354584-0.5973091-1.1789112-0.3790207
			c-0.2173138,0.1069641-0.40413,0.3566666-0.4449444,0.5946159c-0.0642023,0.3748932,0.2182865,0.8200645,0.5879078,0.9265137
			c0.0802536,0.0231018,0.3398132,0.0137596,0.4893112-0.0175972H16.8946133z"/>
		<path fill="#F93208" d="M11.6001778,41.2163315v-2.1031342h-1.5335131v-1.6395607l2.3186131,0.0107765
			c1.2752132,0.0059624,2.3235416,0.0137596,2.3295603,0.0173683c0.0060196,0.0036125,0.0109491,0.3643494,0.0109491,0.8016663
			v0.7950745h-1.4897175v4.2210007h-1.6357775v-2.1031914H11.6001778L11.6001778,41.2163315z"/>
	</g>
</g>
</svg>
