<?xml version="1.0" encoding="utf-8"?>
<!-- Generator: Adobe Illustrator 22.0.0, SVG Export Plug-In . SVG Version: 6.00 Build 0)  -->
<svg version="1.0" id="Направляющие" xmlns="http://www.w3.org/2000/svg" xmlns:xlink="http://www.w3.org/1999/xlink"
	 x="0px" y="0px" viewBox="0 0 60 85" enable-background="new 0 0 60 85" xml:space="preserve">
<g>
	<rect id="canvas_background" fill="#0088FF" width="60" height="85"/>
</g>
<g>
	<g id="svg_6">
		<path id="svg_4" fill="#FFFFFF" d="M34.1,33.3c6.5-0.1,11.3,5.7,10.8,11.8c-0.2,2.5-1.1,4.7-2.8,6.5c-2.1,2.2-4.2,4.3-6.4,6.5
			C35,58.7,34,59,33,58.5s-1.6-1.2-1.7-2.3c-0.1-0.7,0.1-1.3,0.6-1.8c1.4-1.5,2.9-3,4.3-4.5c0.7-0.7,1.4-1.5,2.1-2.3
			c1.5-1.8,1.7-3.8,0.7-5.8c-1-2.2-2.8-3.2-5.2-3.1c-1.3,0-2.4,0.5-3.4,1.5c-0.9,0.9-1.8,1.8-2.8,2.7c-0.9,0.8-2.1,0.9-3.1,0.3
			c-1-0.6-1.5-1.9-1.2-3c0.1-0.3,0.2-0.5,0.4-0.8c1.3-1.6,2.7-3.1,4.5-4.3C30,33.8,32,33.2,34.1,33.3z"/>
		<path id="svg_5" fill="#FFFFFF" d="M25.8,51.7c-6.3,0-11.2-5.7-10.7-11.8c0.2-2.4,1-4.5,2.6-6.3c2-2.2,4.2-4.3,6.2-6.4
			c0.2-0.2,0.5-0.4,0.8-0.6c1-0.6,2.1-0.5,3.1,0.3c0.8,0.7,1.2,2,0.8,3c-0.2,0.4-0.5,0.7-0.8,1c-1.8,1.9-3.6,3.7-5.4,5.6
			c-0.7,0.7-1.4,1.5-1.7,2.6c-1.1,3.4,1.5,7.4,5.5,7.2c1.3-0.1,2.4-0.5,3.4-1.4c0.9-0.9,1.8-1.8,2.8-2.7c0.9-0.8,2-0.9,3-0.4
			c1,0.6,1.6,1.7,1.3,2.9c-0.1,0.4-0.2,0.8-0.5,1c-1.3,1.6-2.7,3.1-4.5,4.3C29.9,51.2,27.9,51.7,25.8,51.7z"/>
	</g>
</g>
</svg>
