<?xml version="1.0" encoding="utf-8"?>
<!-- Generator: Adobe Illustrator 25.0.0, SVG Export Plug-In . SVG Version: 6.00 Build 0)  -->
<svg version="1.0" xmlns="http://www.w3.org/2000/svg" xmlns:xlink="http://www.w3.org/1999/xlink" x="0px" y="0px"
	 viewBox="0 0 60 85" enable-background="new 0 0 60 85" xml:space="preserve">
<g id="фоны">
	<rect id="snapchat" x="0" fill="#FFFC00" width="60" height="85"/>
</g>
<g id="лого">
	<g id="snapchat_1_">
		<path fill="#FFFFFF" d="M30.2015839,57.4917068c-0.0906448,0-0.1771317-0.0033112-0.2429085-0.0064507
			c-0.0521965,0.0044975-0.1060905,0.0064507-0.1600685,0.0064507c-1.9043026,0-3.1775684-0.9002495-4.3012066-1.6951752
			c-0.8053627-0.5689049-1.5648918-1.1059837-2.4547043-1.2540016c-0.4370098-0.0724792-0.8717327-0.10923-1.291769-0.10923
			c-0.756815,0-1.3549156,0.117382-1.7915897,0.2027626c-0.2687092,0.0523682-0.5004139,0.097435-0.6794968,0.097435
			c-0.1875687,0-0.415453-0.041584-0.5104275-0.3658867c-0.0752831-0.2558098-0.1292629-0.5036392-0.1813736-0.7423019
			c-0.1303673-0.596405-0.2249146-0.9604263-0.4482174-0.9949684c-2.3884172-0.3685188-3.7996044-0.9113693-4.0807047-1.5687981
			c-0.0294504-0.0690842-0.0459166-0.1385956-0.0495653-0.2073441c-0.0109491-0.1959724,0.1273947-0.3678436,0.3205652-0.3998375
			c1.8967466-0.3123322,3.5832644-1.3148575,5.0129538-2.9806633c1.1075115-1.28965,1.6513786-2.5218391,1.7097702-2.6578903
			c0.0025463-0.0061111,0.0055161-0.0125618,0.0085735-0.0184174c0.2755833-0.5591469,0.3304119-1.0423279,0.1634655-1.4357185
			c-0.3077526-0.72575-1.3269939-1.0491142-2.0013103-1.2630806c-0.1677113-0.0530472-0.3263378-0.1032906-0.4527149-0.1534538
			c-0.5977631-0.2361183-1.5808487-0.7350006-1.4498901-1.4235764c0.095396-0.5021095,0.759531-0.8517914,1.2962704-0.8517914
			c0.1490383,0,0.2811012,0.0261421,0.3922844,0.0783386c0.6065025,0.2841568,1.1521549,0.4281883,1.621418,0.4281883
			c0.5835896,0,0.8654518-0.2221985,0.9336052-0.2853432c-0.0168037-0.3113174-0.037344-0.6404533-0.0572052-0.9517708
			c0-0.0003395-0.0004253-0.0040741-0.0004253-0.0040741c-0.1369858-2.1791191-0.3078365-4.8909912,0.3858337-6.4461212
			c2.07617-4.6550426,6.4791355-5.0170269,7.778717-5.0170269c0.034626,0,0.5664444-0.0052605,0.5664444-0.0052605
			c0.0240173-0.0004253,0.0500736-0.0007648,0.0770645-0.0007648c1.3031425,0,5.7152748,0.3624077,7.7927208,5.0202522
			c0.6936684,1.5561485,0.5226479,4.2703094,0.3852386,6.4517212l-0.0064507,0.1043968
			c-0.018837,0.2962074-0.0362396,0.5765419-0.0509224,0.8483086c0.0641632,0.0590706,0.322094,0.2627678,0.8468666,0.28339
			c0.4473686-0.0171432,0.9614449-0.1604958,1.5275459-0.4255562c0.1750107-0.0821571,0.3687744-0.0992165,0.5003319-0.0992165
			c0.1988602,0,0.4011955,0.0387001,0.5698357,0.1090622l0.0089989,0.003479
			c0.480381,0.1705093,0.7950096,0.5112762,0.8017998,0.8692703c0.0060234,0.3337212-0.2419739,0.8325233-1.4617729,1.3142624
			c-0.1249313,0.0494804-0.2843246,0.1000633-0.452713,0.15345c-0.6749153,0.214222-1.693306,0.5374184-2.0010567,1.2627449
			c-0.1671982,0.3933868-0.1122017,0.8764,0.1634674,1.4353752c0.0030556,0.0061111,0.0056839,0.0123062,0.0086555,0.0187569
			c0.0848732,0.1989441,2.1392326,4.8831825,6.7227211,5.638298c0.1930885,0.0321693,0.3316879,0.2042046,0.320652,0.3998375
			c-0.0040703,0.0702782-0.0210457,0.1405525-0.0507545,0.2092133c-0.2791481,0.6537781-1.6902504,1.1958618-4.0793495,1.5648918
			c-0.2242355,0.034626-0.3186989,0.3970375-0.4478722,0.9902992c-0.0534706,0.2450294-0.1078758,0.4852219-0.1821404,0.7376366
			c-0.0695076,0.2373886-0.2241478,0.3534126-0.4724884,0.3534126h-0.0374298c-0.1616859,0-0.3907547-0.0293694-0.6796646-0.0858917
			c-0.5049973-0.0982819-1.0713539-0.1897774-1.7915878-0.1897774c-0.4199524,0-0.8545876,0.0368347-1.2921104,0.10923
			c-0.8888779,0.1480179-1.6483231,0.6842499-2.4522438,1.2525597
			C33.379406,56.5913696,32.1057129,57.4917068,30.2015839,57.4917068"/>
		<path fill="#020202" d="M30.314888,27.8494759c1.226841,0,5.4514923,0.3295612,7.4423637,4.7929611
			c0.6555595,1.4697495,0.4875107,4.1321373,0.3527336,6.2708588c-0.0210495,0.3394089-0.0419273,0.6683769-0.0589027,0.9824905
			l-0.0071297,0.1350327l0.0901337,0.1005745c0.0364113,0.0404015,0.3771782,0.3965302,1.1350975,0.4258118l0.0122223,0.000679
			l0.0127335-0.0002556c0.5010872-0.0190964,1.0654984-0.1747513,1.6784515-0.4618797
			c0.0903053-0.042263,0.2104836-0.0628891,0.3376274-0.0628891c0.1448746,0,0.2988396,0.0272446,0.4258118,0.0807114
			l0.0191841,0.0076408c0.3214111,0.1126251,0.5486183,0.3249779,0.5520973,0.5171318
			c0.0018654,0.1086349-0.0793533,0.4999847-1.2186928,0.9500694c-0.1113548,0.0439644-0.2579308,0.0907288-0.4278488,0.1442871
			c-0.7414551,0.2354355-1.8616066,0.5907173-2.2386169,1.479084c-0.2122688,0.500412-0.154129,1.0909615,0.1726341,1.7550087
			c0.1344376,0.3137779,2.2508354,5.0809364,7.0131607,5.8656731c-0.0009346,0.0225754-0.0067062,0.0472755-0.0194359,0.0763855
			c-0.0807152,0.1901169-0.5937729,0.8469505-3.7863655,1.3395538c-0.4995651,0.0765572-0.6219521,0.6365509-0.7638588,1.287529
			c-0.0512657,0.2330627-0.1033783,0.4683304-0.1750107,0.7113228c-0.0218964,0.0734138-0.0259743,0.0775757-0.1046448,0.0775757
			c-0.0108643,0-0.0235977,0-0.0375175,0c-0.141571,0-0.3564682-0.0293694-0.6055717-0.0782547
			c-0.4536438-0.0883522-1.073391-0.1967354-1.8656807-0.1967354c-0.4421883,0-0.8977051,0.0384483-1.3547478,0.1147499
			c-0.9769745,0.1624451-1.7714767,0.7243919-2.6129074,1.3191833c-1.1300011,0.7984848-2.297945,1.6247292-4.0799427,1.6247292
			c-0.0778294,0-0.1537914-0.0026321-0.2299232-0.0064507l-0.0200291-0.0008507l-0.0201149,0.0015297
			c-0.0437107,0.0038185-0.087759,0.0057716-0.1327419,0.0057716c-1.781744,0-2.9501934-0.825985-4.0796852-1.6247292
			c-0.8416023-0.5947914-1.636528-1.1567383-2.6133308-1.3191833c-0.4566174-0.076046-0.9125576-0.1147499-1.3544903-0.1147499
			c-0.7921219,0-1.412632,0.1212006-1.8653431,0.2097244c-0.2491035,0.0487175-0.4647675,0.0904732-0.6059113,0.0904732
			c-0.1155968,0-0.1178036-0.0067863-0.1422462-0.0903053c-0.0716324-0.2431602-0.1240005-0.4840317-0.1750107-0.7167549
			c-0.1422462-0.6516571-0.264719-1.2147064-0.7640305-1.2913437c-3.1923361-0.4930267-3.7054796-1.1509666-3.7864494-1.3405762
			c-0.0126457-0.0298729-0.0183325-0.055336-0.0196056-0.0779114c4.7622375-0.7840614,6.878212-5.5513878,7.0130749-5.8663559
			c0.3273544-0.6635361,0.3854065-1.2540016,0.1724625-1.7550087c-0.3770046-0.8878593-1.496994-1.2436447-2.2379379-1.4786606
			c-0.1703396-0.053894-0.3170013-0.1007462-0.4284401-0.1447067c-0.9621239-0.3801498-1.2580757-0.7630959-1.2141113-0.9951401
			c0.0510101-0.2676086,0.514925-0.539711,0.9197712-0.539711c0.0909843,0,0.1707649,0.0146828,0.2297516,0.0422668
			c0.6575146,0.3081741,1.2577362,0.4644279,1.7842064,0.4644279c0.8275986,0,1.1959476-0.3850708,1.2355003-0.4290352
			l0.0897102-0.1003189l-0.0072136-0.1343536c-0.0167179-0.3139496-0.037344-0.6428337-0.0590725-0.9815598
			c-0.1343555-2.1392326-0.3024025-4.799839,0.3529015-6.2696724c1.9834881-4.4470158,6.1875134-4.7898197,7.4285297-4.7898197
			c0.0305538,0,0.5700951-0.0055161,0.5700951-0.0055161C30.2646427,27.8498154,30.2891712,27.8494759,30.314888,27.8494759
			 M30.314888,27.0823917h-0.001442c-0.0282631,0-0.0548286,0-0.0801201,0.0003376
			c-0.2016602,0.002037-0.5331764,0.0052624-0.5629654,0.0056019c-0.7270241,0-2.1816635,0.1026974-3.7441807,0.7923775
			c-0.8933754,0.3940659-1.6969547,0.9269009-2.3883343,1.5837345c-0.8242893,0.7826157-1.4958057,1.7475395-1.9955387,2.8683777
			c-0.7318611,1.6411057-0.5581245,4.4053421-0.4185944,6.6267319l0.0005093,0.003479
			c0.0149384,0.2378998,0.0306396,0.4863243,0.0449829,0.7283821c-0.1073666,0.0493088-0.2814407,0.1013374-0.5380096,0.1013374
			c-0.4128246,0-0.9037323-0.1319771-1.4587173-0.3920288c-0.1632977-0.076046-0.349678-0.1144943-0.5553265-0.1144943
			c-0.3304119,0-0.6787319,0.0972672-0.9808807,0.2749062c-0.3801479,0.223217-0.6257706,0.5386887-0.6924801,0.8884544
			c-0.0439644,0.2313652-0.0418415,0.6886597,0.4661236,1.1524086c0.2794037,0.2552986,0.6898499,0.4907379,1.2196293,0.700119
			c0.1390209,0.0547409,0.3040161,0.1070213,0.4787693,0.1624451c0.6064167,0.192749,1.5242367,0.4839478,1.7635784,1.0472488
			c0.1212845,0.2855988,0.069088,0.6614189-0.1547222,1.1156578c-0.0058575,0.012394-0.011713,0.0245285-0.0170593,0.037262
			c-0.0559311,0.130619-0.5777321,1.312561-1.6480675,2.5590973c-0.6082001,0.7088585-1.2781067,1.3012772-1.9900246,1.7612915
			c-0.8689327,0.5616035-1.8091564,0.9287643-2.794281,1.0910454c-0.3868523,0.0634842-0.6631145,0.4081535-0.6415567,0.7998466
			c0.0066204,0.1128807,0.0331001,0.2254219,0.0790167,0.3343124c0.0003395,0.000679,0.0007639,0.001358,0.0011034,0.0019531
			c0.1564217,0.3658905,0.519084,0.6766968,1.1086988,0.9508362c0.7204895,0.3346558,1.7980404,0.6161804,3.2024384,0.8364258
			c0.0709534,0.1349487,0.1446247,0.474102,0.195631,0.7063141c0.0533848,0.2468109,0.1090622,0.5005836,0.1884193,0.7701416
			c0.085638,0.2920494,0.3077507,0.6410484,0.8783531,0.6410484c0.2162571,0,0.4649353-0.0487175,0.7529106-0.1045647
			c0.4217339-0.0827522,0.9984493-0.1956329,1.7182579-0.1956329c0.3990726,0,0.8126621,0.035141,1.2289658,0.1043129
			c0.802475,0.1335907,1.494276,0.6222878,2.2947159,1.1882248C26.4462795,56.9375725,27.7724266,57.875,29.7986031,57.875
			c0.055254,0,0.1106739-0.0017815,0.1654186-0.0056038C30.0309868,57.8725357,30.1139927,57.875,30.2015839,57.875
			c2.0267715,0,3.3525772-0.937767,4.5228958-1.7652779l0.0018654-0.0016975
			c0.8006096-0.565258,1.4916496-1.0532761,2.293869-1.1868668c0.4161377-0.069088,0.8296356-0.1043129,1.2288818-0.1043129
			c0.6876411,0,1.2321053,0.0876732,1.7182579,0.1824799c0.3172531,0.0624657,0.5638123,0.0925102,0.7529945,0.0925102
			l0.0185051,0.0003395h0.0191803c0.4173241,0,0.7239723-0.2290726,0.841011-0.6299286
			c0.0777435-0.2638702,0.1332512-0.5116997,0.1879959-0.7626724c0.047699-0.2176132,0.1239166-0.5664444,0.19487-0.7028351
			c1.4053307-0.2206688,2.48246-0.5015984,3.2030334-0.8361702c0.5882568-0.2728653,0.9504929-0.5833321,1.1078491-0.9476929
			c0.0471916-0.10923,0.0747719-0.2224503,0.0809669-0.3377113c0.0221481-0.3910103-0.2545395-0.7363586-0.6416435-0.7998466
			c-4.3781853-0.7215919-6.3505516-5.220211-6.4321213-5.4113464c-0.0052605-0.0125618-0.0112038-0.0250359-0.0173988-0.0371704
			c-0.2238121-0.4544144-0.2754974-0.8298073-0.154129-1.1159172c0.2388382-0.5627937,1.1560555-0.8539925,1.7629013-1.0466537
			c0.1756897-0.0553398,0.3412743-0.1079597,0.4791946-0.1624489c0.5974236-0.2359467,1.0244217-0.4919243,1.3061142-0.7826157
			c0.3364334-0.3465385,0.4019585-0.6785622,0.3978844-0.8958359c-0.0102692-0.5257072-0.4121475-0.9928474-1.0514107-1.2215843
			c-0.2159195-0.0892868-0.4621353-0.1363907-0.7128487-0.1363907c-0.170681,0-0.4234352,0.0234261-0.6626892,0.1351204
			c-0.512207,0.2396812-0.971035,0.3707275-1.3649292,0.3894005c-0.209465-0.0106087-0.3563843-0.0560188-0.4515266-0.0993881
			c0.0119667-0.2050514,0.0252075-0.4157066,0.0388718-0.6353569l0.0056877-0.0940399
			c0.1402969-2.2228317,0.3146248-4.9891891-0.4175797-6.631485c-0.5018539-1.1248264-1.1757469-2.0922108-2.0033455-2.8765259
			c-0.6940956-0.6572571-1.5003891-1.1900063-2.3969917-1.5838184
			C32.4974899,27.1846638,31.0429306,27.0823917,30.314888,27.0823917"/>
	</g>
</g>
</svg>
