<?xml version="1.0" encoding="utf-8"?>
<!-- Generator: Adobe Illustrator 22.0.0, SVG Export Plug-In . SVG Version: 6.00 Build 0)  -->
<svg version="1.0" id="Направляющие" xmlns="http://www.w3.org/2000/svg" xmlns:xlink="http://www.w3.org/1999/xlink"
	 x="0px" y="0px" viewBox="0 0 60 85" enable-background="new 0 0 60 85" xml:space="preserve">
<rect fill="#FF7700" width="60" height="85"/>
<path fill="#FFFFFF" d="M21.8,50.5h2V37.6c-0.8,0.2-1.5,0.6-2,1.1C21.8,38.7,21.8,50.5,21.8,50.5z M17.7,41.8v8.7l0.1,0h1.9v-8.7
	h-1.9C17.9,41.7,17.7,41.8,17.7,41.8z M13.6,46.1c0,1.6,0.8,3,2,3.7v-7.4C14.4,43.2,13.6,44.5,13.6,46.1z M25.9,50.5h2V38.2
	c-0.6-0.4-1.3-0.6-2-0.7C25.9,37.4,25.9,50.5,25.9,50.5z M42.1,41.7H41c0.1-0.4,0.1-0.7,0.1-1.1c0-3.6-2.8-6.5-6.3-6.5
	c-1.9,0-3.6,0.9-4.8,2.2v14.1h12.1c2.3,0,4.2-2,4.2-4.4C46.4,43.7,44.5,41.7,42.1,41.7z"/>
</svg>
