<?xml version="1.0" encoding="utf-8"?>
<!-- Generator: Adobe Illustrator 22.0.0, SVG Export Plug-In . SVG Version: 6.00 Build 0)  -->
<svg version="1.0" id="Направляющие" xmlns="http://www.w3.org/2000/svg" xmlns:xlink="http://www.w3.org/1999/xlink"
	 x="0px" y="0px" viewBox="0 0 60 85" enable-background="new 0 0 60 85" xml:space="preserve">
<g>
	<g id="svg_2">
		<rect fill="#00D557" width="60" height="85"/>
		<path id="Spotify" d="M29.8,26.3c-8.9,0-16.3,7.3-16.3,16.2s7.3,16.3,16.3,16.3s16.3-7.3,16.3-16.3S38.9,26.3,29.8,26.3
			 M37.3,49.7c-0.3,0.5-0.9,0.6-1.4,0.3c-3.8-2.4-8.6-2.8-14.3-1.5c-0.6,0.2-1.1-0.2-1.2-0.7c-0.2-0.6,0.2-1.1,0.7-1.2
			c6.2-1.4,11.5-0.8,15.8,1.8C37.5,48.6,37.6,49.2,37.3,49.7 M39.3,45.3c-0.4,0.6-1.1,0.8-1.7,0.4c-4.4-2.7-11-3.5-16.2-1.9
			C20.7,44,20,43.6,19.8,43c-0.2-0.7,0.2-1.4,0.8-1.5c5.9-1.8,13.2-0.9,18.3,2.2C39.4,43.9,39.7,44.7,39.3,45.3 M39.4,40.7
			c-5.2-3.1-13.9-3.4-18.8-1.9c-0.8,0.2-1.6-0.2-1.9-1c-0.2-0.8,0.2-1.6,1-1.9c5.8-1.7,15.3-1.4,21.3,2.2c0.7,0.4,1,1.4,0.6,2.1
			C41.1,40.9,40.2,41.1,39.4,40.7"/>
	</g>
</g>
</svg>
