<?xml version="1.0" encoding="utf-8"?>
<!-- Generator: Adobe Illustrator 24.2.1, SVG Export Plug-In . SVG Version: 6.00 Build 0)  -->
<svg version="1.0" xmlns="http://www.w3.org/2000/svg" xmlns:xlink="http://www.w3.org/1999/xlink" x="0px" y="0px"
	 viewBox="0 0 60 85" enable-background="new 0 0 60 85" xml:space="preserve">
<g id="фоны">
	<linearGradient id="Steam_2_" gradientUnits="userSpaceOnUse" x1="26.0838413" y1="34.9477234" x2="53.7037773" y2="88.2125244">
		<stop  offset="0" style="stop-color:#111D2E"/>
		<stop  offset="0.212" style="stop-color:#051839"/>
		<stop  offset="0.407" style="stop-color:#0A1B48"/>
		<stop  offset="0.581" style="stop-color:#132E62"/>
		<stop  offset="0.738" style="stop-color:#144B7E"/>
		<stop  offset="0.873" style="stop-color:#136497"/>
		<stop  offset="1" style="stop-color:#1387B8"/>
	</linearGradient>
	<rect id="Steam" fill="url(#Steam_2_)" width="60" height="85"/>
</g>
<g id="лого">
	<g id="Steam_1_">
		
			<linearGradient id="SVGID_1_" gradientUnits="userSpaceOnUse" x1="-275.8841858" y1="438.8468323" x2="-275.8841858" y2="438.8337097" gradientTransform="matrix(2473.3435059 0 0 -2476 682386.375 1086611)">
			<stop  offset="0" style="stop-color:#111D2E"/>
			<stop  offset="0.212" style="stop-color:#051839"/>
			<stop  offset="0.407" style="stop-color:#0A1B48"/>
			<stop  offset="0.581" style="stop-color:#132E62"/>
			<stop  offset="0.738" style="stop-color:#144B7E"/>
			<stop  offset="0.873" style="stop-color:#136497"/>
			<stop  offset="1" style="stop-color:#1387B8"/>
		</linearGradient>
		<path fill="url(#SVGID_1_)" d="M14.4185858,47.1790123c2.0099897,6.7046165,8.2276449,11.5895882,15.5863867,11.5895882
			c8.9851093,0,16.2692776-7.2841644,16.2692776-16.2692757c0-8.9852486-7.2841682-16.2692776-16.2692776-16.2692776
			c-8.6220188,0-15.6771593,6.7072735-16.2343636,15.1883831c1.0529642,1.7679749,1.4636765,2.8614388,0.6481171,5.760582
			H14.4185858z"/>
		<path fill="#FFFFFF" d="M29.1669292,38.4246025c0,0.0273743,0,0.0547447,0.0013981,0.0804405l-3.9811554,5.7832031
			c-0.6449051-0.0293274-1.2920456,0.0837936-1.9056702,0.3365593c-0.2664032,0.1089783-0.5215416,0.243679-0.7617931,0.402195
			l-8.7419786-3.598793c0,0-0.2022142,3.3278694,0.6407166,5.8080597l6.1800909,2.5500183
			c0.3103027,1.3867264,1.2616024,2.6030846,2.6650887,3.1882172c2.2962723,0.9594002,4.9439049-0.1340637,5.8991146-2.4313126
			c0.2485771-0.6004982,0.3644886-1.23032,0.3477287-1.8587494l5.6963406-4.0708084
			c0.0460854,0.0013962,0.0935669,0.0027924,0.1396523,0.0027924c3.4088669,0,6.1795311-2.7790413,6.1795311-6.1918182
			c0-3.4130592-2.7706642-6.1895905-6.1795311-6.1895905C31.9389915,32.2350159,29.1669292,35.0115471,29.1669292,38.4246025z
			 M28.2117214,50.1437874c-0.7393093,1.7749596-2.7790432,2.6170502-4.5520458,1.8782997
			c-0.817934-0.3407478-1.4354668-0.9649849-1.7917156-1.7093239l2.0116634,0.8337135
			c1.3075485,0.5446358,2.8076744-0.0754089,3.3511925-1.3825378c0.5451965-1.3085213-0.0733166-2.8111649-1.3801651-3.3558006
			l-2.0795345-0.8616409c0.8024311-0.3044357,1.7146282-0.315609,2.5669136,0.0391006
			c0.8592701,0.3575058,1.5259609,1.0306206,1.8792763,1.8908653s0.3519192,1.8098717-0.0055866,2.6673241 M35.3464622,42.5495987
			c-2.2693214,0-4.1168938-1.8503685-4.1168938-4.1249962c0-2.2728119,1.8475723-4.1237373,4.1168938-4.1237373
			c2.2707138,0,4.1182938,1.8509254,4.1182938,4.1237373C39.464756,40.6992302,37.6171799,42.5495987,35.3464622,42.5495987
			 M32.2615852,38.4183197c0-1.7111397,1.3853302-3.0989838,3.0918617-3.0989838
			c1.7079239,0,3.0932541,1.3878441,3.0932541,3.0989838c0,1.7112732-1.3853302,3.0978622-3.0932541,3.0978622
			C33.6469154,41.5161819,32.2615852,40.1295929,32.2615852,38.4183197z"/>
	</g>
</g>
</svg>
