<?xml version="1.0" encoding="utf-8"?>
<!-- Generator: Adobe Illustrator 22.0.0, SVG Export Plug-In . SVG Version: 6.00 Build 0)  -->
<svg version="1.0" id="Направляющие" xmlns="http://www.w3.org/2000/svg" xmlns:xlink="http://www.w3.org/1999/xlink"
	 x="0px" y="0px" viewBox="0 0 60 85" enable-background="new 0 0 60 85" xml:space="preserve">
<g>
	<rect id="canvas_background" fill="#F04F23" width="60" height="85"/>
</g>
<g>
	<path id="rect3003_3_" fill="#FFFFFF" d="M30,29.2c-4,0-7.3,3.3-7.3,7.3V47c0,1-0.8,1.7-1.7,1.7c-1,0-1.7-0.8-1.7-1.7v-4.6h-5.6
		v4.8c0,4,3.3,7.3,7.3,7.3c4,0,7.3-3.3,7.3-7.3V36.6c0-1,0.8-1.7,1.7-1.7c1,0,1.7,0.8,1.7,1.7v2.1l2.3,1.1l3.3-1.1v-2.1
		C37.3,32.5,34,29.2,30,29.2z M31.7,42.4v4.7c0,4,3.3,7.3,7.3,7.3c4,0,7.3-3.3,7.3-7.3v-4.6h-5.6v4.6c0,1-0.8,1.7-1.7,1.7
		c-1,0-1.7-0.8-1.7-1.7v-4.7L34,43.5C34,43.5,31.7,42.4,31.7,42.4z"/>
</g>
</svg>
