<?xml version="1.0" encoding="utf-8"?>
<!-- Generator: Adobe Illustrator 23.0.6, SVG Export Plug-In . SVG Version: 6.00 Build 0)  -->
<svg version="1.0" id="Направляющие" xmlns="http://www.w3.org/2000/svg" xmlns:xlink="http://www.w3.org/1999/xlink"
	 x="0px" y="0px" viewBox="0 0 60 85" enable-background="new 0 0 60 85" xml:space="preserve">
<rect id="tidal" stroke="#000000" stroke-width="9.400000e-02" width="60" height="85"/>
<path fill="#FFFFFF" stroke="#000000" stroke-width="9.400000e-02" d="M26.3,32.7L26.3,32.7c0.2,0.2,0.4,0.4,0.5,0.5l1.2,1.2v0
	c-0.6,0.6-1.2,1.2-1.7,1.7c-0.6-0.6-1.2-1.2-1.7-1.7c0-0.1,0.1-0.1,0.1-0.1C25.2,33.8,25.8,33.2,26.3,32.7z M29.8,32.7L29.8,32.7
	C29.8,32.7,29.8,32.8,29.8,32.7c0.6,0.6,1.2,1.2,1.8,1.7c0,0,0,0.1-0.1,0.1c-0.6,0.6-1.1,1.1-1.7,1.7c-0.6-0.6-1.2-1.2-1.7-1.7
	C28.6,33.9,29.2,33.3,29.8,32.7z M33.3,32.7L33.3,32.7c0.1,0.1,0.3,0.2,0.4,0.4c0.4,0.4,0.9,0.9,1.3,1.3c0,0,0.1,0,0.1,0.1
	c-0.6,0.6-1.2,1.2-1.7,1.7l-1.7-1.7c0,0-0.1-0.1-0.1-0.1c0.3-0.3,0.6-0.6,0.9-0.9C32.7,33.3,33,33,33.3,32.7z M28.1,37.9
	c0.6-0.6,1.1-1.1,1.7-1.7l0,0c0.6,0.6,1.1,1.2,1.7,1.7c0,0-0.1,0.1-0.1,0.1c-0.4,0.4-0.8,0.8-1.3,1.2c-0.1,0.1-0.3,0.3-0.4,0.4
	c-0.2-0.2-0.4-0.4-0.6-0.6C28.8,38.7,28.5,38.3,28.1,37.9C28.1,37.9,28.1,37.9,28.1,37.9L28.1,37.9z M10.1,45.4h5.2
	c0,0.4,0,0.8,0,1.2h-1.9v4.9c0,0.1,0,0.2,0,0.2H12c0-1.7,0-3.4,0-5.2h-1.9V45.4z M19.7,45.4c0.5,0,1,0,1.5,0c0,2.1,0,4.3,0,6.4h-1.5
	c0-0.6,0-1.1,0-1.7C19.7,48.6,19.7,47,19.7,45.4z M45.5,45.4c0.5,0,1,0,1.5,0v5.1c0.8,0,1.7,0,2.5,0v1.3h-4
	C45.5,49.7,45.5,47.6,45.5,45.4z M31.7,47.6c-0.1-0.5-0.4-1-0.8-1.3c-0.5-0.5-1.2-0.7-1.9-0.8c-0.4-0.1-0.8,0-1.2,0h-1.7
	c0,0-0.1,0-0.1,0c0,2.1,0,4.2,0,6.4c0,0,0,0,0,0.1h2.5c0.2,0,0.5,0,0.7-0.1c0.8-0.1,1.5-0.5,2-1.1c0.4-0.4,0.6-1,0.7-1.5
	C31.9,48.6,31.9,48.1,31.7,47.6L31.7,47.6z M30.1,49.7c-0.2,0.3-0.4,0.5-0.8,0.7c-0.3,0.1-0.6,0.2-0.9,0.2c-0.3,0-0.6,0-1,0
	c0-0.4,0-0.7,0-1.1c0-0.9,0-1.9,0-2.8h1c0.5,0,1,0.2,1.4,0.5c0.3,0.3,0.5,0.8,0.5,1.2C30.4,48.9,30.3,49.3,30.1,49.7z M41,50.3
	c-0.6-1.5-1.2-3-1.8-4.5c-0.1-0.1-0.1-0.3-0.2-0.4c-0.5,0-1,0-1.5,0c-0.9,2.1-1.7,4.1-2.6,6.2c0,0.1-0.1,0.1-0.1,0.2h1.6
	c0.2-0.4,0.3-0.8,0.5-1.3c0.9,0,1.8,0,2.7,0c0,0,0.1,0,0.1,0.1c0.1,0.4,0.3,0.8,0.4,1.2h1.6C41.4,51.3,41.2,50.8,41,50.3z
	 M37.2,49.4c0-0.1,0-0.1,0-0.2c0.3-0.8,0.6-1.5,0.9-2.3c0,0,0,0,0,0c0.3,0.8,0.6,1.6,0.9,2.4c0,0,0,0,0,0
	C38.5,49.4,37.8,49.4,37.2,49.4z"/>
</svg>
