<?xml version="1.0" encoding="utf-8"?>
<!-- Generator: Adobe Illustrator 25.0.0, SVG Export Plug-In . SVG Version: 6.00 Build 0)  -->
<svg version="1.2" baseProfile="tiny" xmlns="http://www.w3.org/2000/svg" xmlns:xlink="http://www.w3.org/1999/xlink" x="0px"
	 y="0px" viewBox="0 0 60 85" overflow="visible" xml:space="preserve">
<g id="фоны">
	
		<linearGradient id="tripadvisor_2_" gradientUnits="userSpaceOnUse" x1="4.1266537" y1="23.3201141" x2="52.3272133" y2="59.0511398">
		<stop  offset="0" style="stop-color:#FFFFFF"/>
		<stop  offset="1" style="stop-color:#D1D1D1"/>
	</linearGradient>
	<rect id="tripadvisor" fill-rule="evenodd" fill="url(#tripadvisor_2_)" width="60" height="85"/>
</g>
<g id="лого">
	<g id="tripadvisor_1_">
		<path fill="#FEDA80" d="M19.3087883,36.3744392c3.0701771-0.3654976,11.6959076-0.6578941,9.2836266,11.7690086
			l2.7046795-0.2192955c-1.1695919-7.6754417,1.3157902-11.6228104,8.9912281-11.988308
			c-12.7923985-7.0175438-20.0292416,0.2924004-20.9795341,0.4385986V36.3744392z"/>
		<path fill="#A61E2E" d="M23.1099586,43.5381813c0,0.7309952-0.584795,1.3157921-1.3157902,1.3157921
			c-0.7309933,0-1.3157883-0.5847969-1.3157883-1.3157921c0-0.7309914,0.584795-1.3157883,1.3157883-1.3157883
			C22.4520626,42.222393,23.1099586,42.8071899,23.1099586,43.5381813z"/>
		<path fill="#4A853E" d="M39.3380318,43.5381813c0,0.7309952-0.5847969,1.3157921-1.3157921,1.3157921
			c-0.7309914,0-1.3157883-0.5847969-1.3157883-1.3157921c0-0.7309914,0.5847969-1.3157883,1.3157883-1.3157883
			C38.7532349,42.222393,39.3380318,42.8071899,39.3380318,43.5381813z"/>
		<path fill="#020202" d="M44.5280876,38.7867203c0.3654976-1.6081886,1.6081886-3.2163734,1.6081886-3.2163734h-5.409359
			c-3.0701752-1.9736862-6.7251472-2.9970779-10.8187141-2.9970779c-4.2397652,0-8.0409355,1.0964928-11.1111107,3.0701752
			h-5.1169605c0,0,1.169591,1.6081886,1.6081877,3.2163773c-1.0233927,1.3157883-1.6081877,2.9970741-1.6081877,4.8245621
			c0,4.4590607,3.6549721,8.1140366,8.1140366,8.1140366c2.5584793,0,4.8245621-1.16959,6.3596497-3.0701752l1.754385,2.5584793
			l1.7543869-2.6315804c0.8040962,1.0233917,1.8274879,1.8274841,2.9970779,2.33918
			c1.9736824,0.8771935,4.1666641,1.0233917,6.2134476,0.2192993c4.1666679-1.5350876,6.3596535-6.2134514,4.8245621-10.4532166
			C45.33218,40.1025124,44.9666824,39.4446144,44.5280876,38.7867203z M37.7298431,35.5703468
			c-0.8771935,0-1.6812859,0.1461983-2.5584793,0.5116959c-2.0467834,0.7309952-3.6549721,2.2660828-4.5321655,4.2397652
			c-0.4385967,0.8771973-0.6578941,1.8274879-0.7309952,2.7777786c-0.2923965-4.1666679-3.7280693-7.4561424-7.8947372-7.5292397
			c2.3391819-1.0233917,4.9707623-1.5350876,7.8947392-1.5350876C32.83218,33.9621582,35.4637604,34.4738541,37.7298431,35.5703468z
			 M21.8672695,50.1171303c-3.5818729,0-6.5058489-2.9239769-6.5058489-6.5058479s2.9239759-6.5058479,6.5058489-6.5058479
			s6.5058479,2.9239769,6.5058479,6.5058479C28.3000164,47.1931534,25.3760395,50.1171303,21.8672695,50.1171303z
			 M40.2883263,49.7516327c-1.6081886,0.5847969-3.3625755,0.5116959-4.9707603-0.2192955
			c-1.5350876-0.7309952-2.7777786-2.0467834-3.3625755-3.6549721c-0.584795-1.6081886-0.5116959-3.3625755,0.2192993-4.9707603
			s2.0467834-2.7777786,3.6549721-3.3625755c3.3625717-1.2426872,7.0906448,0.5116997,8.3333359,3.8011703
			C45.3321877,44.7808723,43.5778008,48.5089417,40.2883263,49.7516327L40.2883263,49.7516327z"/>
		<path fill="#020202" d="M21.7210693,39.5177155c-2.1929836,0-4.0204678,1.8274841-4.0204678,4.0204659
			c0,2.1929855,1.8274841,4.0204697,4.0204678,4.0204697s4.0204678-1.8274841,4.0204678-4.0204697
			C25.7415371,41.3451996,23.9140511,39.5177155,21.7210693,39.5177155z M21.7210693,46.1697617
			c-1.4619884,0-2.6315804-1.1695938-2.6315804-2.6315804c0-1.4619904,1.1695919-2.6315804,2.6315804-2.6315804
			s2.6315784,1.1695938,2.6315784,2.6315804C24.3526478,45.0001717,23.1830578,46.1697617,21.7210693,46.1697617z
			 M38.0222397,39.5177155c-2.1929817,0-4.0204659,1.8274841-4.0204659,4.0204659
			c0,2.1929855,1.8274841,4.0204697,4.0204659,4.0204697c2.1929855,0,4.0204697-1.8274841,4.0204697-4.0204697
			C41.9696121,41.3451996,40.2152252,39.5177155,38.0222397,39.5177155z M38.0222397,46.1697617
			c-1.4619865,0-2.6315765-1.1695938-2.6315765-2.6315804c0-1.4619904,1.16959-2.6315804,2.6315765-2.6315804
			c1.4619904,0,2.6315804,1.16959,2.6315804,2.6315804C40.65382,45.0001678,39.48423,46.1697617,38.0222397,46.1697617z"/>
	</g>
</g>
</svg>
