<?xml version="1.0" encoding="utf-8"?>
<!-- Generator: Adobe Illustrator 25.0.0, SVG Export Plug-In . SVG Version: 6.00 Build 0)  -->
<svg version="1.0" xmlns="http://www.w3.org/2000/svg" xmlns:xlink="http://www.w3.org/1999/xlink" x="0px" y="0px"
	 viewBox="0 0 60 85" enable-background="new 0 0 60 85" xml:space="preserve">
<g id="фоны">
	<rect id="tt_1_" x="0" fill="#F63449" width="60" height="85"/>
</g>
<g id="лого">
	<g id="tt">
		<path id="_x34__2_" fill="#D3FF5A" d="M28.3688526,27.2029858h4.489809c0,0-0.1448326,8.8077106,7.8209534,11.269865v3.7656441
			c0,0-5.865715,0.217247-7.6761208-5.5036354v22.1593704h-4.6346416v-22.304203c0,0-3.7656441,4.4173927-9.0520287,4.924305
			v-3.4035645C19.316824,38.1107674,28.1516037,35.702755,28.3688526,27.2029858z"/>
		<path id="_x34__1_" fill="#FF55B2" d="M27.0085926,26.1111126h4.4898071c0,0-0.1448326,8.8077106,7.8209553,11.269865v3.7656441
			c0,0-5.8657188,0.217247-7.6761227-5.5036354v22.1593704h-4.6346397v-22.304203c0,0-3.7656441,4.4173927-9.0520306,4.924305
			v-3.4035645C17.956562,37.0188942,26.7913437,34.6108818,27.0085926,26.1111126z"/>
		<path id="_x33__2_" fill="#00E2D6" d="M27.259388,27.5435333h4.4898071c0,0-0.1448326,8.8077126,7.8209534,11.2698631v3.7656441
			c0,0-5.865715,0.2172508-7.6761208-5.5036316v22.1593666H27.259388V36.9305763c0,0-3.7656441,4.4173889-9.0520306,4.924305
			v-3.4035645C18.2073574,38.4513168,27.0421391,36.0433006,27.259388,27.5435333z"/>
		<path id="_x32__2_" fill="#2B2B2B" d="M27.9942513,26.9078445h4.4898071c0,0-0.1448326,8.8077126,7.8209534,11.2698631v3.7656441
			c0,0-5.865715,0.2172508-7.6761208-5.5036316v22.1593666h-4.6346397V36.2948875c0,0-3.7656441,4.4173889-9.0520306,4.924305
			v-3.4035645C18.9422207,37.8156281,27.7770023,35.4076118,27.9942513,26.9078445z"/>
		<path id="_x31__2_" fill="#FFFFFF" d="M27.259388,26.5435333h4.4898071c0,0-0.1448326,8.8077126,7.8209534,11.2698631v3.7656441
			c0,0-5.865715,0.2172508-7.6761208-5.5036316v22.1593666H27.259388V35.9305763c0,0-3.7656441,4.4173889-9.0520306,4.924305
			v-3.4035645C18.2073574,37.4513168,27.0421391,35.0433006,27.259388,26.5435333z"/>
	</g>
</g>
</svg>
