<?xml version="1.0" encoding="utf-8"?>
<!-- Generator: Adobe Illustrator 22.0.0, SVG Export Plug-In . SVG Version: 6.00 Build 0)  -->
<svg version="1.0" id="Направляющие" xmlns="http://www.w3.org/2000/svg" xmlns:xlink="http://www.w3.org/1999/xlink"
	 x="0px" y="0px" viewBox="0 0 60 85" enable-background="new 0 0 60 85" xml:space="preserve">
<g>
	<rect id="canvas_background" fill="#44546A" width="60" height="85"/>
</g>
<g>
	<path id="svg_3" fill="#FFFFFF" d="M35,53.6c-0.9,0-1.8-0.2-2.5-0.7c-0.6-0.3-1.1-1-1.1-1.6c0-0.6,0-1,0-3v-8.9h7.4v-5.9h-7.4v-7.4
		h-5.9c0,0.9,0,3,0,3c0,3.3-2.6,5.9-5.9,5.9v4.5h4.4v11.9c0,1.5,0,2.7,0.2,3.4c0.3,0.8,0.7,1.5,1.5,2.2c0.8,0.7,1.5,1.1,2.6,1.5
		c1.3,0.4,2.6,0.6,4,0.6c1.3,0,2.6-0.1,3.7-0.4c1.1-0.3,2.7-0.8,4.1-1.7v-5.2C38.7,53,36.7,53.6,35,53.6z"/>
</g>
</svg>
