<?xml version="1.0" encoding="utf-8"?>
<!-- Generator: Adobe Illustrator 22.1.0, SVG Export Plug-In . SVG Version: 6.00 Build 0)  -->
<svg version="1.1" id="Направляющие" xmlns="http://www.w3.org/2000/svg" xmlns:xlink="http://www.w3.org/1999/xlink"
	 x="0px" y="0px" viewBox="0 0 60 85" style="enable-background:new 0 0 60 85;" xml:space="preserve">
<style type="text/css">
	.st0{fill:#1EBEF0;}
	.st1{fill:#FFFFFF;}
</style>
<g>
	<rect class="st0" width="60" height="85"/>
	<path class="st1" d="M32.9,30.6c-0.9,0.6-1.6,1.5-2.1,2.5l-0.2,0.6c-0.1,0.4-0.2,0.8-0.3,1.2c0,0.2,0,0.4-0.1,0.6v0.4v0.6l0.1,0.8
		l0,0H30h-0.2c-2.2,0-4.4-0.5-6.3-1.4l-1.1-0.5c-0.2-0.1-0.4-0.2-0.6-0.4c-1.3-0.7-2.4-1.7-3.4-2.7c-0.6-0.7-1.2-1.4-1.7-2.2
		c-0.5,1-0.9,2.3-0.9,3.6c0,0.5,0,0.9,0.1,1.4c0,0.2,0,0.4,0.1,0.6c0.4,1.4,1.1,2.6,2.1,3.5l0.5,0.5L18,39.4
		c-0.8-0.2-1.6-0.5-2.4-0.8c0.1,1.6,0.7,3.1,1.7,4.3c1,1.1,2.2,2,3.7,2.4l-1.7,0.1h-1.4c1,2.5,3.5,4.4,6.3,4.6c-2.6,2-5.9,3-9.4,3
		c2.6,1.6,5.6,2.6,8.8,2.8h2.1c10-0.5,17.8-8.8,17.8-18.9v-1c0.4-0.3,0.7-0.6,1.1-1c0.9-0.8,1.6-1.7,2.3-2.6c-1,0.7-2.3,1-3.6,1l0,0
		l0,0l0,0c1.2-0.8,2.2-2,2.7-3.5c-1,0.5-2,0.9-3.1,1.2h-0.1L42,31.2c-1.2-1.3-2.9-2.1-4.7-2.1l0,0h-0.1c-0.5,0-1,0-1.5,0.1
		c-0.7,0.2-1.5,0.5-2,0.9L32.9,30.6z"/>
</g>
</svg>
