<?xml version="1.0" encoding="utf-8"?>
<!-- Generator: Adobe Illustrator 22.0.0, SVG Export Plug-In . SVG Version: 6.00 Build 0)  -->
<svg version="1.0" id="Направляющие" xmlns="http://www.w3.org/2000/svg" xmlns:xlink="http://www.w3.org/1999/xlink"
	 x="0px" y="0px" viewBox="0 0 60 85" enable-background="new 0 0 60 85" xml:space="preserve">
<g>
	<rect id="canvas_background" fill="#5FCCFF" width="60" height="85"/>
</g>
<g>
	<path id="Vimeo" fill="#FFFFFF" d="M46.4,34.9c-0.2,3.3-2.4,7.6-6.7,13.1c-4.5,5.7-8.1,8.6-11.2,8.6c-1.8,0-3.5-1.8-4.9-5.3
		c-0.8-3.3-1.8-6.6-2.6-9.6c-1-3.5-2-5.3-3-5.3c-0.2,0-1,0.6-2.6,1.6l-1.6-2.1c1.6-1.4,3.3-2.9,4.7-4.3c2.2-1.8,3.7-2.9,4.9-2.9
		c2.4-0.2,4.1,1.4,4.7,5.1c0.6,4.1,1,6.6,1.2,7.6c0.8,3.3,1.6,4.9,2.4,4.9c0.6,0,1.6-1,3-3.3c1.4-2.3,2-3.9,2.2-4.9
		c0.2-1.8-0.6-2.9-2.2-2.9c-0.8,0-1.6,0.2-2.4,0.6c1.6-5.3,4.7-7.8,9.1-7.6C44.9,28.3,46.6,30.6,46.4,34.9"/>
</g>
</svg>
