<?xml version="1.0" encoding="utf-8"?>
<!-- Generator: Adobe Illustrator 22.0.0, SVG Export Plug-In . SVG Version: 6.00 Build 0)  -->
<svg version="1.0" id="Направляющие" xmlns="http://www.w3.org/2000/svg" xmlns:xlink="http://www.w3.org/1999/xlink"
	 x="0px" y="0px" viewBox="0 0 60 85" enable-background="new 0 0 60 85" xml:space="preserve">
<g>
	<rect id="canvas_background" x="0" fill="#4C75A3" width="60" height="85"/>
</g>
<g>
	<path id="path9" fill="#FFFFFF" d="M29.6,51.5h1.9c0,0,0.6-0.1,0.9-0.4c0.3-0.3,0.3-0.9,0.3-0.9s0-2.6,1.2-3
		c1.2-0.4,2.7,2.5,4.4,3.6c1.2,0.8,2.2,0.7,2.2,0.7l4.4-0.1c0,0,2.3-0.1,1.2-1.9c-0.1-0.1-0.6-1.3-3.2-3.7c-2.7-2.5-2.4-2.1,0.9-6.5
		c2-2.7,2.8-4.3,2.6-5c-0.2-0.7-1.7-0.5-1.7-0.5l-4.9,0c0,0-0.4,0-0.6,0.1c-0.3,0.2-0.4,0.5-0.4,0.5s-0.8,2.1-1.8,3.8
		c-2.2,3.7-3.1,3.9-3.4,3.7c-0.8-0.5-0.6-2.2-0.6-3.3c0-3.6,0.5-5.1-1.1-5.5c-0.5-0.1-0.9-0.2-2.3-0.2c-1.8,0-3.2,0-4.1,0.4
		c-0.6,0.3-1,0.9-0.7,0.9c0.3,0,1.1,0.2,1.4,0.7c0.5,0.7,0.5,2.2,0.5,2.2s0.3,4.2-0.7,4.8c-0.7,0.4-1.6-0.4-3.5-3.7
		c-1-1.7-1.8-3.6-1.8-3.6s-0.1-0.4-0.4-0.5c-0.3-0.2-0.8-0.3-0.8-0.3l-4.7,0c0,0-0.7,0-1,0.3c-0.2,0.3,0,0.8,0,0.8s3.6,8.5,7.8,12.8
		C25.3,51.8,29.6,51.5,29.6,51.5C29.6,51.5,29.6,51.5,29.6,51.5z"/>
</g>
</svg>
