<?xml version="1.0" encoding="utf-8"?>
<!-- Generator: Adobe Illustrator 25.0.0, SVG Export Plug-In . SVG Version: 6.00 Build 0)  -->
<svg version="1.2" baseProfile="tiny" xmlns="http://www.w3.org/2000/svg" xmlns:xlink="http://www.w3.org/1999/xlink" x="0px"
	 y="0px" viewBox="0 0 60 85" overflow="visible" xml:space="preserve">
<g id="фоны">
	<rect id="яндекс" fill="#FFE033" width="60" height="85"/>
</g>
<g id="лого">
	<g id="яндекс_1_">
		<path fill="#FF0000" d="M16.4473534,34.1330261h-2.0826435c-2.0827208,0-3.8747501,1.5499153-3.8747501,4.5528221
			c0,1.7921066,0.8717651,3.1482544,2.3732576,3.8263283l-2.8092175,5.0372047
			c-0.0968456,0.1453476,0,0.2906151,0.1453457,0.2906151h1.307725c0.0968447,0,0.1936903-0.0484238,0.2421131-0.1452675
			l2.5671034-4.940361h0.920188v4.940361c0,0.0484238,0.0485001,0.1452675,0.1453457,0.1452675h1.1624546
			c0.0968456,0,0.1452694-0.0484238,0.1452694-0.1452675V34.3267174
			C16.6411228,34.1814461,16.5926991,34.1330261,16.4473534,34.1330261z M15.236475,41.5919876h-0.7749195
			c-3.3419447,0-3.0998306-6.296505-0.1452684-6.296505h0.968688v6.296505H15.236475z"/>
		<path d="M23.421936,38.6858482h-1.1623802c-0.0968456,0-0.1453457,0.0484238-0.1453457,0.1453476v3.4872093h-2.1311436v-3.4872093
			c0-0.0968475-0.0484238-0.1453476-0.1452694-0.1453476h-1.1140327c-0.0968456,0-0.1452675,0.0484238-0.1452675,0.1453476v8.863533
			c0,0.0968437,0.0484219,0.1452675,0.1452675,0.1452675h1.1624565c0.0968456,0,0.1453457-0.0484238,0.1453457-0.1452675v-4.2622871
			h2.1310654v4.2622871c0,0.0968437,0.0484238,0.1452675,0.1453476,0.1452675h1.1623783
			c0.0968456,0,0.1453457-0.0484238,0.1453457-0.1452675v-8.863533c-0.0484219-0.0968475-0.0968456-0.1453476-0.1936913-0.1453476
			H23.421936z M49.5766525,46.6291924c0-0.04842-0.0484238-0.04842-0.0968437-0.04842
			c-0.4843864,0-3.4388695,1.4046478-3.4388695-3.2451019c0-2.0342178,0.7749214-4.8918571,2.615448-3.1966743
			c0.0484238,0.0484238,0.0968475,0.0484238,0.1452713,0.0484238c0.04842,0,0.0968437-0.0484238,0.1453438-0.1452675
			l0.4843063-0.8234215c0.0484238-0.0484238,0.0484238-0.0968437,0.0484238-0.1452675
			c0-0.0968475-0.0968475-0.1453476-0.1936913-0.1937675c-3.1966782-1.5983391-4.843441,1.356144-4.843441,4.7950134
			c0,4.4559784,3.2451019,5.0856285,5.085556,3.7294807C49.625,47.3557701,49.625,47.2588463,49.625,47.2104988
			l-0.0483437-0.5813065H49.5766525z M41.6333847,42.8028679l2.2279892-4.0200195
			c0.04842-0.0485001,0-0.1453476-0.0484238-0.1453476h-1.1140327c-0.3390388,0-0.4358826,0.0968475-0.5328064,0.3390388
			c-0.0968475,0.2421913-1.7436066,3.681057-1.9373779,3.8263283v-4.0200958c0-0.0485001-0.04842-0.1453476-0.0968437-0.1453476
			h-1.2108803c-0.04842,0-0.0968437,0.0484238-0.0968437,0.1453476v8.9119568c0,0.04842,0.0484238,0.1452675,0.0968437,0.1452675
			h1.2108803c0.0968437,0,0.0968437-0.0484238,0.0968437-0.1452675v-4.601326
			c0.1453476,0.0968475,2.1795654,4.3107109,2.2279892,4.4559784c0.0968475,0.1936913,0.2906151,0.2906151,0.5328064,0.2906151
			h1.2108803c0.0968437,0,0.0968437-0.0484238,0.04842-0.1452675l-2.615448-4.891861H41.6333847z M31.0261669,46.6776924h-0.2421913
			c-0.2905369,0-0.3390369-0.0968437-0.3390369-0.3391113v-7.555809c0-0.0968475-0.0484238-0.1453476-0.0968456-0.1453476
			h-3.7294807c-0.0968456,0-0.1452694,0.0484238-0.1452694,0.1453476c0,2.0342178,0.0484238,5.4246635-1.3078022,7.8948441
			h-0.3873825c-0.0968456,0-0.1453457,0.0484238-0.1453457,0.1452713v2.663868c0,0.0968475,0.0968456,0.1453476,0.1453457,0.1453476
			h0.8717651c0.1936913,0,0.2906151-0.1453476,0.2906151-0.2906151v-1.5014915h3.9232483v1.646759
			c0,0.0485039,0.0484238,0.1453476,0.1452694,0.1453476h0.9686871c0.0968437,0,0.2421913-0.0968437,0.2421913-0.2906151v-2.5186043
			c-0.0484238-0.0968437-0.0968456-0.1452675-0.1936913-0.1452675L31.0261669,46.6776924z M28.9919472,46.6776924h-2.71245
			c0.7749977-1.2593002,1.5014935-3.2935219,1.5014935-6.8777351h1.2108784v6.8777351H28.9919472z M34.8040733,38.4438095
			c-1.9858017,0-2.906065,2.4701042-2.906065,5.1823997c0,4.4560547,3.0998325,5.1341286,5.2308979,3.8264046
			c0.0968437-0.0484238,0.0968437-0.0968475,0.0968437-0.1452713l-0.1452675-0.6296501
			c0-0.0485001-0.0484238-0.0968437-0.1452675-0.0968437c-0.7749977,0-3.4872932,1.3560677-3.4872932-3.0514069
			c0.968689,0.0968437,0.968689,0.0968437,3.8747482,0.0968437c-0.04842-2.2279892-0.290535-5.182476-2.5186005-5.182476H34.8040733
			z M33.4964256,42.5121002c0-3.535717,2.3248329-4.2137871,2.3248329-0.0968475
			C34.8041496,42.4152527,34.3682671,42.4152527,33.4964256,42.5121002z"/>
	</g>
</g>
</svg>
