<?xml version="1.0" encoding="utf-8"?>
<!-- Generator: Adobe Illustrator 25.0.0, SVG Export Plug-In . SVG Version: 6.00 Build 0)  -->
<svg version="1.2" baseProfile="tiny" xmlns="http://www.w3.org/2000/svg" xmlns:xlink="http://www.w3.org/1999/xlink" x="0px"
	 y="0px" viewBox="0 0 60 85" overflow="visible" xml:space="preserve">
<g id="фоны">
	<linearGradient id="yelp_2_" gradientUnits="userSpaceOnUse" x1="4.1266537" y1="23.3201141" x2="52.3272133" y2="59.0511398">
		<stop  offset="0" style="stop-color:#FFFFFF"/>
		<stop  offset="1" style="stop-color:#D1D1D1"/>
	</linearGradient>
	<rect id="yelp_1_" fill-rule="evenodd" fill="url(#yelp_2_)" width="60" height="85"/>
</g>
<g id="лого">
	<path id="yelp" fill="#BF2519" d="M18.2102757,41.8965836c-0.530777,0.8497772-0.753273,3.522419-0.568306,5.2943535
		c0.0643368,0.5843887,0.1715641,1.0722733,0.3243618,1.3644714c0.2117748,0.4021034,0.568306,0.643364,0.9730892,0.656765
		c0.2600269,0.0134048,0.4235497-0.0321655,5.3157997-1.6057281c0,0,2.1740379-0.6943016,2.1847591-0.6996613
		c0.5415001-0.1393929,0.9087524-0.6380005,0.9436016-1.2733231c0.0348492-0.6540909-0.3002357-1.2304382-0.8578186-1.4368477
		c0,0-1.5333519-0.6245995-1.5360336-0.6245995c-5.2595043-2.1686745-5.4954052-2.2544556-5.7607918-2.2571373
		C18.8214722,41.3014717,18.4622593,41.5052032,18.2102757,41.8965836 M29.9731255,58.0584373
		c0.0857811-0.2466202,0.0965042-0.4155045,0.1099072-5.5570602c0,0,0.0107231-2.2705421,0.0134029-2.2946663
		c0.0348492-0.5575829-0.3243618-1.0642319-0.914114-1.2920914c-0.6085148-0.2332191-1.2626019-0.0884628-1.6298561,0.3672562
		c0,0-1.0722733,1.2733231-1.0776367,1.2733231c-3.6832619,4.3266258-3.8387413,4.5276794-3.9272041,4.7823448
		c-0.0562935,0.150116-0.075058,0.3109589-0.0589752,0.4717979c0.0214462,0.2305374,0.1259918,0.455719,0.2975559,0.6674919
		c0.8551388,1.0159798,4.9512272,2.5225258,6.2594032,2.297348C29.5040054,58.6964378,29.8337288,58.4417763,29.9731255,58.0584373
		 M38.2859306,56.2704239c1.2357979-0.493248,3.9298897-3.9191628,4.1202164-5.2407417
		c0.0670166-0.4583969-0.0777397-0.8551407-0.394062-1.1071243c-0.2064133-0.1554794-0.3645706-0.2171326-5.2568245-1.8228645
		c0,0-2.1445503-0.7077026-2.1740379-0.7211075c-0.5200539-0.2010498-1.112484-0.013401-1.5092239,0.4771614
		c-0.4155083,0.5039711-0.4771614,1.171463-0.1447563,1.6727486l0.8631783,1.4046822
		c2.903183,4.7153282,3.125679,5.0477333,3.334774,5.2112541C37.4468765,56.3990974,37.8570213,56.4419861,38.2859306,56.2704239
		 M35.7580452,44.1322784c5.5570602-1.3457069,5.7741966-1.4180832,5.991333-1.5628395
		c0.3377647-0.2278595,0.506649-0.605835,0.4771614-1.0669136c0-0.0134048,0.0026817-0.0294876,0-0.0455704
		c-0.1420746-1.3671532-2.5332489-4.916378-3.7127495-5.4927254c-0.4181862-0.2010536-0.8363724-0.1876488-1.1821823,0.0455704
		c-0.2144547,0.1393967-0.3726158,0.3511696-3.348175,4.4231339c0,0-1.3430252,1.8309059-1.359108,1.8496704
		c-0.3538513,0.431591-0.3592148,1.0481491-0.0134048,1.5789261c0.359211,0.5495415,0.9650459,0.81493,1.5199509,0.6621284
		c0,0-0.0214462,0.0402107-0.0268097,0.0455742c0.2734299-0.1045494,0.7613182-0.2251778,1.6539841-0.4369507 M30.1795368,39.542942
		c-0.0965042-2.2035255-0.7586346-12.0121555-0.8363743-12.4651909c-0.1125889-0.4128246-0.4342709-0.705019-0.8953495-0.8229694
		c-1.420763-0.3511696-6.8437901,1.1687775-7.8490467,2.2035236c-0.3243637,0.3377666-0.4423141,0.7505913-0.345808,1.1178455
		c0.1581593,0.3243637,6.8786392,10.896986,6.8786392,10.896986c0.9918537,1.6110916,1.8041019,1.359108,2.0694904,1.2760086
		c0.2627068-0.0777435,1.0695934-0.3297272,0.9784489-2.2062073"/>
</g>
</svg>
