<?xml version="1.0" encoding="utf-8"?>
<!-- Generator: Adobe Illustrator 22.0.0, SVG Export Plug-In . SVG Version: 6.00 Build 0)  -->
<svg version="1.0" id="Слой_1" xmlns="http://www.w3.org/2000/svg" xmlns:xlink="http://www.w3.org/1999/xlink" x="0px" y="0px"
	 viewBox="0 0 60 85" enable-background="new 0 0 60 85" xml:space="preserve">
<g>
	<rect id="canvas_background_1_" x="-1" y="-1" fill="#FF0008" width="62" height="87"/>
</g>
<g>
	<g id="svg_5">
		<g id="svg_6">
			<path id="svg_2_1_" fill="#FFFFFF" d="M12.8,41.1L11.7,37H10c0.3,1,0.7,2,1,2.9c0.5,1.5,0.8,2.6,1,3.3v4.3h1.6v-4.3l1.9-6.3h-1.6
				C13.9,37,12.8,41.1,12.8,41.1z M23.5,39.7v6c-0.3,0.4-0.6,0.7-0.9,0.7c-0.2,0-0.3-0.1-0.3-0.3c0,0,0-0.2,0-0.6v-5.8h-1.4v6.2
				c0,0.6,0,0.9,0.1,1.2c0.1,0.4,0.5,0.6,0.9,0.6c0.5,0,1.1-0.3,1.6-1v0.9h1.4v-7.8L23.5,39.7C23.5,39.7,23.5,39.7,23.5,39.7z
				 M17.6,39.6c-0.7,0-1.3,0.3-1.7,0.8c-0.3,0.4-0.4,1-0.4,1.8V45c0,0.8,0.1,1.5,0.4,1.8c0.4,0.5,0.9,0.8,1.7,0.8
				c0.7,0,1.3-0.3,1.7-0.8c0.3-0.4,0.4-1,0.4-1.8v-2.7c0-0.8-0.1-1.5-0.4-1.8C18.8,39.8,18.3,39.6,17.6,39.6z M18.2,45.2
				c0,0.7-0.2,1.1-0.7,1.1s-0.7-0.4-0.7-1.1v-3.3c0-0.7,0.2-1.1,0.7-1.1c0.5,0,0.7,0.4,0.7,1.1V45.2z"/>
			<path id="svg_4_1_" fill="#FFFFFF" d="M45.6,40.9c-0.5,0-0.7,0.4-0.7,1.1v0.7h1.4V42C46.3,41.3,46.1,40.9,45.6,40.9z M40.4,40.9
				c-0.2,0-0.5,0.1-0.7,0.3V46c0.2,0.2,0.5,0.3,0.7,0.3c0.4,0,0.6-0.3,0.6-1V42C41,41.3,40.8,40.9,40.4,40.9z M49,36.8
				c-0.3-1.2-1.3-2.2-2.5-2.3c-2.7-0.3-5.4-0.3-8.2-0.3c-0.2,0-0.4,0-0.5,0c-0.2,0-0.4,0-0.5,0c-2.7,0-5.5,0-8.2,0.3
				c-1.2,0.1-2.2,1-2.5,2.3c-0.4,1.8-0.4,3.7-0.4,5.5v0.1c0,1.8,0,3.6,0.4,5.4c0.3,1.2,1.3,2.2,2.5,2.3c2.7,0.3,5.5,0.3,8.2,0.3
				c0.2,0,0.4,0,0.5,0c0.2,0,0.4,0,0.5,0c2.7,0,5.5,0,8.2-0.3c1.2-0.1,2.2-1,2.5-2.3c0.4-1.7,0.4-3.6,0.4-5.4v-0.1
				C49.4,40.5,49.4,38.6,49,36.8z M32.8,38.6h-1.7v9h-1.6v-9h-1.7v-1.5h4.9V38.6z M37.1,47.5h-1.4v-0.8c-0.6,0.6-1.1,1-1.6,1
				c-0.5,0-0.8-0.2-0.9-0.6c-0.1-0.2-0.1-0.6-0.1-1.2v-6.1h1.4v5.7c0,0.3,0,0.5,0,0.5c0,0.2,0.1,0.3,0.3,0.3c0.3,0,0.6-0.2,0.9-0.7
				v-5.9h1.4C37.1,39.8,37.1,47.5,37.1,47.5z M42.4,45.2c0,0.7,0,1.2-0.1,1.6c-0.2,0.6-0.6,0.9-1.1,0.9c-0.5,0-1-0.3-1.5-0.9v0.8
				h-1.4V37.1h1.4v3.4c0.5-0.6,0.9-0.8,1.5-0.8c0.6,0,0.9,0.3,1.1,0.9c0.1,0.3,0.1,0.8,0.1,1.6L42.4,45.2L42.4,45.2z M47.7,43.9
				h-2.8v1.4c0,0.7,0.2,1.1,0.7,1.1c0.3,0,0.5-0.2,0.6-0.6c0-0.1,0-0.4,0-1h1.4v0.2c0,0.5,0,0.8,0,0.9c0,0.3-0.2,0.6-0.3,0.8
				c-0.4,0.6-1,0.8-1.7,0.8c-0.7,0-1.3-0.3-1.7-0.8c-0.3-0.4-0.5-1-0.5-1.8v-2.7c0-0.8,0.1-1.4,0.4-1.8c0.4-0.5,1-0.8,1.7-0.8
				c0.7,0,1.3,0.3,1.7,0.8c0.3,0.4,0.4,1,0.4,1.8L47.7,43.9C47.7,43.9,47.7,43.9,47.7,43.9z"/>
		</g>
	</g>
</g>
</svg>
