<?xml version="1.0" encoding="utf-8"?>
<!-- Generator: Adobe Illustrator 22.0.0, SVG Export Plug-In . SVG Version: 6.00 Build 0)  -->
<svg version="1.0" id="Направляющие" xmlns="http://www.w3.org/2000/svg" xmlns:xlink="http://www.w3.org/1999/xlink"
	 x="0px" y="0px" viewBox="0 0 60 85" enable-background="new 0 0 60 85" xml:space="preserve">
<g id="instagram">
	
		<linearGradient id="canvas_background_1_" gradientUnits="userSpaceOnUse" x1="30" y1="85" x2="30" y2="0" gradientTransform="matrix(1 0 0 -1 0 85)">
		<stop  offset="0.1615" style="stop-color:#A137A1"/>
		<stop  offset="0.4051" style="stop-color:#D10869"/>
		<stop  offset="0.8615" style="stop-color:#F68136"/>
	</linearGradient>
	<rect id="canvas_background" fill="url(#canvas_background_1_)" width="60" height="85"/>
</g>
<g id="подписка_на_лайки" transform="translate(0,-540.36218)">
	<path id="path3036" fill="#FFFFFF" d="M30.2,566.7c-1.1,0-2.2,0.1-3.3,0.3c-8.8,1.8-14.4,10.4-12.6,19.2
		c1.8,8.8,10.4,14.4,19.2,12.6l-0.5-2.2c-7.6,1.6-15-3.3-16.5-10.9c-1.6-7.6,3.3-15,10.9-16.5c7.6-1.6,15,3.3,16.5,10.9
		c0.7,3.2,0.2,6.5-1.3,9.3l-1.5-0.9l-0.8,7.4l6.1-4.4l-1.8-1c1.8-3.3,2.3-7.2,1.6-10.9C44.6,572,37.8,566.7,30.2,566.7z"/>
	<path id="лайк_2_" fill="#FFFFFF" d="M35.1,576.7c2.2,0,4,1.8,4,4s-4.4,7.2-9,11c-4.6-3.9-9-8.8-9-11c0-2.2,1.8-4,4-4
		c2.7,0,4.9,3.4,4.9,3.4S32.3,576.7,35.1,576.7 M35.1,574.5c-2,0-3.8,1-4.9,2.6c-1.1-1.6-2.9-2.6-4.9-2.6c-3.5,0-6.3,2.8-6.3,6.3
		c0,4.9,11.2,13.9,11.2,13.9s11.2-9,11.2-13.9C41.4,577.3,38.6,574.5,35.1,574.5L35.1,574.5z"/>
</g>
</svg>
