<?xml version="1.0" encoding="utf-8"?>
<!-- Generator: Adobe Illustrator 22.1.0, SVG Export Plug-In . SVG Version: 6.00 Build 0)  -->
<svg version="1.0" id="Направляющие" xmlns="http://www.w3.org/2000/svg" xmlns:xlink="http://www.w3.org/1999/xlink"
	 x="0px" y="0px" viewBox="0 0 60 85" enable-background="new 0 0 60 85" xml:space="preserve">
<g id="instagram">
	
		<linearGradient id="canvas_background_1_" gradientUnits="userSpaceOnUse" x1="30" y1="85" x2="30" y2="0" gradientTransform="matrix(1 0 0 -1 0 85)">
		<stop  offset="0.1615" style="stop-color:#A137A1"/>
		<stop  offset="0.4051" style="stop-color:#D10869"/>
		<stop  offset="0.8615" style="stop-color:#F68136"/>
	</linearGradient>
	<rect id="canvas_background" fill="url(#canvas_background_1_)" width="60" height="85"/>
</g>
<path fill="#FFFFFF" d="M46,30.4c-0.5-0.3-1.4-0.5-2.3-0.5c-3,0-5.1,2.5-5.1,5.3c0,1.8,1,2.8,2.3,2.8c1.1,0,2.1-0.5,3-1.7
	c0,1.2,0.7,1.7,1.7,1.7c2,0,4-1.9,4-5.5c0-3.8-2.7-6.4-6.5-6.4c-4.9,0-8,3.8-8,8.6c0,4.4,3.1,7.1,6.6,7.1c1.4,0,2.7-0.2,3.9-0.9
	l-0.5-1.5c-0.8,0.5-2,0.7-3.2,0.7c-2.9,0-5.4-2-5.4-5.6c0-4.4,2.9-6.9,6.3-6.9c3.2,0,5.3,1.8,5.3,4.9c0,2.6-1.4,3.8-2.3,3.8
	c-0.6,0-0.9-0.4-0.7-1.7L46,30.4z M44.1,33.5c-0.3,1.6-1.4,2.9-2.7,2.9c-0.9,0-1.3-0.6-1.3-1.5c0-2,1.4-3.5,3.2-3.5
	c0.5,0,0.9,0.1,1.2,0.2L44.1,33.5z"/>
<path fill="#FFFFFF" d="M20.9,30.4c-0.5-0.3-1.4-0.5-2.3-0.5c-3,0-5.1,2.5-5.1,5.3c0,1.8,1,2.8,2.3,2.8c1.1,0,2.1-0.5,3-1.7
	c0,1.2,0.7,1.7,1.7,1.7c2,0,4-1.9,4-5.5c0-3.8-2.7-6.4-6.5-6.4c-4.9,0-8,3.8-8,8.6c0,4.4,3.1,7.1,6.6,7.1c1.4,0,2.7-0.2,3.9-0.9
	l-0.5-1.5c-0.8,0.5-2,0.7-3.2,0.7c-2.9,0-5.4-2-5.4-5.6c0-4.4,2.9-6.9,6.3-6.9c3.2,0,5.3,1.8,5.3,4.9c0,2.6-1.4,3.8-2.3,3.8
	c-0.6,0-0.9-0.4-0.7-1.7L20.9,30.4z M18.9,33.5c-0.3,1.6-1.4,2.9-2.7,2.9c-0.9,0-1.3-0.6-1.3-1.5c0-2,1.4-3.5,3.2-3.5
	c0.5,0,0.9,0.1,1.2,0.2L18.9,33.5z"/>
<path fill="#FFFFFF" d="M32.6,47.1c-0.5-0.3-1.4-0.5-2.3-0.5c-3,0-5.1,2.5-5.1,5.3c0,1.8,1,2.8,2.3,2.8c1.1,0,2.1-0.5,3-1.7
	c0,1.2,0.7,1.7,1.7,1.7c2,0,4-1.9,4-5.5c0-3.8-2.7-6.4-6.5-6.4c-4.9,0-8,3.8-8,8.6c0,4.4,3.1,7.1,6.6,7.1c1.4,0,2.7-0.2,3.9-0.9
	l-0.5-1.5c-0.8,0.5-2,0.7-3.2,0.7c-2.9,0-5.4-2-5.4-5.6c0-4.4,2.9-6.9,6.3-6.9c3.2,0,5.3,1.8,5.3,4.9c0,2.6-1.4,3.8-2.3,3.8
	c-0.6,0-0.9-0.4-0.7-1.7L32.6,47.1z M30.7,50.2c-0.3,1.6-1.4,2.9-2.7,2.9c-0.9,0-1.3-0.6-1.3-1.5c0-2,1.4-3.5,3.2-3.5
	c0.5,0,0.9,0.1,1.2,0.2L30.7,50.2z"/>
</svg>
