<?xml version="1.0" encoding="utf-8"?>
<!-- Generator: Adobe Illustrator 22.0.0, SVG Export Plug-In . SVG Version: 6.00 Build 0)  -->
<svg version="1.0" id="Направляющие" xmlns="http://www.w3.org/2000/svg" xmlns:xlink="http://www.w3.org/1999/xlink"
	 x="0px" y="0px" viewBox="0 0 60 85" enable-background="new 0 0 60 85" xml:space="preserve">
<g id="instagram">
	
		<linearGradient id="canvas_background_1_" gradientUnits="userSpaceOnUse" x1="30" y1="85" x2="30" y2="0" gradientTransform="matrix(1 0 0 -1 0 85)">
		<stop  offset="0.1615" style="stop-color:#A137A1"/>
		<stop  offset="0.4051" style="stop-color:#D10869"/>
		<stop  offset="0.8615" style="stop-color:#F68136"/>
	</linearGradient>
	<rect id="canvas_background" fill="url(#canvas_background_1_)" width="60" height="85"/>
</g>
<g id="посетители">
	<g>
		<path fill="#FFFFFF" d="M21.9,44c0,0,2.3-1,4.3-1.2c0,0,1.2,1.3,3.7,1.4s3.7-1.4,3.7-1.4s2.8,0.3,4.9,1.4c2,1.1,4.3,1.8,4,11
			c0,0-1.6,3.7-12.9,3.7C29.5,58.9,33.9,47.6,21.9,44z"/>
		<path fill="#FFFFFF" d="M29.8,26.1c0,0,5.5-0.3,6.2,3.7s0.3,6.1,0.3,6.1s-0.7,3.3-2.9,4.9s-3.7,1.3-3.7,1.3s-2.9-0.3-4.2-1.8
			c-1.2-1.6-2.1-2.9-2.3-5.8c-0.2-2.9,0.5-4.8,0.5-4.8S24.6,26,29.8,26.1z"/>
		<path fill="#FFFFFF" d="M22.6,52.4c0.1,0.3,0.4,0.4,0.7,0.2c0.3-0.1,0.4-0.4,0.2-0.7l-1.4-2.8c-0.1-0.3-0.4-0.4-0.7-0.2
			c-0.3,0.1-0.4,0.4-0.2,0.7L22.6,52.4z M23.5,54.4c-0.2,0.2-0.2,0.5,0,0.7c0.2,0.2,0.5,0.2,0.7,0l2.3-2.2c0.2-0.2,0.2-0.5,0-0.7
			c-0.2-0.2-0.5-0.2-0.7,0L23.5,54.4z M21.9,56c-0.3-0.1-0.6,0-0.7,0.2c-0.1,0.3,0,0.6,0.2,0.7l2.8,1.5c0.3,0.1,0.6,0,0.7-0.2
			c0.1-0.3,0-0.6-0.2-0.7L21.9,56z M19.9,54.9c0-0.3-0.1-0.6-0.4-0.6c-0.3,0-0.6,0.1-0.6,0.4l-0.5,3.1c0,0.3,0.1,0.6,0.4,0.6
			c0.3,0,0.6-0.1,0.6-0.4L19.9,54.9z M20.3,52.6c0.3,0,0.5-0.3,0.4-0.6s-0.3-0.5-0.6-0.4L17,52.1c-0.3,0-0.5,0.3-0.4,0.6
			c0,0.3,0.3,0.5,0.6,0.4L20.3,52.6z"/>
		<path fill="#FFFFFF" d="M26.1,53.1c0.3,0,0.6-0.2,0.6-0.4s-0.2-0.6-0.4-0.6l-3.1-0.5c-0.3,0-0.6,0.2-0.6,0.4
			c0,0.3,0.2,0.6,0.4,0.6L26.1,53.1z M23.9,58c0,0.3,0.3,0.5,0.6,0.4c0.3,0,0.5-0.3,0.4-0.6l-0.5-3.1c0-0.3-0.3-0.5-0.6-0.4
			c-0.3,0-0.5,0.3-0.4,0.6L23.9,58z M18.6,57.4c-0.3,0.1-0.4,0.5-0.2,0.7c0.1,0.3,0.5,0.4,0.7,0.2l2.8-1.5c0.3-0.1,0.4-0.5,0.2-0.7
			c-0.1-0.3-0.5-0.4-0.7-0.2L18.6,57.4z M17.5,52.2c-0.2-0.2-0.5-0.2-0.7,0s-0.2,0.5,0,0.7l2.3,2.2c0.2,0.2,0.5,0.2,0.7,0
			c0.2-0.2,0.2-0.5,0-0.7L17.5,52.2z M22.1,49.5c0.1-0.3,0-0.6-0.2-0.7c-0.3-0.1-0.6,0-0.7,0.2l-1.4,2.8c-0.1,0.3,0,0.6,0.2,0.7
			c0.3,0.1,0.6,0,0.7-0.2L22.1,49.5z"/>
	</g>
</g>
</svg>
