<?xml version="1.0" encoding="utf-8"?>
<!-- Generator: Adobe Illustrator 22.1.0, SVG Export Plug-In . SVG Version: 6.00 Build 0)  -->
<svg version="1.0" id="Направляющие" xmlns="http://www.w3.org/2000/svg" xmlns:xlink="http://www.w3.org/1999/xlink"
	 x="0px" y="0px" viewBox="0 0 60 85" enable-background="new 0 0 60 85" xml:space="preserve">
<g id="instagram">
	
		<linearGradient id="canvas_background_1_" gradientUnits="userSpaceOnUse" x1="30" y1="85" x2="30" y2="0" gradientTransform="matrix(1 0 0 -1 0 85)">
		<stop  offset="0.1615" style="stop-color:#A137A1"/>
		<stop  offset="0.4051" style="stop-color:#D10869"/>
		<stop  offset="0.8615" style="stop-color:#F68136"/>
	</linearGradient>
	<rect id="canvas_background" fill="url(#canvas_background_1_)" width="60" height="85"/>
</g>
<g id="стрим">
	<path fill="#FFFFFF" d="M46.4,42.5v1.6c-5.4,0-9.8,4.4-9.8,9.8h-1.6C34.9,47.6,40,42.5,46.4,42.5z M39.8,54h1.6
		c0-2.7,2.2-4.9,4.9-4.9v-1.6C42.8,47.4,39.8,50.3,39.8,54L39.8,54z M26.7,37.8l8.2,4.7l-8.2,4.7L26.7,37.8z M28.4,44.4l3.3-1.9
		l-3.3-1.9V44.4z M44.7,54h1.6v-1.6h-1.6V54z M42.3,31H17.7c-2.3,0-4.1,1.8-4.1,4.1v14.7c0,2.3,1.8,4.1,4.1,4.1h13.9v-1.6H17.7
		c-1.4,0-2.5-1.1-2.5-2.5V35.1c0-1.4,1.1-2.5,2.5-2.5h24.6c1.4,0,2.5,1.1,2.5,2.5v4.1h1.6v-4.1C46.4,32.9,44.5,31,42.3,31z"/>
</g>
</svg>
