<?xml version="1.0" encoding="utf-8"?>
<!-- Generator: Adobe Illustrator 22.0.0, SVG Export Plug-In . SVG Version: 6.00 Build 0)  -->
<svg version="1.0" id="Направляющие" xmlns="http://www.w3.org/2000/svg" xmlns:xlink="http://www.w3.org/1999/xlink"
	 x="0px" y="0px" viewBox="0 0 60 85" enable-background="new 0 0 60 85" xml:space="preserve">
<g id="instagram">
	
		<linearGradient id="canvas_background_1_" gradientUnits="userSpaceOnUse" x1="30" y1="85" x2="30" y2="0" gradientTransform="matrix(1 0 0 -1 0 85)">
		<stop  offset="0.1615" style="stop-color:#A137A1"/>
		<stop  offset="0.4051" style="stop-color:#D10869"/>
		<stop  offset="0.8615" style="stop-color:#F68136"/>
	</linearGradient>
	<rect id="canvas_background" fill="url(#canvas_background_1_)" width="60" height="85"/>
</g>
<g id="подписка_на_лайки_1_" transform="translate(0,-540.36218)">
	<path id="path3036_1_" fill="#FFFFFF" d="M30.2,566.7c-1.1,0-2.2,0.1-3.3,0.3c-8.8,1.8-14.4,10.4-12.6,19.2
		c1.8,8.8,10.4,14.4,19.2,12.6l-0.5-2.2c-7.6,1.6-15-3.3-16.5-10.9c-1.6-7.6,3.3-15,10.9-16.5c7.6-1.6,15,3.3,16.5,10.9
		c0.7,3.2,0.2,6.5-1.3,9.3l-1.5-0.9l-0.8,7.4l6.1-4.4l-1.8-1c1.8-3.3,2.3-7.2,1.6-10.9C44.6,572,37.8,566.7,30.2,566.7z"/>
	<path id="просмотры_1_" fill="#FFFFFF" d="M30.2,580.1c0,1.6-1.3,2.9-2.9,2.9c0,1.6,1.3,2.9,2.9,2.9
		c1.6,0,2.9-1.3,2.9-2.9C33.1,581.4,31.8,580.1,30.2,580.1z M30.2,574.3c-5.9,0-11.5,6.7-11.5,8.6c0,1.9,5.6,8.6,11.5,8.6
		s11.5-6.7,11.5-8.6C41.8,581,36.2,574.3,30.2,574.3z M30.2,588.7c-3.2,0-5.8-2.6-5.8-5.8c0-3.2,2.6-5.8,5.8-5.8s5.8,2.6,5.8,5.8
		C36,586.2,33.4,588.7,30.2,588.7z"/>
</g>
</svg>
