<?xml version="1.0" encoding="utf-8"?>
<!-- Generator: Adobe Illustrator 22.0.0, SVG Export Plug-In . SVG Version: 6.00 Build 0)  -->
<svg version="1.0" id="Направляющие" xmlns="http://www.w3.org/2000/svg" xmlns:xlink="http://www.w3.org/1999/xlink"
	 x="0px" y="0px" viewBox="0 0 60 85" enable-background="new 0 0 60 85" xml:space="preserve">
<g id="instagram">
	
		<linearGradient id="canvas_background_1_" gradientUnits="userSpaceOnUse" x1="30" y1="85" x2="30" y2="0" gradientTransform="matrix(1 0 0 -1 0 85)">
		<stop  offset="0.1615" style="stop-color:#A137A1"/>
		<stop  offset="0.4051" style="stop-color:#D10869"/>
		<stop  offset="0.8615" style="stop-color:#F68136"/>
	</linearGradient>
	<rect id="canvas_background" fill="url(#canvas_background_1_)" width="60" height="85"/>
</g>
<g id="stories">
	<g>
		<path fill="#FFFFFF" d="M30,58.7c-2.7,0-5.4-0.7-7.7-1.9c-0.6-0.3-0.8-1-0.5-1.5c0.3-0.6,1-0.8,1.5-0.5c2,1.1,4.3,1.7,6.7,1.7
			c1.1,0,2.2-0.1,3.2-0.4c0.6-0.1,1.2,0.2,1.4,0.8c0.1,0.6-0.2,1.2-0.8,1.4C32.5,58.6,31.2,58.7,30,58.7z"/>
	</g>
	<g>
		<path fill="#FFFFFF" d="M19.5,54.5c-0.3,0-0.6-0.1-0.8-0.3c-2.3-2.2-3.9-5-4.7-8c-0.1-0.6,0.2-1.2,0.8-1.4
			c0.6-0.1,1.2,0.2,1.4,0.8c0.6,2.6,2,5,4,6.9c0.5,0.4,0.5,1.1,0,1.6C20.1,54.4,19.8,54.5,19.5,54.5z"/>
	</g>
	<g>
		<path fill="#FFFFFF" d="M14.8,41.9c0,0-0.1,0-0.1,0c-0.6-0.1-1.1-0.6-1-1.2c0.2-1.8,0.7-3.6,1.4-5.3c0.3-0.6,0.9-0.8,1.5-0.5
			c0.6,0.3,0.8,0.9,0.5,1.5c-0.7,1.4-1.1,3-1.2,4.6C15.8,41.5,15.3,41.9,14.8,41.9z"/>
	</g>
	<g>
		<path fill="#FFFFFF" d="M19.5,32.3c-0.3,0-0.5-0.1-0.7-0.3c-0.5-0.4-0.6-1.1-0.2-1.6c0.1-0.1,0.2-0.2,0.3-0.4
			c0.4-0.5,1.1-0.5,1.6-0.1c0.5,0.4,0.5,1.1,0.1,1.6c-0.1,0.1-0.2,0.2-0.3,0.3C20.2,32.2,19.8,32.3,19.5,32.3z"/>
	</g>
	<g>
		<path fill="#FFFFFF" d="M37.8,56.6c-0.4,0-0.8-0.2-1-0.6c-0.3-0.5-0.1-1.2,0.4-1.6c4.3-2.5,6.9-7.2,6.9-12.1
			c0-7.8-6.3-14.1-14.1-14.1c-0.6,0-1.1-0.5-1.1-1.1s0.5-1.1,1.1-1.1c9,0,16.4,7.4,16.4,16.4c0,5.7-3.1,11.1-8,14.1
			C38.2,56.5,38,56.6,37.8,56.6z"/>
	</g>
	<polygon fill="#FFFFFF" points="37.6,41.2 31.1,41.2 31.1,34.7 28.9,34.7 28.9,41.2 22.4,41.2 22.4,43.5 28.9,43.5 28.9,50 
		31.1,50 31.1,43.5 37.6,43.5 	"/>
</g>
</svg>
