<?xml version="1.0" encoding="utf-8"?>
<!-- Generator: Adobe Illustrator 22.0.0, SVG Export Plug-In . SVG Version: 6.00 Build 0)  -->
<svg version="1.0" id="Направляющие" xmlns="http://www.w3.org/2000/svg" xmlns:xlink="http://www.w3.org/1999/xlink"
	 x="0px" y="0px" viewBox="0 0 60 85" enable-background="new 0 0 60 85" xml:space="preserve">
<symbol  id="масс-лайк" viewBox="-16.3 -16.4 32.6 32.8">
	<path id="лайк_5_" fill="#FFFFFF" d="M-2.9,14.5c1.9,0,3.4-1.5,3.4-3.4S-3.2,5.2-7,2c-3.8,3.3-7.4,7.4-7.4,9.1
		c0,1.9,1.5,3.4,3.4,3.4c2.2,0,4.1-2.8,4.1-2.8S-5.2,14.5-2.9,14.5 M-2.9,16.4c-1.7,0-3.2-0.8-4.1-2.1c-0.9,1.3-2.4,2.1-4.1,2.1
		c-2.9,0-5.2-2.3-5.2-5.2C-16.3,7.1-7-0.4-7-0.4s9.3,7.4,9.3,11.5C2.3,14,0,16.4-2.9,16.4L-2.9,16.4z"/>
	<path id="лайк_4_" fill="#FFFFFF" d="M11.1-1.5c1.9,0,3.4-1.5,3.4-3.4s-3.6-6-7.4-9.1c-3.8,3.3-7.4,7.4-7.4,9.1
		C-0.4-3,1-1.5,2.9-1.5C5.1-1.5,7-4.3,7-4.3S8.8-1.5,11.1-1.5 M11.1,0.4C9.4,0.4,7.9-0.5,7-1.8C6.1-0.5,4.6,0.4,2.9,0.4
		C0,0.4-2.3-1.9-2.3-4.8C-2.3-8.9,7-16.4,7-16.4s9.3,7.4,9.3,11.5C16.3-1.9,14,0.4,11.1,0.4L11.1,0.4z"/>
</symbol>
<g id="instagram">
	
		<linearGradient id="canvas_background_1_" gradientUnits="userSpaceOnUse" x1="30" y1="85" x2="30" y2="0" gradientTransform="matrix(1 0 0 -1 0 85)">
		<stop  offset="0.1615" style="stop-color:#A137A1"/>
		<stop  offset="0.4051" style="stop-color:#D10869"/>
		<stop  offset="0.8615" style="stop-color:#F68136"/>
	</linearGradient>
	<rect id="canvas_background" fill="url(#canvas_background_1_)" width="60" height="85"/>
</g>
<use xlink:href="#масс-лайк"  width="32.6" height="32.8" x="-16.3" y="-16.4" transform="matrix(1 0 0 -1 29.9375 42.5)" overflow="visible"/>
</svg>
