<?xml version="1.0" encoding="utf-8"?>
<!-- Generator: Adobe Illustrator 25.0.0, SVG Export Plug-In . SVG Version: 6.00 Build 0)  -->
<svg version="1.2" baseProfile="tiny" xmlns="http://www.w3.org/2000/svg" xmlns:xlink="http://www.w3.org/1999/xlink" x="0px"
	 y="0px" viewBox="0 0 60 85" overflow="visible" xml:space="preserve">
<g id="фоны">
	<rect id="facebook" fill="#3A5BA2" width="60" height="85"/>
</g>
<g id="иконки">
	<g id="ЛКП">
		<path id="лайк_9_" fill="#FFFFFF" d="M26.5460358,44.5107002c1.7636051,0,3.17449,1.410881,3.17449,3.1744881
			s-3.4390297,5.6435356-7.0544205,8.6416664c-3.6153908-3.0863075-7.0544205-6.9662399-7.0544205-8.6416664
			c0-1.763607,1.4108849-3.1744881,3.17449-3.1744881c2.1163254,0,3.8799305,2.6454048,3.8799305,2.6454048
			S24.3415298,44.5107002,26.5460358,44.5107002 M26.5460358,42.7470932c-1.587244,0-2.998127,0.7936211-3.8799305,2.0281448
			c-0.8818016-1.2345238-2.2926865-2.0281448-3.8799305-2.0281448c-2.7335892,0-4.9380951,2.2045059-4.9380951,4.9380951
			c0,3.8799324,8.8180256,10.9343529,8.8180256,10.9343529s8.8180256-7.0544205,8.8180256-10.9343529
			C31.4841309,44.9515991,29.2796249,42.7470932,26.5460358,42.7470932L26.5460358,42.7470932z"/>
		<g id="подписчики_3_">
			<g>
				<path fill="#FFFFFF" d="M33.6707878,50.1756592c0,0,1.405323-0.6183434,2.6420097-0.7307701
					c0,0,0.7252502,0.8150902,2.2457619,0.8431969c1.5205078,0.0281067,2.2231712-0.8431969,2.2231712-0.8431969
					s1.7144928,0.1699715,2.9511795,0.8438606c1.2366867,0.673893,2.5858002,1.0673828,2.4452667,6.7167892
					c0,0-0.9837265,2.2485161-7.8698196,2.2485161C38.3083572,59.254055,41.0065804,52.3960724,33.6707878,50.1756592z"/>
				<path fill="#FFFFFF" d="M38.5051041,39.2984467c0,0,3.3446732-0.1967468,3.7943764,2.2485199
					c0.4497032,2.4452629,0.196743,3.738163,0.196743,3.738163s-0.4215965,2.0236664-1.7425995,2.9511833
					c-1.3210068,0.9275131-2.2485199,0.8150864-2.2485199,0.8150864s-1.77071-0.1686401-2.5295868-1.1242599
					c-0.758873-0.9556198-1.2928963-1.77071-1.405323-3.5133133c-0.1124268-1.7425995,0.2810631-2.8949661,0.2810631-2.8949661
					S35.3009644,39.2141266,38.5051041,39.2984467z"/>
				<polygon fill="#FFFFFF" points="32.7994843,58.3827553 34.1767044,58.3827553 34.1767044,56.6682587 35.9474106,56.6682587 
					35.9474106,55.319149 34.1767044,55.319149 34.120491,53.5765457 32.7994843,53.5765457 32.7994843,55.2910423 
					31.0287762,55.2348289 31.0287762,56.640152 32.7713776,56.640152 				"/>
			</g>
		</g>
		<g id="комменты_2_">
			<g>
				<path fill="#FFFFFF" d="M27.4618511,40.2146416l-2.0319901-2.0319901H19.721138V26.2735271h15.4857788v11.9091244h-5.7130737
					L27.4618511,40.2146416z M20.9090061,36.9904327h5.0125351l1.5403099,1.5403099l1.5403099-1.5403099h5.012537v-9.5290394
					H20.9090061V36.9904327z"/>
			</g>
			<g>
				<rect x="23.2934399" y="29.2497196" fill="#FFFFFF" width="8.3368216" height="1.1922175"/>
			</g>
			<g>
				<rect x="23.2934399" y="31.6298046" fill="#FFFFFF" width="8.3368216" height="1.1922175"/>
			</g>
			<g>
				<rect x="23.2934399" y="34.0142403" fill="#FFFFFF" width="5.9567366" height="1.1922175"/>
			</g>
		</g>
	</g>
</g>
</svg>
