<?xml version="1.0" encoding="utf-8"?>
<!-- Generator: Adobe Illustrator 22.0.0, SVG Export Plug-In . SVG Version: 6.00 Build 0)  -->
<svg version="1.0" id="Направляющие" xmlns="http://www.w3.org/2000/svg" xmlns:xlink="http://www.w3.org/1999/xlink"
	 x="0px" y="0px" viewBox="0 0 60 85" enable-background="new 0 0 60 85" xml:space="preserve">
<symbol  id="Новый_символ_1" viewBox="-11.2 -14.8 22.5 29.6">
	<path fill="#FFFFFF" d="M-7.3-1.3c0,0,2.1,0.9,3.9,1.1c0,0,1.1-1.2,3.3-1.3s3.3,1.3,3.3,1.3s2.5-0.3,4.4-1.3s3.8-1.6,3.6-10
		c0,0-1.5-3.3-11.7-3.3C-0.4-14.8,3.6-4.6-7.3-1.3z"/>
	<path fill="#FFFFFF" d="M-0.2,14.8c0,0,5,0.3,5.6-3.3s0.3-5.5,0.3-5.5s-0.6-3-2.6-4.4s-3.3-1.2-3.3-1.2S-2.8,0.6-3.9,2
		S-5.8,4.6-6,7.2c-0.2,2.6,0.4,4.3,0.4,4.3S-4.9,14.9-0.2,14.8z"/>
	<polygon fill="#FFFFFF" points="-8.6,-13.5 -6.6,-13.5 -6.6,-11 -3.9,-11 -3.9,-9 -6.6,-9 -6.7,-6.4 -8.6,-6.4 -8.6,-8.9 
		-11.2,-8.8 -11.2,-10.9 -8.7,-10.9 	"/>
</symbol>
<rect id="facebook" fill="#3A5BA2" width="60" height="85"/>
<use xlink:href="#Новый_символ_1"  width="22.5" height="29.6" id="подписчики_1_" x="-11.2" y="-14.8" transform="matrix(1.1092 0 0 -1.1092 30 42.5)" overflow="visible"/>
</svg>
