<?xml version="1.0" encoding="utf-8"?>
<!-- Generator: Adobe Illustrator 22.0.0, SVG Export Plug-In . SVG Version: 6.00 Build 0)  -->
<svg version="1.0" id="Направляющие" xmlns="http://www.w3.org/2000/svg" xmlns:xlink="http://www.w3.org/1999/xlink"
	 x="0px" y="0px" viewBox="0 0 60 85" enable-background="new 0 0 60 85" xml:space="preserve">
<rect id="facebook" fill="#3A5BA2" width="60" height="85"/>
<g id="t_up_c_1_">
	<g>
		<path fill="#FFFFFF" d="M30,57.6l-4.3-4.3H13.6V28.1h32.8v25.2H34.3L30,57.6z M16.1,50.8h10.6L30,54l3.3-3.3h10.6V30.6H16.1V50.8z
			"/>
	</g>
	<g id="thumb_up_1_">
		<path fill="#FFFFFF" d="M37.4,39.3c-0.2-0.5-0.7-0.8-1.3-0.8c-1.3,0-2.6,0-3.9,0h-0.2c0.3-0.2,0.6-0.5,0.8-0.7
			c1.2-1.2,1.5-2.6,1.1-4.2c-0.1-0.2-0.2-0.5-0.3-0.6c-0.1-0.2-0.4-0.2-0.6-0.1c0,0,0,0,0,0c-0.1,0-0.1,0.1-0.2,0.2
			c-0.2,0.2-0.4,0.4-0.5,0.6c-0.2,0.3-0.4,0.6-0.6,0.8l-0.1,0.1c-0.1,0.1-0.1,0.2-0.2,0.3c-0.2,0.3-0.5,0.6-0.7,0.8
			c-0.3,0.3-0.6,0.6-0.9,0.9c-0.2,0.2-0.3,0.3-0.5,0.4c-0.4,0.3-0.7,0.6-1.2,0.8c-0.2,0.1-0.4,0.2-0.7,0.3l-0.1,0
			c-0.2,0.1-0.5,0.2-0.7,0.3l0,0c0,0-0.1,0-0.1,0.1s0,0.1,0,0.2V46c0,0.4,0.2,0.7,0.6,0.7c0.6,0.1,1.2,0.2,1.8,0.3
			c1.3,0.2,2.6,0.4,3.9,0.6c1.4,0.2,2.7-0.6,3.2-1.9c0.4-1.2,0.7-2.4,1.1-3.6c0.1-0.3,0.2-0.6,0.3-1c0,0,0,0,0,0
			c0.1-0.3,0.2-0.6,0.3-0.9C37.6,40,37.6,39.6,37.4,39.3z"/>
		<path fill="#FFFFFF" d="M24.5,38.2h-2.1v8.9h2.1c0.5,0,0.9-0.4,0.9-0.9v-7C25.4,38.6,25,38.2,24.5,38.2z"/>
	</g>
</g>
</svg>
