<?xml version="1.0" encoding="utf-8"?>
<!-- Generator: Adobe Illustrator 22.1.0, SVG Export Plug-In . SVG Version: 6.00 Build 0)  -->
<svg version="1.0" id="Направляющие" xmlns="http://www.w3.org/2000/svg" xmlns:xlink="http://www.w3.org/1999/xlink"
	 x="0px" y="0px" viewBox="0 0 60 85" enable-background="new 0 0 60 85" xml:space="preserve">
<rect id="facebook" fill="#3A5BA2" width="60" height="85"/>
<g id="видео_просмотры" transform="translate(0,-952.36218)">
	<path fill="#FFFFFF" d="M14.6,982.1c-0.6,0.1-1,0.5-1,1.1v23.3c0,0.6,0.5,1.1,1.1,1.1h30.6c0.6,0,1.1-0.5,1.1-1.1v-23.3
		c0-0.6-0.5-1.1-1.1-1.1H14.7C14.7,982.1,14.6,982.1,14.6,982.1z M15.8,984.3h28.4v21.1H15.8V984.3z M25.1,987.5
		c-0.5,0.1-0.9,0.5-0.9,1.1v12.4c0,0.6,0.5,1.1,1.1,1.1c0.2,0,0.3,0,0.5-0.1l12.4-6.2c0.5-0.3,0.7-0.9,0.5-1.5
		c-0.1-0.2-0.3-0.4-0.5-0.5l-12.4-6.2C25.6,987.5,25.3,987.5,25.1,987.5z M26.4,990.4l8.8,4.4l-8.8,4.4V990.4z"/>
</g>
</svg>
