<?xml version="1.0" encoding="utf-8"?>
<!-- Generator: Adobe Illustrator 22.0.0, SVG Export Plug-In . SVG Version: 6.00 Build 0)  -->
<svg version="1.0" id="Направляющие" xmlns="http://www.w3.org/2000/svg" xmlns:xlink="http://www.w3.org/1999/xlink"
	 x="0px" y="0px" viewBox="0 0 60 85" enable-background="new 0 0 60 85" xml:space="preserve">
<rect id="facebook" fill="#3A5BA2" width="60" height="85"/>
<g id="репост">
	<path fill="#FFFFFF" d="M38.2,52.9H16.9V37.6h4.9c0,0,1.2-1.7,3.6-3.3H15.3c-0.9,0-1.6,0.7-1.6,1.6v18.6c0,0.9,0.7,1.6,1.6,1.6
		h24.6c0.9,0,1.6-0.7,1.6-1.6v-9.3l-3.3,2.7V52.9z M35.5,39.8v5.4l10.9-8.1l-10.9-8.2v5.1c-13.2,0-13.6,14-13.6,14
		C25.5,41.9,28.3,39.8,35.5,39.8z"/>
</g>
</svg>
