<?xml version="1.0" encoding="utf-8"?>
<!-- Generator: Adobe Illustrator 22.0.0, SVG Export Plug-In . SVG Version: 6.00 Build 0)  -->
<svg version="1.0" id="Направляющие" xmlns="http://www.w3.org/2000/svg" xmlns:xlink="http://www.w3.org/1999/xlink"
	 x="0px" y="0px" viewBox="0 0 60 85" enable-background="new 0 0 60 85" xml:space="preserve">
<rect id="facebook" fill="#3A5BA2" width="60" height="85"/>
<g>
	<path fill="#FFFFFF" d="M44.4,26.7H15.7c-1.2,0-2.1,0.9-2.1,2.1v0.9v27.8c0,1.2,0.9,2.1,2.1,2.1h28.7c1.2,0,2.1-0.9,2.1-2.1V29.7
		v-0.9C46.5,27.6,45.6,26.7,44.4,26.7z M19.4,29.2h24.7c0.3,0,0.6,0.3,0.6,0.6c0,0.3-0.3,0.6-0.6,0.6H19.4c-0.3,0-0.6-0.3-0.6-0.6
		C18.8,29.4,19.1,29.2,19.4,29.2z M16.9,28.7c0.6,0,1,0.5,1,1s-0.5,1-1,1s-1-0.5-1-1C15.8,29.2,16.3,28.7,16.9,28.7z M44.4,57.7
		H15.7c-0.1,0-0.3-0.1-0.3-0.3V32.5h29.2v24.9C44.7,57.6,44.5,57.7,44.4,57.7z"/>
</g>
<g>
	<path fill="#FFFFFF" d="M39.7,42.2c0,5.6-9.6,11.8-9.6,11.8s-9.6-6.3-9.6-11.8c0-5.6,5.2-7.8,9.6-3.2
		C34.5,34.7,39.7,36.7,39.7,42.2z"/>
</g>
</svg>
