<?xml version="1.0" encoding="utf-8"?>
<!-- Generator: Adobe Illustrator 22.0.0, SVG Export Plug-In . SVG Version: 6.00 Build 0)  -->
<svg version="1.0" id="Направляющие" xmlns="http://www.w3.org/2000/svg" xmlns:xlink="http://www.w3.org/1999/xlink"
	 x="0px" y="0px" viewBox="0 0 60 85" enable-background="new 0 0 60 85" xml:space="preserve">
<rect id="facebook" fill="#3A5BA2" width="60" height="85"/>
<g id="event">
	<path fill="#FFFFFF" d="M42.4,29.5h-3v-1.4c0-0.7-0.6-1.2-1.2-1.2c-0.7,0-1.2,0.6-1.2,1.2v1.4H23.1v-1.4c0-0.7-0.6-1.2-1.2-1.2
		c-0.7,0-1.2,0.6-1.2,1.2v1.4h-3c-2.2,0-4,1.8-4,4v20.6c0,2.2,1.8,4,4,4h24.8c2.2,0,4-1.8,4-4V33.5C46.4,31.3,44.6,29.5,42.4,29.5z
		 M17.6,32h3v3c0,0.7,0.6,1.2,1.2,1.2c0.7,0,1.2-0.6,1.2-1.2v-3h13.8v3c0,0.7,0.6,1.2,1.2,1.2s1.2-0.6,1.2-1.2v-3h3
		c0.8,0,1.5,0.7,1.5,1.5v5.3H16.1v-5.3C16.1,32.7,16.8,32,17.6,32z M42.4,55.6H17.6c-0.8,0-1.5-0.7-1.5-1.5V41.3h27.8v12.9
		C43.9,55,43.2,55.6,42.4,55.6z"/>
	<path fill="#FFFFFF" d="M34.1,43.9l-5.4,5.1l-2.5-2.5c-0.5-0.5-1.3-0.5-1.7,0c-0.5,0.5-0.5,1.3,0,1.7l3.4,3.4
		c0.2,0.2,0.6,0.4,0.9,0.4c0.3,0,0.6-0.1,0.9-0.3l6.2-6c0.5-0.5,0.5-1.3,0-1.7C35.3,43.5,34.6,43.5,34.1,43.9z"/>
</g>
</svg>
