<?xml version="1.0" encoding="utf-8"?>
<!-- Generator: Adobe Illustrator 22.0.0, SVG Export Plug-In . SVG Version: 6.00 Build 0)  -->
<svg version="1.0" id="Направляющие" xmlns="http://www.w3.org/2000/svg" xmlns:xlink="http://www.w3.org/1999/xlink"
	 x="0px" y="0px" viewBox="0 0 60 85" enable-background="new 0 0 60 85" xml:space="preserve">
<rect id="facebook" fill="#3A5BA2" width="60" height="85"/>
<g id="thumb_up_2_">
	<path fill="#FFFFFF" d="M46,40.3c-0.5-1-1.6-1.7-2.7-1.7c-2.8,0-5.6,0-8.4,0h-0.4c0.6-0.5,1.2-1,1.8-1.6c2.5-2.5,3.3-5.6,2.4-9
		c-0.1-0.5-0.4-1-0.7-1.4c-0.3-0.4-0.9-0.5-1.4-0.2c0,0,0,0,0,0c-0.1,0.1-0.3,0.2-0.4,0.3c-0.4,0.4-0.8,0.8-1.1,1.3
		c-0.5,0.6-0.9,1.2-1.3,1.8l-0.2,0.3c-0.1,0.2-0.3,0.4-0.4,0.6c-0.5,0.6-1,1.2-1.6,1.8c-0.6,0.7-1.3,1.4-2.1,2
		c-0.4,0.3-0.7,0.7-1.1,0.9c-0.8,0.7-1.6,1.2-2.5,1.7c-0.5,0.3-0.9,0.5-1.4,0.7l-0.2,0.1c-0.5,0.3-1,0.5-1.6,0.6l-0.1,0
		c-0.1,0-0.2,0.1-0.2,0.2c0,0.1,0,0.2,0,0.3v15.7c-0.1,0.8,0.5,1.5,1.3,1.6c1.3,0.2,2.7,0.4,4,0.7c2.8,0.4,5.6,0.9,8.4,1.3
		c3,0.5,5.9-1.3,6.8-4.2c0.8-2.6,1.5-5.1,2.3-7.7c0.2-0.7,0.4-1.4,0.6-2.1c0,0,0,0,0,0c0.2-0.6,0.4-1.3,0.6-2
		C46.5,41.6,46.4,40.9,46,40.3z"/>
	<path fill="#FFFFFF" d="M18.1,37.8h-4.5v19.3h4.5c1.1,0,2-0.9,2-2V39.9C20.1,38.7,19.2,37.8,18.1,37.8z"/>
</g>
</svg>
