<?xml version="1.0" encoding="utf-8"?>
<!-- Generator: Adobe Illustrator 22.0.0, SVG Export Plug-In . SVG Version: 6.00 Build 0)  -->
<svg version="1.0" id="Направляющие" xmlns="http://www.w3.org/2000/svg" xmlns:xlink="http://www.w3.org/1999/xlink"
	 x="0px" y="0px" viewBox="0 0 60 85" enable-background="new 0 0 60 85" xml:space="preserve">
<rect id="facebook" fill="#3A5BA2" width="60" height="85"/>
<g id="group">
	<path fill="#FFFFFF" d="M30,26.1c-9,0-16.4,7.3-16.4,16.4S21,58.9,30,58.9s16.4-7.3,16.4-16.4S39,26.1,30,26.1z M17.5,47.6
		c0-2,1.3-3.7,3.2-4.3c0.2-0.1,0.2-0.3,0.1-0.4c-0.8-0.7-1.3-1.7-1.3-3c0-2,1.4-3.6,3.1-3.6s3.1,1.6,3.1,3.6c0,1.2-0.5,2.3-1.3,3
		c-0.2,0.1-0.1,0.4,0.1,0.5c0.2,0.1,0.3,0.1,0.5,0.2c0.2,0.1,0.2,0.4,0.1,0.6c-1.1,0.9-1.9,2.2-2.3,3.6H17.5z M24.3,48.2
		c0-2.2,1.5-4.2,3.7-4.9c0.2-0.1,0.2-0.3,0.1-0.5c-0.9-0.7-1.5-2-1.5-3.4c0-2.3,1.6-4.1,3.5-4.1s3.5,1.8,3.5,4.1
		c0,1.4-0.6,2.7-1.5,3.4c-0.2,0.1-0.1,0.4,0.1,0.5c2.1,0.8,3.7,2.7,3.7,4.9H24.3z M37.3,47.6C37,46.2,36.1,44.9,35,44
		c-0.2-0.1-0.1-0.4,0.1-0.6c0.2-0.1,0.3-0.2,0.5-0.2c0.2-0.1,0.2-0.3,0.1-0.5c-0.8-0.7-1.3-1.7-1.3-3c0-2,1.4-3.6,3.1-3.6
		c1.7,0,3.1,1.6,3.1,3.6c0,1.2-0.5,2.3-1.3,3c-0.2,0.1-0.1,0.4,0.1,0.4c1.9,0.7,3.2,2.3,3.2,4.3H37.3z"/>
</g>
</svg>
