<?xml version="1.0" encoding="utf-8"?>
<!-- Generator: Adobe Illustrator 22.0.0, SVG Export Plug-In . SVG Version: 6.00 Build 0)  -->
<svg version="1.0" id="Направляющие" xmlns="http://www.w3.org/2000/svg" xmlns:xlink="http://www.w3.org/1999/xlink"
	 x="0px" y="0px" viewBox="0 0 60 85" enable-background="new 0 0 60 85" xml:space="preserve">
<symbol  id="_x35__star" viewBox="-29.9 -29.3 59.9 58.7">
	<path fill="#FFFFFF" d="M0.6,29l2.9-5.9c0.1-0.2,0.2-0.3,0.4-0.3l6.5-1c0.5-0.1,0.7-0.6,0.3-1L6,16.2c-0.1-0.1-0.2-0.3-0.2-0.5
		l1.1-6.5C7,8.7,6.5,8.4,6.1,8.6l-5.9,3.1c-0.2,0.1-0.4,0.1-0.5,0l-5.9-3.1C-6.6,8.4-7.1,8.7-7,9.2l1.1,6.5c0,0.2,0,0.4-0.2,0.5
		l-4.7,4.6c-0.3,0.3-0.2,0.9,0.3,1l6.5,1c0.2,0,0.3,0.1,0.4,0.3l2.9,5.9C-0.3,29.4,0.4,29.4,0.6,29z"/>
	<path fill="#FFFFFF" d="M19.6,14.1l2.9-5.9c0.1-0.2,0.2-0.3,0.4-0.3l6.5-1c0.5-0.1,0.7-0.6,0.3-1L25,1.3c-0.1-0.1-0.2-0.3-0.2-0.5
		l1.1-6.5c0.1-0.5-0.4-0.8-0.8-0.6l-5.9,3.1c-0.2,0.1-0.4,0.1-0.5,0l-5.9-3.1c-0.4-0.2-0.9,0.1-0.8,0.6l1.1,6.5c0,0.2,0,0.4-0.2,0.5
		L8.2,5.9C7.9,6.2,8,6.8,8.5,6.9l6.5,1c0.2,0,0.3,0.1,0.4,0.3l2.9,5.9C18.7,14.6,19.4,14.6,19.6,14.1z"/>
	<path fill="#FFFFFF" d="M-18.4,14.1l2.9-5.9c0.1-0.2,0.2-0.3,0.4-0.3l6.5-1c0.5-0.1,0.7-0.6,0.3-1L-13,1.3
		c-0.1-0.1-0.2-0.3-0.2-0.5l1.1-6.5c0.1-0.5-0.4-0.8-0.8-0.6l-5.9,3.1c-0.2,0.1-0.4,0.1-0.5,0l-5.9-3.1c-0.4-0.2-0.9,0.1-0.8,0.6
		l1.1,6.5c0,0.2,0,0.4-0.2,0.5l-4.7,4.6c-0.3,0.3-0.2,0.9,0.3,1l6.5,1c0.2,0,0.3,0.1,0.4,0.3l2.9,5.9
		C-19.3,14.6-18.6,14.6-18.4,14.1z"/>
	<path fill="#FFFFFF" d="M-11.5-8.9l2.9-5.9c0.1-0.2,0.2-0.3,0.4-0.3l6.5-1c0.5-0.1,0.7-0.6,0.3-1l-4.7-4.6
		c-0.1-0.1-0.2-0.3-0.2-0.5l1.1-6.5c0.1-0.5-0.4-0.8-0.8-0.6l-5.9,3.1c-0.2,0.1-0.4,0.1-0.5,0l-5.9-3.1c-0.4-0.2-0.9,0.1-0.8,0.6
		l1.1,6.5c0,0.2,0,0.4-0.2,0.5l-4.7,4.6c-0.3,0.3-0.2,0.9,0.3,1l6.5,1c0.2,0,0.3,0.1,0.4,0.3l2.9,5.9C-12.3-8.4-11.7-8.4-11.5-8.9z"
		/>
	<path fill="#FFFFFF" d="M12.7-8.9l2.9-5.9c0.1-0.2,0.2-0.3,0.4-0.3l6.5-1c0.5-0.1,0.7-0.6,0.3-1l-4.7-4.6c-0.1-0.1-0.2-0.3-0.2-0.5
		l1.1-6.5c0.1-0.5-0.4-0.8-0.8-0.6l-5.9,3.1c-0.2,0.1-0.4,0.1-0.5,0l-5.9-3.1c-0.4-0.2-0.9,0.1-0.8,0.6l1.1,6.5c0,0.2,0,0.4-0.2,0.5
		l-4.7,4.6c-0.3,0.3-0.2,0.9,0.3,1l6.5,1c0.2,0,0.3,0.1,0.4,0.3l2.9,5.9C11.9-8.4,12.5-8.4,12.7-8.9z"/>
</symbol>
<rect id="facebook" fill="#3A5BA2" width="60" height="85"/>
<use xlink:href="#_x35__star"  width="59.9" height="58.7" x="-29.9" y="-29.3" transform="matrix(0.5482 0 0 -0.5482 30 42.5)" overflow="visible"/>
</svg>
